<svg width="642" height="138" viewBox="0 0 642 138" fill="none" xmlns="http://www.w3.org/2000/svg">
<path d="M59 51V76.6H44V4H72.3C77.8 4 82.5 5 86.7 7C90.8 9 94 11.8 96.2 15.5C98.4 19.2 99.5 23.4 99.5 28C99.5 35.1 97.1 40.7 92.2 44.8C87.3 48.9 80.6 51 72 51H59ZM59 38.9H72.4C76.4 38.9 79.4 38 81.5 36.1C83.6 34.2 84.6 31.6 84.6 28.1C84.6 24.5 83.6 21.7 81.5 19.5C79.4 17.3 76.5 16.2 72.8 16.1H59V38.9Z" fill="black"/>
<path d="M138.8 36.1C136.8 35.8 135.1 35.7 133.6 35.7C128.1 35.7 124.6 37.5 122.9 41.2V76.5H108.5V22.5H122.1L122.5 28.9C125.4 23.9 129.4 21.5 134.5 21.5C136.1 21.5 137.6 21.7 139 22.1L138.8 36.1Z" fill="black"/>
<path d="M145.102 8.59922C145.102 6.39922 145.802 4.69922 147.302 3.29922C148.702 1.89922 150.702 1.19922 153.202 1.19922C155.702 1.19922 157.602 1.89922 159.102 3.29922C160.602 4.69922 161.302 6.49922 161.302 8.59922C161.302 10.7992 160.602 12.5992 159.102 13.9992C157.602 15.3992 155.702 16.0992 153.202 16.0992C150.802 16.0992 148.802 15.3992 147.302 13.9992C145.902 12.5992 145.102 10.7992 145.102 8.59922Z" fill="#1DAAA3"/>
<path d="M160.5 22.5996H146V76.5996H160.5V22.5996Z" fill="black"/>
<path d="M185.102 22.5996L185.502 28.7996C189.402 23.9996 194.502 21.5996 201.002 21.5996C206.702 21.5996 211.002 23.2996 213.802 26.5996C216.602 29.9996 218.002 34.9996 218.102 41.6996V76.5996H203.702V42.0996C203.702 38.9996 203.002 36.7996 201.702 35.3996C200.402 33.9996 198.202 33.2996 195.102 33.2996C191.002 33.2996 188.002 34.9996 186.002 38.4996V76.4996H171.602V22.4996L185.102 22.5996Z" fill="black"/>
<path d="M245.701 9.30078V22.6008H254.901V33.2008H245.701V60.1008C245.701 62.1008 246.101 63.5008 246.801 64.4008C247.601 65.3008 249.001 65.7008 251.201 65.7008C252.801 65.7008 254.201 65.6008 255.401 65.4008V76.3008C252.601 77.2008 249.701 77.6008 246.701 77.6008C236.601 77.6008 231.401 72.5008 231.201 62.3008V33.2008H223.301V22.6008H231.201V9.30078H245.701Z" fill="black"/>
<path d="M301.1 57.5004C301.1 54.7004 300.1 52.5004 298.1 51.0004C296.1 49.5004 292.5 47.9004 287.3 46.2004C282.1 44.5004 278 42.9004 275 41.2004C266.8 36.7004 262.6 30.7004 262.6 23.2004C262.6 19.3004 263.7 15.8004 265.9 12.7004C268.1 9.60039 271.3 7.20039 275.4 5.50039C279.5 3.80039 284.2 2.90039 289.3 2.90039C294.5 2.90039 299.1 3.80039 303.2 5.70039C307.3 7.60039 310.4 10.2004 312.7 13.7004C314.9 17.1004 316.1 21.0004 316.1 25.4004H301.1C301.1 22.1004 300.1 19.5004 298 17.6004C295.9 15.8004 293 14.8004 289.2 14.8004C285.5 14.8004 282.7 15.6004 280.7 17.1004C278.7 18.6004 277.7 20.7004 277.7 23.2004C277.7 25.6004 278.9 27.5004 281.3 29.1004C283.7 30.7004 287.2 32.2004 291.8 33.6004C300.3 36.2004 306.5 39.3004 310.4 43.1004C314.3 46.9004 316.2 51.6004 316.2 57.3004C316.2 63.6004 313.8 68.5004 309.1 72.1004C304.3 75.7004 297.9 77.5004 289.9 77.5004C284.3 77.5004 279.2 76.5004 274.6 74.4004C270 72.4004 266.5 69.6004 264.1 66.0004C261.7 62.4004 260.5 58.3004 260.5 53.6004H275.5C275.5 61.6004 280.3 65.6004 289.9 65.6004C293.5 65.6004 296.2 64.9004 298.2 63.4004C300.2 61.9004 301.1 60.1004 301.1 57.5004Z" fill="black"/>
<path d="M338.798 28.5C342.598 23.9 347.398 21.6 353.198 21.6C364.898 21.6 370.798 28.4 370.998 42V76.6H356.598V42.4C356.598 39.3 355.898 37 354.598 35.5C353.298 34 351.098 33.3 347.998 33.3C343.798 33.3 340.698 34.9 338.798 38.2V76.5H324.398V0H338.798V28.5Z" fill="black"/>
<path d="M379.102 49.0992C379.102 43.6992 380.102 38.9992 382.202 34.7992C384.302 30.5992 387.202 27.3992 391.102 25.0992C395.002 22.7992 399.502 21.6992 404.602 21.6992C411.902 21.6992 417.802 23.8992 422.402 28.3992C427.002 32.8992 429.602 38.8992 430.102 46.5992L430.202 50.2992C430.202 58.5992 427.902 65.1992 423.302 70.1992C418.702 75.1992 412.502 77.6992 404.702 77.6992C396.902 77.6992 390.702 75.1992 386.102 70.1992C381.502 65.1992 379.102 58.3992 379.102 49.8992V49.0992ZM393.502 50.0992C393.502 55.1992 394.502 59.0992 396.402 61.8992C398.302 64.6992 401.102 65.9992 404.702 65.9992C408.202 65.9992 410.902 64.6992 412.902 61.9992C414.902 59.2992 415.802 54.9992 415.802 49.0992C415.802 44.0992 414.802 40.1992 412.902 37.3992C410.902 34.5992 408.202 33.2992 404.602 33.2992C401.102 33.2992 398.302 34.6992 396.402 37.3992C394.502 40.0992 393.502 44.3992 393.502 50.0992Z" fill="black"/>
<path d="M487.202 50.0996C487.202 58.3996 485.302 65.0996 481.502 70.0996C477.702 75.0996 472.602 77.5996 466.202 77.5996C460.702 77.5996 456.302 75.6996 453.002 71.8996V97.2996H438.602V22.5996H452.002L452.502 27.8996C456.002 23.6996 460.502 21.5996 466.202 21.5996C472.802 21.5996 478.002 24.0996 481.702 28.9996C485.402 33.8996 487.202 40.6996 487.202 49.2996V50.0996ZM472.802 48.9996C472.802 43.9996 471.902 40.0996 470.102 37.3996C468.302 34.6996 465.702 33.2996 462.302 33.2996C457.802 33.2996 454.702 34.9996 453.002 38.4996V60.5996C454.802 64.1996 457.902 65.8996 462.402 65.8996C469.302 65.8996 472.802 60.2996 472.802 48.9996Z" fill="black"/>
<path d="M544.202 50.0996C544.202 58.3996 542.302 65.0996 538.502 70.0996C534.702 75.0996 529.602 77.5996 523.202 77.5996C517.702 77.5996 513.302 75.6996 510.002 71.8996V97.2996H495.602V22.5996H509.002L509.502 27.8996C513.002 23.6996 517.502 21.5996 523.202 21.5996C529.802 21.5996 535.002 24.0996 538.702 28.9996C542.402 33.8996 544.202 40.6996 544.202 49.2996V50.0996ZM529.802 48.9996C529.802 43.9996 528.902 40.0996 527.102 37.3996C525.302 34.6996 522.702 33.2996 519.302 33.2996C514.802 33.2996 511.702 34.9996 510.002 38.4996V60.5996C511.802 64.1996 514.902 65.8996 519.402 65.8996C526.302 65.8996 529.802 60.2996 529.802 48.9996Z" fill="black"/>
<path d="M572.5 56.1996L582.5 22.5996H598L576.3 84.8996L575.1 87.6996C571.9 94.6996 566.6 98.2996 559.1 98.2996C557 98.2996 554.9 97.9996 552.7 97.3996V86.4996H554.9C557.6 86.4996 559.7 86.0996 561 85.2996C562.3 84.4996 563.4 83.0996 564.2 81.1996L565.9 76.7996L547 22.6996H562.5L572.5 56.1996Z" fill="black"/>
<path d="M232.143 137.554C226.704 137.554 222.398 134.722 222.398 129.736H228.064C228.177 131.889 229.65 133.249 232.029 133.249C234.522 133.249 235.995 131.889 235.995 130.076C235.995 124.411 222.398 127.81 222.398 118.293C222.398 113.534 226.251 110.701 231.689 110.701C237.128 110.701 240.754 113.42 241.094 118.179H235.315C235.202 116.48 233.842 115.12 231.576 115.007C229.537 114.893 227.95 115.913 227.95 118.066C227.95 123.391 241.434 120.445 241.434 129.736C241.547 133.815 238.148 137.554 232.143 137.554Z" fill="black"/>
<path d="M245.852 111.045H251.177V137.332H245.852V111.045Z" fill="black"/>
<path d="M278.712 110.932V137.332H273.386L261.376 119.203V137.332H256.051V110.932H261.376L273.386 129.06V110.932H278.712Z" fill="black"/>
<path d="M295.819 110.701C301.711 110.701 306.47 113.874 308.169 119.199H302.051C300.805 116.706 298.538 115.46 295.706 115.46C291.06 115.46 287.775 118.859 287.775 124.184C287.775 129.51 291.06 132.909 295.706 132.909C298.538 132.909 300.805 131.663 302.051 129.057H308.169C306.356 134.495 301.598 137.554 295.819 137.554C288.228 137.554 282.449 132.002 282.449 124.071C282.449 116.14 288.228 110.701 295.819 110.701Z" fill="black"/>
<path d="M327.773 115.237H317.802V121.809H326.64V126.001H317.802V133.026H327.773V137.332H312.477V110.932H327.773V115.237Z" fill="black"/>
<path d="M340.352 133.024C346.583 127.699 353.155 122.827 353.155 117.842C353.155 115.349 352.022 113.763 349.416 113.763C346.923 113.763 345.45 115.576 345.45 118.521H340.352C340.578 112.176 344.544 109.344 349.529 109.344C355.421 109.344 358.48 112.856 358.48 117.615C358.48 123.96 352.362 128.945 347.943 132.685H359.047V137.103H340.352V133.024Z" fill="black"/>
<path d="M372.299 109.344C380.117 109.344 382.496 115.349 382.496 123.28C382.496 131.325 380.117 137.33 372.299 137.33C364.481 137.33 362.102 131.325 362.102 123.28C362.102 115.236 364.481 109.344 372.299 109.344ZM372.299 114.216C367.88 114.216 367.314 118.521 367.314 123.28C367.314 128.152 367.88 132.458 372.299 132.458C376.718 132.458 377.284 128.266 377.284 123.28C377.284 118.521 376.718 114.216 372.299 114.216Z" fill="black"/>
<path d="M389.298 114.669H385.672V109.797H394.736V137.33H389.298V114.669Z" fill="black"/>
<path d="M418.183 109.797V114.442H405.946V120.901C406.966 119.654 409.006 118.635 411.385 118.635C417.843 118.635 419.996 123.507 419.996 127.699C419.996 133.364 416.71 137.33 410.479 137.33C404.587 137.33 401.188 134.044 400.734 129.512H405.833C406.286 131.438 407.873 132.798 410.365 132.798C413.424 132.798 414.897 130.645 414.897 127.699C414.897 124.64 413.311 122.94 410.365 122.94C408.212 122.94 406.74 124.187 406.173 125.886H401.074V109.797H418.183Z" fill="black"/>
<path d="M622.498 0.400391C618.698 0.400391 614.998 1.50039 611.798 3.70039C608.598 5.80039 606.198 8.80039 604.698 12.4004C603.198 15.9004 602.898 19.8004 603.598 23.6004C604.298 27.4004 606.198 30.8004 608.898 33.5004C611.598 36.2004 614.998 38.0004 618.798 38.8004C622.498 39.5004 626.398 39.2004 629.998 37.7004C633.498 36.2004 636.498 33.8004 638.698 30.6004C640.798 27.4004 641.998 23.7004 641.998 19.9004C641.998 14.8004 639.998 9.90039 636.298 6.30039C632.498 2.40039 627.598 0.400391 622.498 0.400391ZM622.498 35.2004C619.398 35.2004 616.498 34.3004 613.898 32.6004C611.398 30.9004 609.398 28.5004 608.198 25.7004C606.998 22.9004 606.698 19.8004 607.298 16.8004C607.898 13.8004 609.398 11.1004 611.498 8.90039C613.698 6.70039 616.398 5.30039 619.398 4.70039C622.398 4.10039 625.498 4.40039 628.298 5.60039C631.098 6.80039 633.498 8.70039 635.198 11.3004C636.898 13.8004 637.798 16.8004 637.798 19.9004C637.798 24.0004 636.198 27.9004 633.298 30.8004C630.498 33.5004 626.598 35.2004 622.498 35.2004Z" fill="black"/>
<path d="M630.199 15.8996C630.199 14.3996 629.599 12.8996 628.499 11.7996C627.399 10.6996 625.899 10.0996 624.399 10.0996H614.699V29.3996H618.599V21.6996H621.399L626.599 29.3996H631.199L625.899 21.3996C627.099 21.0996 628.199 20.2996 628.999 19.2996C629.799 18.3996 630.199 17.0996 630.199 15.8996ZM624.399 17.7996H618.599V13.8996H624.399C624.899 13.8996 625.399 14.0996 625.799 14.4996C626.199 14.8996 626.399 15.3996 626.399 15.8996C626.399 16.3996 626.199 16.8996 625.799 17.2996C625.399 17.6996 624.899 17.7996 624.399 17.7996Z" fill="black"/>
<path d="M44 123H208" stroke="black" stroke-width="2" stroke-miterlimit="10" stroke-linecap="round"/>
<path d="M434 123L598 123" stroke="black" stroke-width="2" stroke-miterlimit="10" stroke-linecap="round"/>
</svg>
