<svg width="1250" height="134" viewBox="0 0 1250 134" fill="none" xmlns="http://www.w3.org/2000/svg">
<g clip-path="url(#clip0_12959_37968)">
<path d="M444.08 54.9996H439.28V33.5596H445.776L450.8 44.1196L452.816 49.1436H453.168L455.12 44.1196L459.984 33.5596H466.512V54.9996H461.712V44.1196L461.872 40.7596H461.52L460.272 44.1196L455.792 53.7196H449.968L445.488 44.1196L444.24 40.7596H443.888L444.08 44.1196V54.9996ZM474.598 55.3196C471.142 55.3196 469.062 53.7196 469.062 51.0316C469.062 48.6636 470.822 47.1916 474.246 46.8396L481.126 46.1356V45.5276C481.126 43.4476 480.198 42.8716 477.638 42.8716C475.206 42.8716 474.214 43.5116 474.214 45.3356V45.4636H469.382V45.3676C469.382 41.3996 472.71 38.6476 477.99 38.6476C483.334 38.6476 485.862 41.3996 485.862 45.5916V54.9996H481.382V51.3196H481.126C480.39 53.8156 478.15 55.3196 474.598 55.3196ZM473.894 50.7116C473.894 51.5756 474.566 51.9276 475.974 51.9276C479.238 51.9276 480.998 51.1596 481.126 48.8876L475.558 49.5276C474.406 49.6236 473.894 49.9436 473.894 50.7116ZM493.735 54.9996H488.935V33.5596H493.735V44.9196H497.383L501.479 38.9676H507.175L501.319 46.7116L507.079 54.9996H501.415L497.415 49.2076H493.735V54.9996ZM517.493 55.3196C512.149 55.3196 508.501 52.6956 508.501 46.9996C508.501 41.8796 512.117 38.6476 517.397 38.6476C522.645 38.6476 526.133 41.3996 526.133 46.4236C526.133 46.9996 526.069 47.4156 526.005 47.9596H512.949C513.077 50.4236 514.229 51.4796 517.333 51.4796C520.181 51.4796 521.173 50.7436 521.173 49.3676V49.0476H525.973V49.3996C525.973 52.8876 522.581 55.3196 517.493 55.3196ZM517.301 42.3916C514.453 42.3916 513.237 43.3516 513.013 45.4316H521.525C521.397 43.3196 520.117 42.3916 517.301 42.3916ZM547.09 54.9996H542.258V47.8956L532.754 33.5596H538.674L542.77 39.8316L544.562 42.7116H544.914L546.706 39.8316L550.802 33.5596H556.754L547.09 47.9276V54.9996ZM566.851 55.3196C561.379 55.3196 557.699 52.0556 557.699 46.9996C557.699 41.8796 561.379 38.6476 566.851 38.6476C572.323 38.6476 576.003 41.8796 576.003 46.9996C576.003 52.0556 572.323 55.3196 566.851 55.3196ZM566.851 51.0636C570.083 51.0636 571.235 49.8156 571.235 46.9996C571.235 44.1836 570.083 42.8716 566.851 42.8716C563.587 42.8716 562.467 44.1836 562.467 46.9996C562.467 49.8156 563.587 51.0636 566.851 51.0636ZM585.228 55.3196C580.716 55.3196 578.572 52.5356 578.572 48.9516V38.9676H583.372V47.3516C583.372 49.9436 584.46 51.0316 587.5 51.0316C590.636 51.0316 591.756 49.8156 591.756 47.0956V38.9676H596.556V54.9996H592.076V50.1036H591.82C591.404 52.7916 589.452 55.3196 585.228 55.3196ZM604.45 54.9996H599.65V38.9676H604.098V43.2236H604.386C604.834 40.6316 606.53 38.6476 609.762 38.6476C613.346 38.6476 614.818 41.1116 614.818 44.2476V46.9036H610.018V45.2396C610.018 43.4796 609.314 42.7116 607.362 42.7116C605.218 42.7116 604.45 43.7036 604.45 45.7196V54.9996ZM627.574 54.9996H622.774V33.5596H627.574V42.0716H638.774V33.5596H643.574V54.9996H638.774V46.3916H627.574V54.9996ZM655.333 55.3196C649.861 55.3196 646.181 52.0556 646.181 46.9996C646.181 41.8796 649.861 38.6476 655.333 38.6476C660.805 38.6476 664.485 41.8796 664.485 46.9996C664.485 52.0556 660.805 55.3196 655.333 55.3196ZM655.333 51.0636C658.565 51.0636 659.717 49.8156 659.717 46.9996C659.717 44.1836 658.565 42.8716 655.333 42.8716C652.069 42.8716 650.949 44.1836 650.949 46.9996C650.949 49.8156 652.069 51.0636 655.333 51.0636ZM673.709 55.3196C669.197 55.3196 667.053 52.5356 667.053 48.9516V38.9676H671.853V47.3516C671.853 49.9436 672.941 51.0316 675.981 51.0316C679.117 51.0316 680.237 49.8156 680.237 47.0956V38.9676H685.037V54.9996H680.557V50.1036H680.301C679.885 52.7916 677.933 55.3196 673.709 55.3196ZM696.227 55.3196C690.819 55.3196 687.843 53.2076 687.843 49.4956V49.3996H692.643V49.6876C692.643 51.1276 693.539 51.5116 696.259 51.5116C698.819 51.5116 699.427 51.0956 699.427 50.1356C699.427 49.2396 698.947 48.9836 697.059 48.7276L692.547 48.1836C689.347 47.8316 687.555 46.3916 687.555 43.7036C687.555 40.8876 689.955 38.6476 695.459 38.6476C700.707 38.6476 703.683 40.6316 703.683 44.5356V44.6316H698.883V44.4396C698.883 43.1276 698.243 42.4556 695.299 42.4556C692.899 42.4556 692.291 42.8716 692.291 43.8956C692.291 44.7276 692.739 45.0796 694.851 45.3356L698.275 45.7516C702.563 46.2316 704.163 47.6716 704.163 50.3276C704.163 53.3356 701.187 55.3196 696.227 55.3196ZM715.252 55.3196C709.908 55.3196 706.26 52.6956 706.26 46.9996C706.26 41.8796 709.876 38.6476 715.156 38.6476C720.404 38.6476 723.892 41.3996 723.892 46.4236C723.892 46.9996 723.828 47.4156 723.764 47.9596H710.708C710.836 50.4236 711.988 51.4796 715.092 51.4796C717.94 51.4796 718.932 50.7436 718.932 49.3676V49.0476H723.732V49.3996C723.732 52.8876 720.34 55.3196 715.252 55.3196ZM715.06 42.3916C712.212 42.3916 710.996 43.3516 710.772 45.4316H719.284C719.156 43.3196 717.876 42.3916 715.06 42.3916Z" fill="#EC6F64"/>
<path d="M654.66 89.8696C654.968 90.0936 655.052 90.3596 654.912 90.6676C654.52 91.4516 654.044 92.3756 653.484 93.4396C652.924 94.5036 652.308 95.5116 651.636 96.4636C650.992 97.4156 650.334 98.2276 649.662 98.8996C648.99 99.5436 648.36 99.8656 647.772 99.8656C646.736 99.8656 645.994 99.4736 645.546 98.6896C645.098 97.9056 644.832 96.9956 644.748 95.9596C644.636 94.8956 644.636 93.8316 644.748 92.7676C644.832 91.7036 644.916 90.8776 645 90.2896C645.14 89.2536 645.35 88.0916 645.63 86.8036C645.91 85.4876 646.246 84.1576 646.638 82.8136C647.058 81.4696 647.506 80.1676 647.982 78.9076C648.458 77.6476 648.962 76.5416 649.494 75.5896C650.054 74.6376 650.614 73.9096 651.174 73.4056C651.734 72.8736 652.294 72.6916 652.854 72.8596C653.414 73.0276 653.862 73.2656 654.198 73.5736C654.534 73.8536 654.702 74.2876 654.702 74.8756C654.674 75.6316 654.478 76.6396 654.114 77.8996C653.778 79.1596 653.316 80.4616 652.728 81.8056C652.168 83.1216 651.51 84.3956 650.754 85.6276C649.998 86.8596 649.2 87.8396 648.36 88.5676C648.248 88.6516 648.136 88.7636 648.024 88.9036C647.94 89.0156 647.884 89.1416 647.856 89.2816C647.772 89.8136 647.674 90.5836 647.562 91.5916C647.478 92.5996 647.422 93.6076 647.394 94.6156C647.366 95.6236 647.394 96.5056 647.478 97.2616C647.59 98.0176 647.786 98.3956 648.066 98.3956C648.29 98.3956 648.64 98.1156 649.116 97.5556C649.62 96.9956 650.152 96.3096 650.712 95.4976C651.3 94.6576 651.874 93.7756 652.434 92.8516C652.994 91.8996 653.442 91.0456 653.778 90.2896C653.89 90.0096 654.03 89.8556 654.198 89.8276C654.394 89.7716 654.548 89.7856 654.66 89.8696ZM652.434 75.7156C652.154 76.0796 651.818 76.6676 651.426 77.4796C651.062 78.2916 650.712 79.1736 650.376 80.1256C650.04 81.0496 649.732 81.9736 649.452 82.8976C649.2 83.8216 649.018 84.5916 648.906 85.2076C649.382 84.5636 649.83 83.7936 650.25 82.8976C650.698 81.9736 651.076 81.0636 651.384 80.1676C651.72 79.2436 651.972 78.3896 652.14 77.6056C652.336 76.7936 652.434 76.1636 652.434 75.7156ZM661.295 90.9196C661.239 91.3956 661.239 91.6476 661.295 91.6756C661.379 91.6756 661.603 91.6056 661.967 91.4656C662.975 91.1576 663.731 90.8916 664.235 90.6676C664.739 90.4436 665.089 90.2616 665.285 90.1216C665.425 90.0096 665.565 89.9536 665.705 89.9536C665.845 89.9256 665.943 89.9676 665.999 90.0796C666.083 90.1916 666.083 90.3456 665.999 90.5416C665.915 90.7096 665.831 90.8356 665.747 90.9196C665.495 91.1436 665.145 91.3676 664.697 91.5916C664.249 91.8156 663.787 92.0256 663.311 92.2216C662.863 92.4176 662.429 92.5856 662.009 92.7256C661.617 92.8376 661.337 92.9216 661.169 92.9776C660.917 93.0056 660.749 93.1316 660.665 93.3556C660.525 93.6356 660.329 93.9436 660.077 94.2796C659.825 94.6156 659.545 94.9236 659.237 95.2036C658.957 95.4836 658.635 95.7216 658.271 95.9176C657.935 96.0856 657.585 96.1696 657.221 96.1696C656.661 96.1696 656.185 95.9316 655.793 95.4556C655.401 94.9516 655.331 94.1396 655.583 93.0196C655.639 92.7396 655.681 92.5576 655.709 92.4736C655.737 92.3616 655.681 92.2356 655.541 92.0956C655.429 91.9836 655.317 91.8716 655.205 91.7596C655.093 91.6476 654.995 91.5216 654.911 91.3816C654.519 90.6536 654.477 89.9536 654.785 89.2816C655.093 88.6096 655.555 88.0636 656.171 87.6436C656.703 87.2796 657.263 87.0976 657.851 87.0976C658.411 87.0976 658.985 87.2656 659.573 87.6016C660.889 88.2736 661.463 89.3796 661.295 90.9196ZM656.297 90.9616C656.381 90.9056 656.493 90.7656 656.633 90.5416C656.773 90.2896 656.927 90.0516 657.095 89.8276C657.291 89.6036 657.501 89.4216 657.725 89.2816C657.977 89.1416 658.243 89.1416 658.523 89.2816C658.915 89.4216 658.957 89.6456 658.649 89.9536C658.397 90.2336 658.187 90.5276 658.019 90.8356C657.851 91.1436 657.697 91.4516 657.557 91.7596C657.473 91.9556 657.529 92.0676 657.725 92.0956C657.977 92.1236 658.229 92.1516 658.481 92.1796C658.733 92.1796 658.971 92.1516 659.195 92.0956C659.363 92.0676 659.489 91.9556 659.573 91.7596C659.881 90.8636 659.923 90.0096 659.699 89.1976C659.615 88.8896 659.461 88.6656 659.237 88.5256C659.041 88.3576 658.817 88.2736 658.565 88.2736C658.117 88.2736 657.669 88.4556 657.221 88.8196C656.773 89.1836 656.465 89.6736 656.297 90.2896C656.269 90.4016 656.241 90.5136 656.213 90.6256C656.213 90.7096 656.241 90.8216 656.297 90.9616ZM656.927 94.6996C657.011 95.0636 657.193 95.1336 657.473 94.9096C657.977 94.5456 658.397 94.0556 658.733 93.4396C658.901 93.2156 658.845 93.1176 658.565 93.1456C658.285 93.1736 657.893 93.1176 657.389 92.9776C657.249 92.9496 657.151 93.0196 657.095 93.1876C657.011 93.5236 656.955 93.8316 656.927 94.1116C656.899 94.3916 656.899 94.5876 656.927 94.6996ZM672.717 90.9196C672.661 91.3956 672.661 91.6476 672.717 91.6756C672.801 91.6756 673.025 91.6056 673.389 91.4656C674.397 91.1576 675.153 90.8916 675.657 90.6676C676.161 90.4436 676.511 90.2616 676.707 90.1216C676.847 90.0096 676.987 89.9536 677.127 89.9536C677.267 89.9256 677.365 89.9676 677.421 90.0796C677.505 90.1916 677.505 90.3456 677.421 90.5416C677.337 90.7096 677.253 90.8356 677.169 90.9196C676.917 91.1436 676.567 91.3676 676.119 91.5916C675.671 91.8156 675.209 92.0256 674.733 92.2216C674.285 92.4176 673.851 92.5856 673.431 92.7256C673.039 92.8376 672.759 92.9216 672.591 92.9776C672.339 93.0056 672.171 93.1316 672.087 93.3556C671.947 93.6356 671.751 93.9436 671.499 94.2796C671.247 94.6156 670.967 94.9236 670.659 95.2036C670.379 95.4836 670.057 95.7216 669.693 95.9176C669.357 96.0856 669.007 96.1696 668.643 96.1696C668.083 96.1696 667.607 95.9316 667.215 95.4556C666.823 94.9516 666.753 94.1396 667.005 93.0196C667.061 92.7396 667.103 92.5576 667.131 92.4736C667.159 92.3616 667.103 92.2356 666.963 92.0956C666.851 91.9836 666.739 91.8716 666.627 91.7596C666.515 91.6476 666.417 91.5216 666.333 91.3816C665.941 90.6536 665.899 89.9536 666.207 89.2816C666.515 88.6096 666.977 88.0636 667.593 87.6436C668.125 87.2796 668.685 87.0976 669.273 87.0976C669.833 87.0976 670.407 87.2656 670.995 87.6016C672.311 88.2736 672.885 89.3796 672.717 90.9196ZM667.719 90.9616C667.803 90.9056 667.915 90.7656 668.055 90.5416C668.195 90.2896 668.349 90.0516 668.517 89.8276C668.713 89.6036 668.923 89.4216 669.147 89.2816C669.399 89.1416 669.665 89.1416 669.945 89.2816C670.337 89.4216 670.379 89.6456 670.071 89.9536C669.819 90.2336 669.609 90.5276 669.441 90.8356C669.273 91.1436 669.119 91.4516 668.979 91.7596C668.895 91.9556 668.951 92.0676 669.147 92.0956C669.399 92.1236 669.651 92.1516 669.903 92.1796C670.155 92.1796 670.393 92.1516 670.617 92.0956C670.785 92.0676 670.911 91.9556 670.995 91.7596C671.303 90.8636 671.345 90.0096 671.121 89.1976C671.037 88.8896 670.883 88.6656 670.659 88.5256C670.463 88.3576 670.239 88.2736 669.987 88.2736C669.539 88.2736 669.091 88.4556 668.643 88.8196C668.195 89.1836 667.887 89.6736 667.719 90.2896C667.691 90.4016 667.663 90.5136 667.635 90.6256C667.635 90.7096 667.663 90.8216 667.719 90.9616ZM668.349 94.6996C668.433 95.0636 668.615 95.1336 668.895 94.9096C669.399 94.5456 669.819 94.0556 670.155 93.4396C670.323 93.2156 670.267 93.1176 669.987 93.1456C669.707 93.1736 669.315 93.1176 668.811 92.9776C668.671 92.9496 668.573 93.0196 668.517 93.1876C668.433 93.5236 668.377 93.8316 668.349 94.1116C668.321 94.3916 668.321 94.5876 668.349 94.6996ZM680.275 87.9376C681.451 87.1816 682.375 86.6076 683.047 86.2156C683.747 85.7956 684.335 85.5856 684.811 85.5856C685.231 85.5856 685.637 85.7816 686.029 86.1736C686.365 86.4816 686.337 86.7476 685.945 86.9716C685.413 87.3076 685.035 87.5456 684.811 87.6856C684.587 87.8256 684.335 87.9936 684.055 88.1896C683.803 88.3576 683.453 88.6236 683.005 88.9876C682.557 89.3516 681.843 89.9256 680.863 90.7096C680.555 90.9616 680.261 91.1996 679.981 91.4236C679.729 91.6196 679.575 91.7456 679.519 91.8016C679.239 92.1656 679.309 92.4456 679.729 92.6416C680.457 92.9496 681.115 93.1876 681.703 93.3556C682.291 93.4956 682.809 93.6216 683.257 93.7336C683.733 93.8456 684.125 93.9716 684.433 94.1116C684.741 94.2236 684.979 94.4196 685.147 94.6996C685.287 94.9236 685.273 95.0776 685.105 95.1616C684.965 95.2456 684.783 95.2736 684.559 95.2456C683.579 95.1056 682.767 94.9656 682.123 94.8256C681.479 94.6856 680.947 94.5596 680.527 94.4476C680.135 94.3076 679.841 94.2096 679.645 94.1536C679.449 94.0696 679.309 94.0276 679.225 94.0276C679.169 94.0276 679.113 94.1396 679.057 94.3636C679.001 94.9236 678.945 95.4976 678.889 96.0856C678.833 96.6456 678.819 97.2056 678.847 97.7656C678.847 97.9056 678.861 98.0316 678.889 98.1436C678.945 98.2276 679.057 98.2976 679.225 98.3536C679.505 98.4656 679.617 98.6196 679.561 98.8156C679.533 98.9836 679.407 99.1096 679.183 99.1936C679.043 99.2496 678.903 99.2916 678.763 99.3196C678.651 99.3476 678.525 99.3616 678.385 99.3616C677.797 99.3616 677.405 99.0956 677.209 98.5636C677.097 98.3116 677.027 97.9616 676.999 97.5136C676.943 97.0376 676.929 96.5616 676.957 96.0856C676.957 95.5816 676.985 95.1056 677.041 94.6576C677.069 94.2096 677.097 93.8456 677.125 93.5656C677.209 93.1176 677.125 92.7256 676.873 92.3896C676.481 91.9696 676.467 91.4796 676.831 90.9196C677.055 90.5836 677.237 90.3736 677.377 90.2896C677.489 90.2056 677.573 89.9956 677.629 89.6596C677.797 88.6516 678.007 87.4476 678.259 86.0476C678.539 84.6196 678.847 83.1776 679.183 81.7216C679.547 80.2376 679.925 78.8096 680.317 77.4376C680.737 76.0656 681.171 74.9316 681.619 74.0356C681.703 73.8396 681.801 73.6716 681.913 73.5316C682.053 73.3916 682.235 73.3776 682.459 73.4896C682.543 73.5176 682.669 73.5736 682.837 73.6576C683.005 73.7136 683.159 73.7976 683.299 73.9096C683.467 74.0216 683.593 74.1756 683.677 74.3716C683.761 74.5396 683.761 74.7496 683.677 75.0016C683.201 76.5136 682.753 78.0256 682.333 79.5376C681.941 81.0496 681.591 82.4356 681.283 83.6956C680.919 85.1516 680.583 86.5656 680.275 87.9376ZM702.087 93.4396C702.059 93.4396 702.031 93.4396 702.003 93.4396C701.975 93.4116 701.863 93.4396 701.667 93.5236C701.499 93.5796 701.205 93.6776 700.785 93.8176C700.393 93.9576 699.805 94.1816 699.021 94.4896C698.741 94.6016 698.475 94.6856 698.223 94.7416C697.971 94.7976 697.705 94.7976 697.425 94.7416C697.285 94.7136 697.145 94.6436 697.005 94.5316C696.865 94.4196 696.795 94.3076 696.795 94.1956C696.795 94.0556 696.837 93.9436 696.921 93.8596C697.005 93.7756 697.103 93.6916 697.215 93.6076C697.579 93.3836 698.027 93.1456 698.559 92.8936C699.091 92.6416 699.609 92.4036 700.113 92.1796C700.645 91.9556 701.121 91.7596 701.541 91.5916C701.989 91.4236 702.325 91.2976 702.549 91.2136C702.885 91.1296 703.123 90.8916 703.263 90.4996C703.823 88.9876 704.537 87.3496 705.405 85.5856C706.273 83.7936 707.211 82.0576 708.219 80.3776C709.255 78.6696 710.333 77.1016 711.453 75.6736C712.573 74.2456 713.637 73.1256 714.645 72.3136C714.953 72.0896 715.219 71.9216 715.443 71.8096C715.695 71.6696 715.947 71.5996 716.199 71.5996C716.591 71.5996 717.095 71.7816 717.711 72.1456C718.187 72.4256 718.537 72.7616 718.761 73.1536C718.985 73.5176 719.125 73.9936 719.181 74.5816C719.237 75.1416 719.209 75.8416 719.097 76.6816C719.013 77.4936 718.873 78.4876 718.677 79.6636C718.565 80.3356 718.439 81.0496 718.299 81.8056C718.187 82.5336 718.075 83.2196 717.963 83.8636C717.851 84.4796 717.753 85.0116 717.669 85.4596C717.585 85.8796 717.543 86.1036 717.543 86.1316C717.515 86.4956 717.613 86.6776 717.837 86.6776C718.033 86.6776 718.355 86.6216 718.803 86.5096C719.279 86.3976 719.965 86.3136 720.861 86.2576C721.757 86.2016 722.499 86.3136 723.087 86.5936C723.703 86.8456 724.109 87.0836 724.305 87.3076C724.445 87.4756 724.459 87.6296 724.347 87.7696C724.263 87.8816 724.151 87.9376 724.011 87.9376C723.815 87.9096 723.619 87.9096 723.423 87.9376C723.227 87.9376 723.017 87.8816 722.793 87.7696C722.653 87.6856 722.499 87.6436 722.331 87.6436C722.163 87.6436 721.995 87.6576 721.827 87.6856C721.099 87.7976 720.385 87.9376 719.685 88.1056C719.013 88.2736 718.341 88.4556 717.669 88.6516C717.445 88.7076 717.305 88.7776 717.249 88.8616C717.193 88.9456 717.151 89.0996 717.123 89.3236C717.039 90.0796 716.983 90.9056 716.955 91.8016C716.927 92.6976 716.955 93.6216 717.039 94.5736C717.123 95.4976 717.249 96.4216 717.417 97.3456C717.613 98.2696 717.879 99.1376 718.215 99.9496C718.383 100.342 718.509 100.566 718.593 100.622C718.705 100.678 718.845 100.65 719.013 100.538C719.181 100.426 719.307 100.314 719.391 100.202C719.503 100.09 719.629 100.062 719.769 100.118C719.993 100.174 720.203 100.216 720.399 100.244C720.595 100.272 720.763 100.384 720.903 100.58C721.043 100.72 721.113 100.846 721.113 100.958C721.113 101.042 721.043 101.168 720.903 101.336C720.679 101.588 720.399 101.784 720.063 101.924C719.755 102.092 719.405 102.176 719.013 102.176C718.313 102.176 717.725 101.952 717.249 101.504C716.773 101.056 716.367 100.51 716.031 99.8656C715.695 99.1936 715.429 98.4936 715.233 97.7656C715.037 97.0376 714.883 96.4076 714.771 95.8756C714.491 94.4196 714.309 93.2856 714.225 92.4736C714.169 91.6336 714.127 91.0036 714.099 90.5836C714.071 90.1636 714.029 89.9256 713.973 89.8696C713.945 89.7856 713.819 89.7716 713.595 89.8276C712.251 90.2196 710.823 90.6676 709.311 91.1716C707.827 91.6756 706.455 92.0816 705.195 92.3896C704.915 92.4736 704.719 92.6556 704.607 92.9356C704.327 93.6916 704.019 94.5876 703.683 95.6236C703.347 96.6596 703.039 97.7236 702.759 98.8156C702.479 99.9076 702.241 100.986 702.045 102.05C701.849 103.114 701.765 104.038 701.793 104.822C701.793 104.962 701.793 105.074 701.793 105.158C701.821 105.27 701.891 105.382 702.003 105.494C702.255 105.69 702.241 105.844 701.961 105.956C701.821 106.012 701.667 106.068 701.499 106.124C701.359 106.18 701.219 106.208 701.079 106.208C700.883 106.208 700.701 106.138 700.533 105.998C700.365 105.886 700.239 105.676 700.155 105.368C699.959 104.612 699.917 103.674 700.029 102.554C700.141 101.434 700.323 100.314 700.575 99.1936C700.827 98.0456 701.093 96.9816 701.373 96.0016C701.681 94.9936 701.905 94.2656 702.045 93.8176C702.073 93.7616 702.101 93.7056 702.129 93.6496C702.157 93.5936 702.143 93.5236 702.087 93.4396ZM715.947 74.4976C715.779 74.5816 715.569 74.7496 715.317 75.0016C715.065 75.2256 714.799 75.4916 714.519 75.7996C714.239 76.0796 713.987 76.3596 713.763 76.6396C713.539 76.9196 713.357 77.1296 713.217 77.2696C712.209 78.5576 711.257 79.9296 710.361 81.3856C709.465 82.8136 708.695 84.1436 708.051 85.3756C707.407 86.6076 706.889 87.6436 706.497 88.4836C706.105 89.3236 705.909 89.8136 705.909 89.9536C705.965 89.9816 706.007 89.9956 706.035 89.9956C706.091 89.9676 706.147 89.9536 706.203 89.9536C708.275 89.2816 709.843 88.7916 710.907 88.4836C711.999 88.1756 712.769 87.9656 713.217 87.8536C713.665 87.7136 713.903 87.6156 713.931 87.5596C713.987 87.5036 714.029 87.3636 714.057 87.1396C714.281 85.2356 714.491 83.6256 714.687 82.3096C714.911 80.9656 715.107 79.8176 715.275 78.8656C715.443 77.9136 715.583 77.1016 715.695 76.4296C715.835 75.7576 715.919 75.1136 715.947 74.4976ZM731.936 91.1296C731.6 91.5496 731.25 92.0956 730.886 92.7676C730.522 93.4396 730.2 93.9856 729.92 94.4056C729.78 94.6016 729.612 94.7556 729.416 94.8676C729.22 94.9516 729.01 94.9936 728.786 94.9936C728.534 94.9936 728.31 94.9236 728.114 94.7836C727.918 94.6436 727.806 94.4196 727.778 94.1116C727.75 93.7756 727.75 93.4396 727.778 93.1036C727.834 92.7676 727.876 92.4456 727.904 92.1376C727.96 91.8016 728.016 91.5076 728.072 91.2556C728.128 91.0036 728.17 90.7936 728.198 90.6256C728.002 90.7936 727.764 91.1016 727.484 91.5496C727.204 91.9696 726.924 92.4456 726.644 92.9776C726.364 93.4816 726.098 93.9716 725.846 94.4476C725.622 94.9236 725.454 95.2736 725.342 95.4976C725.202 95.7776 724.95 95.9876 724.586 96.1276C724.194 96.2396 723.844 96.2396 723.536 96.1276C723.2 96.0156 723.018 95.7356 722.99 95.2876C722.962 94.6436 723.032 93.8596 723.2 92.9356C723.34 91.9836 723.522 91.0316 723.746 90.0796C723.97 89.0996 724.222 88.1896 724.502 87.3496C724.782 86.4816 725.048 85.8236 725.3 85.3756C725.524 84.9556 725.804 84.7456 726.14 84.7456C726.252 84.7456 726.448 84.8016 726.728 84.9136C726.924 85.0256 727.036 85.1376 727.064 85.2496C727.12 85.3336 727.106 85.4876 727.022 85.7116C726.826 86.2716 726.63 86.8876 726.434 87.5596C726.266 88.2036 726.098 88.8336 725.93 89.4496C725.79 90.0656 725.664 90.6116 725.552 91.0876C725.468 91.5356 725.426 91.8296 725.426 91.9696C725.566 91.8576 725.804 91.5216 726.14 90.9616C726.476 90.4016 727.12 89.5756 728.072 88.4836C728.436 88.0916 728.828 87.8956 729.248 87.8956C729.5 87.8956 729.808 87.9656 730.172 88.1056C730.48 88.2176 730.62 88.5116 730.592 88.9876C730.536 89.4076 730.452 89.8276 730.34 90.2476C730.228 90.6676 730.13 91.0876 730.046 91.5076C730.102 91.5076 730.228 91.3816 730.424 91.1296C730.62 90.8776 730.844 90.5836 731.096 90.2476C731.376 89.8836 731.656 89.5056 731.936 89.1136C732.216 88.7216 732.454 88.3856 732.65 88.1056C732.762 87.9376 732.958 87.8256 733.238 87.7696C733.406 87.7696 733.56 87.7836 733.7 87.8116C733.84 87.8116 733.98 87.8536 734.12 87.9376C734.26 88.0216 734.358 88.1056 734.414 88.1896C734.498 88.2456 734.526 88.3576 734.498 88.5256C734.498 88.6936 734.456 88.9456 734.372 89.2816C734.316 89.5896 734.232 90.0236 734.12 90.5836C734.092 90.7796 734.036 91.0596 733.952 91.4236C733.896 91.7596 733.84 92.1236 733.784 92.5156C733.756 92.8796 733.728 93.2436 733.7 93.6076C733.672 93.9716 733.672 94.2516 733.7 94.4476C733.728 94.6716 733.84 94.7136 734.036 94.5736C734.316 94.4056 734.638 94.1536 735.002 93.8176C735.394 93.4816 735.8 93.1176 736.22 92.7256C736.64 92.3056 737.046 91.8856 737.438 91.4656C737.83 91.0176 738.166 90.5976 738.446 90.2056C738.586 90.0376 738.726 89.9536 738.866 89.9536C739.034 89.9536 739.174 90.0236 739.286 90.1636C739.426 90.3036 739.426 90.4856 739.286 90.7096C739.034 91.1296 738.67 91.6616 738.194 92.3056C737.746 92.9216 737.242 93.5236 736.682 94.1116C736.15 94.6716 735.59 95.1616 735.002 95.5816C734.414 96.0016 733.84 96.2116 733.28 96.2116C732.888 96.2116 732.552 96.1136 732.272 95.9176C731.992 95.6936 731.81 95.3436 731.726 94.8676C731.698 94.6716 731.698 94.3776 731.726 93.9856C731.754 93.5936 731.782 93.2016 731.81 92.8096C731.866 92.4176 731.908 92.0536 731.936 91.7176C731.964 91.3816 731.964 91.1856 731.936 91.1296ZM739.101 96.0856C738.541 96.1136 738.107 95.8616 737.799 95.3296C737.575 94.9376 737.449 94.5456 737.421 94.1536C737.365 93.7336 737.421 93.3136 737.589 92.8936C737.813 92.3336 738.107 91.7876 738.471 91.2556C738.807 90.6956 739.213 90.1916 739.689 89.7436C740.165 89.2956 740.683 88.9316 741.243 88.6516C741.803 88.3716 742.405 88.2316 743.049 88.2316C743.301 88.2036 743.525 88.2456 743.721 88.3576C743.945 88.4416 744.155 88.5536 744.351 88.6936C744.519 88.8336 744.631 88.9036 744.687 88.9036C744.743 88.9036 744.827 88.8336 744.939 88.6936C745.191 88.4136 745.499 88.3576 745.863 88.5256C746.423 88.7776 746.745 89.0436 746.829 89.3236C746.913 89.6036 746.843 90.0236 746.619 90.5836C746.423 91.1436 746.129 91.8996 745.737 92.8516C745.373 93.8036 745.023 95.0636 744.687 96.6316C744.631 96.8276 744.589 97.0236 744.561 97.2196C744.561 97.3876 744.533 97.5696 744.477 97.7656C744.477 97.8496 744.477 97.9336 744.477 98.0176C744.477 98.1016 744.505 98.1856 744.561 98.2696C744.869 98.1296 745.303 97.7236 745.863 97.0516C746.451 96.3796 747.053 95.6236 747.669 94.7836C748.285 93.9156 748.873 93.0616 749.433 92.2216C750.021 91.3536 750.455 90.6676 750.735 90.1636C750.847 89.9676 751.029 89.8696 751.281 89.8696C751.505 89.8696 751.687 89.9396 751.827 90.0796C751.995 90.2196 752.023 90.4016 751.911 90.6256C751.659 91.1576 751.281 91.8436 750.777 92.6836C750.301 93.4956 749.783 94.3356 749.223 95.2036C748.663 96.0436 748.103 96.8416 747.543 97.5976C747.011 98.3256 746.535 98.8856 746.115 99.2776C745.667 99.6976 745.121 99.9076 744.477 99.9076C743.973 99.9076 743.511 99.7676 743.091 99.4876C742.699 99.1796 742.475 98.7316 742.419 98.1436C742.363 97.3876 742.405 96.6736 742.545 96.0016C742.685 95.3016 742.853 94.6016 743.049 93.9016C742.601 94.2936 742.139 94.6576 741.663 94.9936C741.271 95.2456 740.837 95.4836 740.361 95.7076C739.913 95.9316 739.493 96.0576 739.101 96.0856ZM739.689 94.2796C739.997 94.1116 740.347 93.8456 740.739 93.4816C741.131 93.0896 741.509 92.6836 741.873 92.2636C742.265 91.8436 742.629 91.4376 742.965 91.0456C743.301 90.6256 743.553 90.3176 743.721 90.1216C743.917 89.9256 743.931 89.7296 743.763 89.5336C743.623 89.3656 743.329 89.4636 742.881 89.8276C742.461 90.1916 742.013 90.6536 741.537 91.2136C741.061 91.7736 740.627 92.3476 740.235 92.9356C739.871 93.5236 739.689 93.9716 739.689 94.2796ZM754.618 94.4896C755.458 94.3496 756.06 94.2656 756.424 94.2376C756.816 94.1816 757.18 94.1676 757.516 94.1956C757.768 94.1956 757.978 94.2656 758.146 94.4056C758.342 94.5176 758.496 94.6436 758.608 94.7836C758.72 94.9236 758.762 95.0496 758.734 95.1616C758.706 95.2736 758.608 95.3296 758.44 95.3296C758.076 95.3296 757.67 95.3716 757.222 95.4556C756.774 95.5396 756.326 95.6376 755.878 95.7496C755.458 95.8336 755.038 95.9316 754.618 96.0436C754.226 96.1556 753.904 96.2396 753.652 96.2956C753.372 96.3516 753.092 96.3376 752.812 96.2536C752.532 96.1416 752.28 96.0016 752.056 95.8336C751.86 95.6376 751.734 95.4276 751.678 95.2036C751.622 94.9516 751.692 94.7136 751.888 94.4896C752.196 94.1256 752.574 93.7336 753.022 93.3136C753.47 92.8656 753.932 92.4036 754.408 91.9276C754.912 91.4516 755.374 90.9476 755.794 90.4156C756.242 89.8556 756.606 89.2956 756.886 88.7356C756.97 88.5116 756.9 88.4276 756.676 88.4836C755.864 88.6236 755.094 88.9176 754.366 89.3656C753.638 89.7856 753.008 90.3596 752.476 91.0876C752.364 91.2556 752.238 91.3396 752.098 91.3396C751.986 91.3116 751.832 91.2556 751.636 91.1716C751.384 91.0596 751.258 90.9056 751.258 90.7096C751.258 90.5136 751.342 90.3036 751.51 90.0796C751.65 89.8556 751.832 89.6316 752.056 89.4076C752.308 89.1556 752.546 88.9456 752.77 88.7776C753.694 87.9656 754.814 87.4336 756.13 87.1816C757.054 87.0416 757.768 87.2936 758.272 87.9376C758.636 88.3856 758.748 88.8196 758.608 89.2396C758.496 89.6596 758.286 90.1076 757.978 90.5836C757.558 91.2276 757.04 91.9136 756.424 92.6416C755.836 93.3416 755.234 93.9576 754.618 94.4896ZM762.737 86.7616C762.261 86.7056 762.051 86.4676 762.107 86.0476C762.163 85.5436 762.317 84.9556 762.569 84.2836C762.849 83.5836 763.101 83.0376 763.325 82.6456C763.493 82.3936 763.731 82.2816 764.039 82.3096C764.207 82.3376 764.375 82.3656 764.543 82.3936C764.711 82.4216 764.865 82.4776 765.005 82.5616C765.229 82.7016 765.299 82.8416 765.215 82.9816C765.159 83.1216 765.019 83.3876 764.795 83.7796C764.347 84.5356 764.039 85.1096 763.871 85.5016C763.703 85.8936 763.577 86.1876 763.493 86.3836C763.437 86.5516 763.367 86.6496 763.283 86.6776C763.227 86.7056 763.045 86.7336 762.737 86.7616ZM768.785 89.9536C768.841 89.8696 768.925 89.8276 769.037 89.8276C769.177 89.8276 769.317 89.9116 769.457 90.0796C769.625 90.2196 769.667 90.3736 769.583 90.5416C769.331 91.0456 768.925 91.7036 768.365 92.5156C767.833 93.3276 767.203 94.1256 766.475 94.9096C765.775 95.6656 765.033 96.3236 764.249 96.8836C763.465 97.4436 762.737 97.7236 762.065 97.7236C761.589 97.7236 761.169 97.5976 760.805 97.3456C760.469 97.0656 760.245 96.6736 760.133 96.1696C760.049 95.6656 760.007 95.0916 760.007 94.4476C760.007 93.7756 760.049 93.1176 760.133 92.4736C760.217 91.8296 760.329 91.2136 760.469 90.6256C760.609 90.0376 760.763 89.5336 760.931 89.1136C761.127 88.6376 761.253 88.3296 761.309 88.1896C761.393 88.0216 761.575 87.9096 761.855 87.8536C762.387 87.8256 762.821 88.0216 763.157 88.4416C763.213 88.5256 763.227 88.6376 763.199 88.7776C763.171 88.9176 763.143 89.0156 763.115 89.0716C763.003 89.4636 762.863 89.9396 762.695 90.4996C762.555 91.0596 762.415 91.6616 762.275 92.3056C762.163 92.9216 762.065 93.5376 761.981 94.1536C761.925 94.7416 761.925 95.2736 761.981 95.7496C762.065 96.2816 762.205 96.5476 762.401 96.5476C762.625 96.5476 762.919 96.4216 763.283 96.1696C763.675 95.8896 764.081 95.5396 764.501 95.1196C764.921 94.6716 765.355 94.1956 765.803 93.6916C766.251 93.1876 766.671 92.6976 767.063 92.2216C767.483 91.7176 767.833 91.2696 768.113 90.8776C768.421 90.4576 768.645 90.1496 768.785 89.9536ZM770.734 92.7676C770.846 92.7116 771.098 92.3476 771.49 91.6756C771.882 91.0036 772.568 90.0936 773.548 88.9456C773.912 88.5256 774.22 88.2316 774.472 88.0636C774.724 87.8676 775.116 87.8536 775.648 88.0216C776.012 88.1336 776.236 88.3016 776.32 88.5256C776.432 88.7496 776.474 89.0436 776.446 89.4076C776.418 89.7716 776.376 90.2056 776.32 90.7096C776.264 91.2136 776.25 91.8156 776.278 92.5156C776.278 92.6556 776.334 92.8796 776.446 93.1876C776.586 93.4956 776.768 93.6496 776.992 93.6496C777.328 93.6496 777.72 93.5096 778.168 93.2296C778.644 92.9496 779.092 92.6416 779.512 92.3056C779.96 91.9416 780.366 91.5776 780.73 91.2136C781.094 90.8496 781.346 90.5836 781.486 90.4156C781.71 90.1076 782.004 90.0516 782.368 90.2476C782.62 90.3596 782.662 90.5416 782.494 90.7936C781.682 91.9696 780.828 92.9216 779.932 93.6496C779.036 94.3496 778.14 94.7556 777.244 94.8676C776.572 94.9516 775.97 94.7696 775.438 94.3216C774.934 93.8456 774.612 93.2436 774.472 92.5156C774.444 92.2636 774.43 91.9976 774.43 91.7176C774.43 91.4376 774.444 91.1856 774.472 90.9616C774.5 90.7096 774.528 90.4856 774.556 90.2896C774.584 90.0936 774.584 89.9536 774.556 89.8696C774.416 89.8976 774.178 90.1496 773.842 90.6256C773.506 91.1016 773.156 91.6196 772.792 92.1796C772.456 92.7396 772.134 93.2716 771.826 93.7756C771.518 94.2796 771.336 94.5876 771.28 94.6996C771.028 95.0916 770.776 95.3996 770.524 95.6236C770.272 95.8476 769.894 95.9316 769.39 95.8756C768.83 95.7916 768.564 95.4836 768.592 94.9516C768.62 94.4196 768.746 93.6356 768.97 92.5996C769.026 92.2636 769.11 91.8436 769.222 91.3396C769.334 90.8076 769.46 90.2756 769.6 89.7436C769.74 89.1836 769.88 88.6516 770.02 88.1476C770.188 87.6436 770.356 87.2516 770.524 86.9716C770.58 86.8596 770.65 86.7616 770.734 86.6776C770.818 86.5936 770.93 86.5516 771.07 86.5516C771.322 86.5516 771.532 86.5936 771.7 86.6776C771.896 86.7336 771.994 86.9016 771.994 87.1816C771.91 87.5736 771.854 87.8956 771.826 88.1476C771.798 88.3716 771.784 88.5536 771.784 88.6936C771.784 88.8056 771.77 88.8896 771.742 88.9456C771.714 89.0016 771.658 89.0576 771.574 89.1136C771.518 89.1416 771.448 89.3516 771.364 89.7436C771.28 90.1076 771.182 90.5136 771.07 90.9616C770.958 91.4936 770.846 92.0956 770.734 92.7676ZM787.536 91.9696C787.144 92.4736 786.682 93.1036 786.15 93.8596C785.618 94.6156 785.072 95.2456 784.512 95.7496C784.26 95.9736 783.98 96.1416 783.672 96.2536C783.392 96.3656 783.098 96.4216 782.79 96.4216C782.286 96.4216 781.852 96.2676 781.488 95.9596C781.124 95.6236 780.928 95.1756 780.9 94.6156C780.872 94.1956 780.984 93.5936 781.236 92.8096C781.488 91.9976 781.838 91.2136 782.286 90.4576C782.734 89.6736 783.266 89.0016 783.882 88.4416C784.498 87.8536 785.156 87.5596 785.856 87.5596C786.36 87.5596 786.836 87.7136 787.284 88.0216C787.508 88.1616 787.648 88.2316 787.704 88.2316C787.788 88.2316 787.9 88.1196 788.04 87.8956C788.292 87.5316 788.53 87.3496 788.754 87.3496C788.922 87.3496 789.16 87.4616 789.468 87.6856C789.972 88.0496 790.182 88.5536 790.098 89.1976C789.958 90.2896 789.832 91.2276 789.72 92.0116C789.608 92.7956 789.51 93.4256 789.426 93.9016C789.314 94.4616 789.216 94.9236 789.132 95.2876C790.084 94.3916 790.938 93.5796 791.694 92.8516C792.03 92.5436 792.352 92.2356 792.66 91.9276C792.996 91.6196 793.29 91.3396 793.542 91.0876C793.822 90.8356 794.046 90.6256 794.214 90.4576C794.382 90.2616 794.48 90.1496 794.508 90.1216C794.648 89.9816 794.774 89.9116 794.886 89.9116C795.054 89.9116 795.194 89.9956 795.306 90.1636C795.446 90.3036 795.446 90.4716 795.306 90.6676C795.222 90.7796 794.914 91.1436 794.382 91.7596C793.85 92.3476 793.248 93.0196 792.576 93.7756C791.904 94.5316 791.204 95.2876 790.476 96.0436C789.776 96.7996 789.188 97.4016 788.712 97.8496C788.516 98.0456 788.334 98.3676 788.166 98.8156C788.026 99.2636 787.844 99.8376 787.62 100.538C787.424 101.21 787.158 102.008 786.822 102.932C786.486 103.856 786.024 104.892 785.436 106.04C785.212 106.516 784.96 106.978 784.68 107.426C784.4 107.902 784.078 108.336 783.714 108.728C783.35 109.12 782.944 109.428 782.496 109.652C782.02 109.904 781.502 110.03 780.942 110.03C780.074 110.03 779.318 109.75 778.674 109.19C778.002 108.63 777.694 107.958 777.75 107.174C777.806 106.502 778.044 105.83 778.464 105.158C778.856 104.486 779.36 103.828 779.976 103.184C780.564 102.568 781.208 101.966 781.908 101.378C782.58 100.818 783.224 100.286 783.84 99.7816C784.456 99.2776 784.974 98.8296 785.394 98.4376C785.842 98.0456 786.108 97.7096 786.192 97.4296C786.332 97.0096 786.472 96.4916 786.612 95.8756C786.78 95.2596 786.934 94.6716 787.074 94.1116C787.214 93.5236 787.326 93.0336 787.41 92.6416C787.494 92.2216 787.536 91.9976 787.536 91.9696ZM782.832 94.6996C782.888 94.7556 782.972 94.7416 783.084 94.6576C783.196 94.5456 783.28 94.4616 783.336 94.4056C784.036 93.7616 784.666 93.0336 785.226 92.2216C785.814 91.4096 786.374 90.5976 786.906 89.7856C787.102 89.4496 787.06 89.1836 786.78 88.9876C786.556 88.7916 786.248 88.8196 785.856 89.0716C785.492 89.3236 785.212 89.5756 785.016 89.8276C784.54 90.3876 784.106 91.0876 783.714 91.9276C783.322 92.7396 783.028 93.5096 782.832 94.2376C782.776 94.4336 782.776 94.5876 782.832 94.6996ZM784.722 101.63C784.638 101.686 784.4 101.868 784.008 102.176C783.644 102.484 783.224 102.848 782.748 103.268C782.272 103.716 781.81 104.178 781.362 104.654C780.914 105.13 780.592 105.55 780.396 105.914C780.256 106.166 780.144 106.432 780.06 106.712C779.948 106.992 779.892 107.286 779.892 107.594C779.892 107.762 779.906 107.916 779.934 108.056C779.962 108.224 780.046 108.35 780.186 108.434C780.326 108.518 780.466 108.518 780.606 108.434C780.718 108.378 780.844 108.308 780.984 108.224C781.46 107.916 781.922 107.412 782.37 106.712C782.818 106.04 783.21 105.34 783.546 104.612C783.882 103.884 784.162 103.226 784.386 102.638C784.61 102.05 784.722 101.714 784.722 101.63Z" fill="#8F3932"/>
<path d="M765.77 55.2305H772.231V62.7689H765.77V55.2305Z" fill="#915431"/>
<path d="M753.066 65.3782C752.92 65.7851 752.846 66.2116 752.846 66.6459V67.1843H756.077V62.5741C756.058 62.5343 756.043 62.4914 756.034 62.4463C755.832 61.4477 754.944 60.7228 753.923 60.7228C752.736 60.7228 751.77 61.689 751.77 62.8766C751.77 63.6354 752.177 64.3468 752.832 64.7332C753.054 64.8644 753.152 65.135 753.066 65.3782Z" fill="#A77554"/>
<path d="M780.843 62.3383V58.9998C780.843 56.8158 779.077 55.2306 776.643 55.2306H773.305V62.7691H780.843V62.3383Z" fill="#915431"/>
<path d="M757.152 63.8458H780.845V67.1843H757.152V63.8458Z" fill="#EAB883"/>
<path d="M761.352 55.2306C758.919 55.2306 757.152 56.8158 757.152 58.9998V62.3383V62.7691H764.691V55.2306H761.352Z" fill="#915431"/>
<path d="M771.406 35.8525C771.501 35.848 771.596 35.8454 771.691 35.8454C774.957 35.8454 777.614 38.5025 777.614 41.7685C777.614 41.8633 777.611 41.958 777.607 42.0527C777.605 42.0849 777.602 42.1169 777.6 42.149C777.597 42.2016 777.594 42.2544 777.589 42.3069H780.45C781.261 42.3069 781.922 41.6467 781.922 40.8351V33.0096C781.922 32.198 781.261 31.5377 780.45 31.5377H772.624C771.813 31.5377 771.152 32.198 771.152 33.0096V35.8699C771.206 35.865 771.259 35.8624 771.313 35.859C771.344 35.8568 771.375 35.854 771.406 35.8525ZM778.152 34.23C778.747 34.23 779.229 34.7122 779.229 35.3069C779.229 35.9017 778.747 36.3839 778.152 36.3839C777.558 36.3839 777.075 35.9017 777.075 35.3069C777.075 34.7122 777.558 34.23 778.152 34.23Z" fill="#EC6F64"/>
<path d="M772.624 42.3076H776.506C776.507 42.2997 776.509 42.292 776.509 42.2841C776.515 42.2263 776.52 42.1682 776.524 42.1102C776.526 42.0824 776.528 42.0547 776.53 42.0269C776.534 41.9411 776.537 41.8551 776.537 41.7691C776.537 39.097 774.363 36.923 771.691 36.923C771.605 36.923 771.519 36.9256 771.433 36.9301C771.404 36.9316 771.375 36.9346 771.347 36.9367C771.29 36.9406 771.233 36.9447 771.176 36.9508C771.168 36.9516 771.16 36.9529 771.152 36.9538V40.8359C771.152 41.6473 771.813 42.3076 772.624 42.3076Z" fill="#EC6F64"/>
<path d="M758.34 42.3075C761.368 42.3075 763.832 39.8437 763.832 36.8152C763.832 33.7867 761.368 31.3229 758.34 31.3229C755.311 31.3229 752.848 33.7867 752.848 36.8152C752.848 39.8437 755.311 42.3075 758.34 42.3075ZM755.422 35.7769C755.571 35.5194 755.9 35.4311 756.158 35.5798L758.35 36.8452L759.899 36.0144C760.161 35.8736 760.487 35.9723 760.628 36.2344C760.769 36.4965 760.67 36.8228 760.408 36.9635L758.595 37.936C758.515 37.9785 758.427 37.9998 758.34 37.9998C758.247 37.9998 758.154 37.9757 758.071 37.9276L755.619 36.5125C755.362 36.3638 755.274 36.0344 755.422 35.7769Z" fill="#4A78FF"/>
<path d="M785.155 71.4921V68.2614H781.386H756.617H752.848V71.4921H757.694H780.309H785.155Z" fill="#A77554"/>
<path d="M753.598 74.3997H755.268L757.798 71.5997H753.598V74.3997Z" fill="#915431"/>
<path d="M784.402 74.3997H782.732L780.202 71.5997H784.402V74.3997Z" fill="#915431"/>
<path d="M781.922 67.1848H785.153V66.6463C785.153 66.2123 785.079 65.7858 784.934 65.3786C784.847 65.1354 784.945 64.8648 785.167 64.7338C785.822 64.3473 786.23 63.6359 786.23 62.8771C786.23 61.6895 785.263 60.7233 784.076 60.7233C783.055 60.7233 782.167 61.4481 781.965 62.4469C781.956 62.492 781.941 62.5348 781.922 62.5747V67.1848Z" fill="#A77554"/>
<path d="M764.151 47.1535C764.746 47.1535 765.228 46.6713 765.228 46.0766C765.228 45.4818 764.746 44.9996 764.151 44.9996C763.556 44.9996 763.074 45.4818 763.074 46.0766C763.074 46.6713 763.556 47.1535 764.151 47.1535Z" fill="#FFC97E"/>
<path d="M773.846 50.3846C774.441 50.3846 774.923 49.9024 774.923 49.3076C774.923 48.7129 774.441 48.2307 773.846 48.2307C773.252 48.2307 772.77 48.7129 772.77 49.3076C772.77 49.9024 773.252 50.3846 773.846 50.3846Z" fill="#FFC97E"/>
<path d="M797.538 33.1535C798.133 33.1535 798.615 32.6713 798.615 32.0766C798.615 31.4818 798.133 30.9996 797.538 30.9996C796.943 30.9996 796.461 31.4818 796.461 32.0766C796.461 32.6713 796.943 33.1535 797.538 33.1535Z" fill="#FFC97E"/>
<path d="M789.999 35.3073C790.594 35.3073 791.076 34.8251 791.076 34.2304C791.076 33.6356 790.594 33.1534 789.999 33.1534C789.404 33.1534 788.922 33.6356 788.922 34.2304C788.922 34.8251 789.404 35.3073 789.999 35.3073Z" fill="#FFC97E"/>
<path d="M766.303 30.9997C766.898 30.9997 767.38 30.5175 767.38 29.9227C767.38 29.328 766.898 28.8458 766.303 28.8458C765.709 28.8458 765.227 29.328 765.227 29.9227C765.227 30.5175 765.709 30.9997 766.303 30.9997Z" fill="#FFC97E"/>
<path d="M755.538 51.4616C756.133 51.4616 756.615 50.9794 756.615 50.3847C756.615 49.7899 756.133 49.3077 755.538 49.3077C754.943 49.3077 754.461 49.7899 754.461 50.3847C754.461 50.9794 754.943 51.4616 755.538 51.4616Z" fill="#FFC97E"/>
<path d="M794.201 75.7993C793.428 75.7993 792.801 75.3582 792.801 74.8142V50.1845C792.801 49.6404 793.428 49.1993 794.201 49.1993C794.974 49.1993 795.601 49.6404 795.601 50.1845V74.8142C795.601 75.3582 794.974 75.7993 794.201 75.7993Z" fill="#0C3140"/>
<path d="M798.343 76.587H751.895C751.29 76.587 750.801 76.0973 750.801 75.4933C750.801 74.8893 751.29 74.3995 751.895 74.3995H798.343C798.947 74.3995 799.437 74.8893 799.437 75.4933C799.437 76.0973 798.947 76.587 798.343 76.587Z" fill="#0C3140"/>
<path d="M790.48 55.3243C789.877 55.3243 789.387 54.8346 789.387 54.2306V50.9493C789.387 50.3453 789.877 49.8556 790.48 49.8556C791.084 49.8556 791.574 50.3453 791.574 50.9493V54.2306C791.574 54.8346 791.085 55.3243 790.48 55.3243Z" fill="#0C3140"/>
<path d="M797.043 42.1993L799.23 50.9493H793.762H790.48H787.199L789.387 42.1993H797.043Z" fill="#FFD432"/>
<g opacity="0.2">
<g clip-path="url(#clip1_12959_37968)">
<path d="M1244.73 15.9465C1245.87 16.9335 1247.6 16.8072 1248.58 15.6642C1249.57 14.5213 1249.44 12.7946 1248.3 11.8075C1247.16 10.8204 1245.43 10.9468 1244.44 12.0898C1243.46 13.2327 1243.58 14.9594 1244.73 15.9465Z" fill="#950F02"/>
<path d="M1231.97 4.92964C1233.11 5.9167 1234.84 5.79033 1235.83 4.64738C1236.82 3.50443 1236.69 1.77771 1235.55 0.790651C1234.4 -0.196411 1232.68 -0.0700379 1231.69 1.07291C1230.7 2.21586 1230.83 3.94258 1231.97 4.92964Z" fill="#950F02"/>
</g>
<g clip-path="url(#clip2_12959_37968)">
<path d="M1248.6 88.8254C1249.74 89.8125 1251.47 89.6861 1252.46 88.5431C1253.44 87.4002 1253.32 85.6735 1252.17 84.6864C1251.03 83.6993 1249.31 83.8257 1248.32 84.9687C1247.33 86.1116 1247.46 87.8383 1248.6 88.8254Z" fill="#950F02"/>
<path d="M1235.84 77.8071C1236.98 78.7941 1238.71 78.6678 1239.7 77.5248C1240.68 76.3819 1240.56 74.6552 1239.41 73.6681C1238.27 72.681 1236.54 72.8074 1235.56 73.9504C1234.57 75.0933 1234.7 76.82 1235.84 77.8071Z" fill="#950F02"/>
<path d="M1223.08 66.7912C1224.23 67.7783 1225.95 67.6519 1226.94 66.5089C1227.93 65.366 1227.8 63.6393 1226.66 62.6522C1225.52 61.6652 1223.79 61.7915 1222.8 62.9345C1221.82 64.0774 1221.94 65.8042 1223.08 66.7912Z" fill="#950F02"/>
<path d="M1210.33 55.7736C1211.47 56.7607 1213.2 56.6343 1214.18 55.4914C1215.17 54.3484 1215.04 52.6217 1213.9 51.6346C1212.76 50.6476 1211.03 50.774 1210.04 51.9169C1209.06 53.0599 1209.18 54.7866 1210.33 55.7736Z" fill="#950F02"/>
<path d="M1197.57 44.7568C1198.72 45.7438 1200.44 45.6175 1201.43 44.4745C1202.42 43.3316 1202.29 41.6049 1201.15 40.6178C1200 39.6307 1198.28 39.7571 1197.29 40.9001C1196.3 42.043 1196.43 43.7697 1197.57 44.7568Z" fill="#950F02"/>
</g>
<g clip-path="url(#clip3_12959_37968)">
<path d="M1239.64 47.6152C1240.79 48.6022 1242.51 48.4759 1243.5 47.3329C1244.49 46.19 1244.36 44.4633 1243.22 43.4762C1242.07 42.4891 1240.35 42.6155 1239.36 43.7585C1238.37 44.9014 1238.5 46.6281 1239.64 47.6152Z" fill="#950F02"/>
<path d="M1226.89 36.5976C1228.03 37.5847 1229.76 37.4583 1230.74 36.3153C1231.73 35.1724 1231.6 33.4457 1230.46 32.4586C1229.32 31.4716 1227.59 31.5979 1226.6 32.7409C1225.62 33.8838 1225.74 35.6105 1226.89 36.5976Z" fill="#950F02"/>
<path d="M1214.13 25.5808C1215.27 26.5678 1217 26.4415 1217.99 25.2985C1218.98 24.1556 1218.85 22.4288 1217.71 21.4418C1216.56 20.4547 1214.84 20.5811 1213.85 21.724C1212.86 22.867 1212.99 24.5937 1214.13 25.5808Z" fill="#950F02"/>
</g>
<g clip-path="url(#clip4_12959_37968)">
<path d="M1243.53 120.492C1244.67 121.479 1246.4 121.353 1247.38 120.21C1248.37 119.067 1248.24 117.34 1247.1 116.353C1245.96 115.366 1244.23 115.492 1243.24 116.635C1242.26 117.778 1242.38 119.505 1243.53 120.492Z" fill="#950F02"/>
<path d="M1230.77 109.476C1231.92 110.463 1233.64 110.336 1234.63 109.193C1235.62 108.05 1235.49 106.324 1234.35 105.337C1233.2 104.349 1231.48 104.476 1230.49 105.619C1229.5 106.762 1229.63 108.488 1230.77 109.476Z" fill="#950F02"/>
<path d="M1218.01 98.4572C1219.15 99.4443 1220.88 99.3179 1221.87 98.175C1222.85 97.032 1222.73 95.3053 1221.59 94.3182C1220.44 93.3312 1218.72 93.4576 1217.73 94.6005C1216.74 95.7435 1216.87 97.4702 1218.01 98.4572Z" fill="#950F02"/>
<path d="M1205.26 87.4414C1206.4 88.4284 1208.13 88.302 1209.11 87.1591C1210.1 86.0161 1209.97 84.2894 1208.83 83.3024C1207.69 82.3153 1205.96 82.4417 1204.97 83.5846C1203.99 84.7276 1204.11 86.4543 1205.26 87.4414Z" fill="#950F02"/>
<path d="M1192.5 76.4238C1193.64 77.4108 1195.37 77.2845 1196.36 76.1415C1197.34 74.9986 1197.22 73.2719 1196.07 72.2848C1194.93 71.2977 1193.2 71.4241 1192.22 72.5671C1191.23 73.71 1191.36 75.4367 1192.5 76.4238Z" fill="#950F02"/>
<path d="M1179.75 65.4069C1180.89 66.394 1182.61 66.2676 1183.6 65.1247C1184.59 63.9817 1184.46 62.255 1183.32 61.2679C1182.18 60.2809 1180.45 60.4073 1179.46 61.5502C1178.48 62.6932 1178.6 64.4199 1179.75 65.4069Z" fill="#950F02"/>
</g>
<g clip-path="url(#clip5_12959_37968)">
<path d="M1248.81 37.0014C1249.95 37.9885 1251.68 37.8621 1252.67 36.7192C1253.66 35.5762 1253.53 33.8495 1252.39 32.8624C1251.24 31.8754 1249.52 32.0017 1248.53 33.1447C1247.54 34.2876 1247.67 36.0144 1248.81 37.0014Z" fill="#950F02"/>
<path d="M1236.05 25.9838C1237.2 26.9709 1238.92 26.8445 1239.91 25.7016C1240.9 24.5586 1240.77 22.8319 1239.63 21.8448C1238.49 20.8578 1236.76 20.9842 1235.77 22.1271C1234.78 23.2701 1234.91 24.9968 1236.05 25.9838Z" fill="#950F02"/>
<path d="M1223.3 14.967C1224.44 15.9541 1226.17 15.8277 1227.16 14.6847C1228.14 13.5418 1228.02 11.8151 1226.87 10.828C1225.73 9.84094 1224 9.96732 1223.02 11.1103C1222.03 12.2532 1222.16 13.9799 1223.3 14.967Z" fill="#950F02"/>
</g>
<g clip-path="url(#clip6_12959_37968)">
<path d="M1239.93 98.8627C1241.07 99.8498 1242.8 99.7234 1243.79 98.5805C1244.77 97.4375 1244.65 95.7108 1243.5 94.7238C1242.36 93.7367 1240.63 93.8631 1239.65 95.006C1238.66 96.149 1238.79 97.8757 1239.93 98.8627Z" fill="#950F02"/>
<path d="M1227.17 87.8444C1228.31 88.8315 1230.04 88.7051 1231.02 87.5622C1232.01 86.4192 1231.88 84.6925 1230.74 83.7054C1229.6 82.7184 1227.87 82.8448 1226.88 83.9877C1225.9 85.1307 1226.02 86.8574 1227.17 87.8444Z" fill="#950F02"/>
<path d="M1214.41 76.8286C1215.56 77.8156 1217.28 77.6893 1218.27 76.5463C1219.26 75.4034 1219.13 73.6766 1217.99 72.6896C1216.84 71.7025 1215.12 71.8289 1214.13 72.9718C1213.14 74.1148 1213.27 75.8415 1214.41 76.8286Z" fill="#950F02"/>
<path d="M1201.66 65.811C1202.8 66.798 1204.52 66.6717 1205.51 65.5287C1206.5 64.3858 1206.37 62.6591 1205.23 61.672C1204.09 60.6849 1202.36 60.8113 1201.37 61.9543C1200.39 63.0972 1200.51 64.8239 1201.66 65.811Z" fill="#950F02"/>
<path d="M1188.9 54.7941C1190.04 55.7812 1191.77 55.6548 1192.76 54.5119C1193.75 53.3689 1193.62 51.6422 1192.48 50.6552C1191.33 49.6681 1189.61 49.7945 1188.62 50.9374C1187.63 52.0804 1187.76 53.8071 1188.9 54.7941Z" fill="#950F02"/>
</g>
<g clip-path="url(#clip7_12959_37968)">
<path d="M1243.73 68.6682C1244.87 69.6552 1246.6 69.5289 1247.59 68.3859C1248.57 67.243 1248.45 65.5162 1247.3 64.5292C1246.16 63.5421 1244.43 63.6685 1243.45 64.8114C1242.46 65.9544 1242.59 67.6811 1243.73 68.6682Z" fill="#950F02"/>
<path d="M1230.98 57.6523C1232.12 58.6394 1233.85 58.513 1234.83 57.37C1235.82 56.2271 1235.69 54.5004 1234.55 53.5133C1233.41 52.5262 1231.68 52.6526 1230.69 53.7956C1229.71 54.9385 1229.83 56.6652 1230.98 57.6523Z" fill="#950F02"/>
<path d="M1218.22 46.6347C1219.36 47.6218 1221.09 47.4954 1222.07 46.3525C1223.06 45.2095 1222.94 43.4828 1221.79 42.4957C1220.65 41.5087 1218.92 41.635 1217.94 42.778C1216.95 43.9209 1217.07 45.6477 1218.22 46.6347Z" fill="#950F02"/>
<path d="M1205.46 35.6179C1206.61 36.6049 1208.33 36.4786 1209.32 35.3356C1210.31 34.1927 1210.18 32.4659 1209.04 31.4789C1207.9 30.4918 1206.17 30.6182 1205.18 31.7611C1204.19 32.9041 1204.32 34.6308 1205.46 35.6179Z" fill="#950F02"/>
</g>
<g clip-path="url(#clip8_12959_37968)">
<path d="M1234.85 130.529C1236 131.517 1237.72 131.39 1238.71 130.247C1239.7 129.104 1239.57 127.378 1238.43 126.391C1237.29 125.403 1235.56 125.53 1234.57 126.673C1233.59 127.816 1233.71 129.542 1234.85 130.529Z" fill="#950F02"/>
<path d="M1222.1 119.513C1223.24 120.5 1224.97 120.374 1225.96 119.231C1226.94 118.088 1226.82 116.361 1225.67 115.374C1224.53 114.387 1222.81 114.513 1221.82 115.656C1220.83 116.799 1220.96 118.526 1222.1 119.513Z" fill="#950F02"/>
<path d="M1209.34 108.495C1210.48 109.482 1212.21 109.356 1213.2 108.213C1214.18 107.07 1214.06 105.343 1212.91 104.356C1211.77 103.369 1210.04 103.495 1209.06 104.638C1208.07 105.781 1208.2 107.508 1209.34 108.495Z" fill="#950F02"/>
<path d="M1196.58 97.479C1197.73 98.466 1199.45 98.3396 1200.44 97.1967C1201.43 96.0537 1201.3 94.327 1200.16 93.34C1199.02 92.3529 1197.29 92.4793 1196.3 93.6222C1195.32 94.7652 1195.44 96.4919 1196.58 97.479Z" fill="#950F02"/>
<path d="M1183.83 86.4614C1184.97 87.4484 1186.7 87.3221 1187.68 86.1791C1188.67 85.0362 1188.54 83.3094 1187.4 82.3224C1186.26 81.3353 1184.53 81.4617 1183.54 82.6047C1182.56 83.7476 1182.68 85.4743 1183.83 86.4614Z" fill="#950F02"/>
<path d="M1171.07 75.4445C1172.22 76.4316 1173.94 76.3052 1174.93 75.1623C1175.92 74.0193 1175.79 72.2926 1174.65 71.3055C1173.5 70.3185 1171.78 70.4449 1170.79 71.5878C1169.8 72.7308 1169.93 74.4575 1171.07 75.4445Z" fill="#950F02"/>
</g>
</g>
<g opacity="0.2">
<path d="M10.5004 118.918C38.3457 118.918 60.9188 96.3448 60.9188 68.4995C60.9188 40.6541 38.3457 18.0811 10.5004 18.0811C-17.3449 18.0811 -39.918 40.6541 -39.918 68.4995C-39.918 96.3448 -17.3449 118.918 10.5004 118.918Z" stroke="#EC6F64" stroke-miterlimit="10"/>
<path d="M10.5071 109.889C33.3661 109.889 51.897 91.3583 51.897 68.4993C51.897 45.6403 33.3661 27.1094 10.5071 27.1094C-12.3519 27.1094 -30.8828 45.6403 -30.8828 68.4993C-30.8828 91.3583 -12.3519 109.889 10.5071 109.889Z" stroke="#EC6F64" stroke-miterlimit="10"/>
<path d="M10.5062 101.576C28.7739 101.576 43.5827 86.7668 43.5827 68.4991C43.5827 50.2315 28.7739 35.4226 10.5062 35.4226C-7.76145 35.4226 -22.5703 50.2315 -22.5703 68.4991C-22.5703 86.7668 -7.76145 101.576 10.5062 101.576Z" stroke="#EC6F64" stroke-miterlimit="10"/>
<path d="M10.4995 93.2689C24.179 93.2689 35.2684 82.1795 35.2684 68.4999C35.2684 54.8204 24.179 43.731 10.4995 43.731C-3.18008 43.731 -14.2695 54.8204 -14.2695 68.4999C-14.2695 82.1795 -3.18008 93.2689 10.4995 93.2689Z" stroke="#EC6F64" stroke-miterlimit="10"/>
<path d="M10.5015 86.3678C20.3701 86.3678 28.3702 78.3677 28.3702 68.4991C28.3702 58.6305 20.3701 50.6304 10.5015 50.6304C0.632909 50.6304 -7.36719 58.6305 -7.36719 68.4991C-7.36719 78.3677 0.632909 86.3678 10.5015 86.3678Z" stroke="#EC6F64" stroke-miterlimit="10"/>
</g>
</g>
<defs>
<clipPath id="clip0_12959_37968">
<rect width="1250" height="134" fill="white"/>
</clipPath>
<clipPath id="clip1_12959_37968">
<rect width="89.7464" height="5.46882" fill="white" transform="translate(1233.48 -0.996582) rotate(40.8142)"/>
</clipPath>
<clipPath id="clip2_12959_37968">
<rect width="89.7464" height="5.46882" fill="white" transform="translate(1199.08 38.8306) rotate(40.8142)"/>
</clipPath>
<clipPath id="clip3_12959_37968">
<rect width="89.7464" height="5.46882" fill="white" transform="translate(1215.64 19.6545) rotate(40.8142)"/>
</clipPath>
<clipPath id="clip4_12959_37968">
<rect width="89.7464" height="5.46882" fill="white" transform="translate(1181.25 59.4807) rotate(40.8142)"/>
</clipPath>
<clipPath id="clip5_12959_37968">
<rect width="89.7464" height="5.46882" fill="white" transform="translate(1224.8 9.04126) rotate(40.8142)"/>
</clipPath>
<clipPath id="clip6_12959_37968">
<rect width="89.7464" height="5.46882" fill="white" transform="translate(1190.41 48.8679) rotate(40.8142)"/>
</clipPath>
<clipPath id="clip7_12959_37968">
<rect width="89.7464" height="5.46882" fill="white" transform="translate(1206.97 29.6917) rotate(40.8142)"/>
</clipPath>
<clipPath id="clip8_12959_37968">
<rect width="89.7464" height="5.46882" fill="white" transform="translate(1172.58 69.5183) rotate(40.8142)"/>
</clipPath>
</defs>
</svg>
