<svg width="1250" height="134" viewBox="0 0 1250 134" fill="none" xmlns="http://www.w3.org/2000/svg">
<g clip-path="url(#clip0_15462_3475)">
<g clip-path="url(#clip1_15462_3475)">
<g clip-path="url(#clip2_15462_3475)">
<path d="M321.941 10.2691L317.5 13.7792L320.066 18.8319L315.044 22.8338L313.884 21.3583L317.723 18.3177L315.156 13.2649L319.575 9.75486L317.009 4.70212L321.45 1.16969L319.218 -3.21234L320.87 -4.03955L323.794 1.6839L319.352 5.21634L321.941 10.2691Z" fill="#E7F2CC"/>
<path d="M417.826 24.9352L425.795 26.9249L429.344 19.48L438.405 21.7604L437.736 24.3762L430.839 22.6547L427.29 30.0997L419.3 28.0875L415.773 35.5548L407.783 33.5427L404.702 40.0039L402.27 38.8414L406.287 30.3903L414.278 32.3801L417.826 24.9352Z" fill="#E7F2CC"/>
<path d="M201.705 66.6092L208.066 68.7332L211.414 62.8979L218.645 65.2902L217.953 67.3917L212.44 65.5585L209.092 71.4161L202.709 69.2697L199.383 75.1274L193 73.0034L190.098 78.0562L188.179 76.9606L191.973 70.3205L198.357 72.4445L201.705 66.6092Z" fill="#E7F2CC"/>
<path d="M128.317 12.281L134.879 16.3053L140.101 10.6489L147.556 15.2098L146.239 17.3785L140.548 13.8907L135.325 19.5471L128.763 15.5228L123.518 21.2015L116.956 17.1772L112.425 22.0735L110.572 20.352L116.509 13.9354L123.071 17.9597L128.317 12.281Z" fill="#E7F2CC"/>
<path d="M262.66 -9.85282L259.758 -6.63339L262.347 -3.14564L259.066 0.49858L258.017 -0.44042L260.517 -3.23508L257.928 -6.72282L260.829 -9.94225L258.597 -12.9605L259.736 -13.8101L262.66 -9.85282Z" fill="#E7F2CC"/>
<path d="M22.8551 79.5318L32.4079 79.3306L34.1042 69.8958L44.9517 69.6499L45.0186 72.8023L36.738 72.9811L35.064 82.4159L25.4888 82.6395L24.038 90.7999L20.9355 90.2409L22.8551 79.5318Z" fill="#E7F2CC"/>
<path d="M614.22 6.22234L612.657 10.0231L616.072 12.2811L614.309 16.5961L613.059 16.0819L614.421 12.7954L611.006 10.5149L612.546 6.73656L609.6 4.74677L610.336 3.62891L614.22 6.22234Z" fill="#E7F2CC"/>
<path d="M144.543 91.7163L149.498 80.0234L152.868 81.4767L149.096 90.3749L157.087 95.8524L155.011 98.893L144.543 91.7163Z" fill="#E7F2CC"/>
<path d="M21.0248 129.612L16.0475 141.461L26.6494 148.705L20.9802 162.141L17.0965 160.487L21.4266 150.247L10.8023 143.004L15.802 131.177L5.20003 123.911L10.1774 112.084L1.00391 105.801L3.36981 102.313L15.4002 110.519L10.4229 122.368L21.0248 129.612Z" fill="#E7F2CC"/>
<path d="M582.325 152.506L574.424 156.619L576.879 165.227L567.906 169.877L566.545 167.284L573.397 163.729L570.942 155.122L578.843 151.008L576.388 142.423L584.312 138.309L582.169 130.864L584.981 130.059L587.793 139.807L579.87 143.921L582.325 152.506Z" fill="#E7F2CC"/>
<path d="M248.576 62.8534L249.514 49.685L236.836 46.1749L237.907 31.2402L242.215 31.5532L241.389 42.9331L254.089 46.4655L253.152 59.6116L265.852 63.144L264.914 76.3124L275.896 79.353L274.735 83.5338L260.339 79.5319L261.276 66.3858L248.576 62.8534Z" fill="#E7F2CC"/>
<path d="M530.141 114.655L522.842 103.834L510.812 108.887L502.531 96.6125L506.058 94.2202L512.397 103.566L524.427 98.5352L531.726 109.334L542.127 104.974L543.778 108.931L530.141 114.655Z" fill="#E7F2CC"/>
<path d="M197.687 134.285L196.705 130.663L192.955 130.931L191.839 126.817L193.022 126.504L193.87 129.634L197.62 129.366L198.624 132.988L201.86 132.742L201.927 133.972L197.687 134.285Z" fill="#E7F2CC"/>
<path d="M534.694 20.2847L524.605 17.2665L525.476 14.3377L533.176 16.6405L536.948 9.55322L539.649 10.9841L534.694 20.2847Z" fill="#E7F2CC"/>
<path d="M313.594 63.0322L317.879 64.3513L317.5 65.6033L314.241 64.5972L312.59 67.6155L311.451 66.9895L313.594 63.0322Z" fill="#E7F2CC"/>
<path d="M366.157 123.687L361.447 133.726L370.353 140.343L365.018 151.746L361.715 150.181L365.799 141.484L356.894 134.888L361.581 124.85L352.675 118.232L357.385 108.194L349.685 102.47L351.85 99.5415L361.938 107.031L357.251 117.07L366.157 123.687Z" fill="#E7F2CC"/>
<path d="M569.67 60.6843L572.705 69.6496L582.08 68.4423L585.517 78.5925L582.571 79.5986L579.959 71.8406L570.585 73.0479L567.55 64.105L558.198 65.2899L555.162 56.347L547.06 57.3755L546.658 54.3125L557.282 52.9487L560.318 61.8916L569.67 60.6843Z" fill="#E7F2CC"/>
<path d="M486.684 62.2941L481.573 62.9871L481.238 68.1516L475.413 68.9342L475.189 67.2574L479.631 66.6537L479.966 61.4668L485.077 60.7738L485.412 55.6092L490.546 54.9162L490.836 50.4224L492.532 50.5342L492.153 56.4141L487.019 57.1072L486.684 62.2941Z" fill="#E7F2CC"/>
<path d="M376.87 62.6517L365.599 66.7654L367.429 78.6595L354.64 83.3322L353.278 79.6432L363.032 76.0661L361.224 64.172L372.473 60.0583L370.665 48.1642L381.937 44.0281L380.375 33.7438L384.258 33.1401L386.334 46.6216L375.062 50.7576L376.87 62.6517Z" fill="#E7F2CC"/>
<path d="M59.4153 35.6221L68.4995 32.6709L67.4058 23.1691L77.6953 19.8379L78.6773 22.8114L70.8207 25.3601L71.8921 34.8843L62.8079 37.8131L63.9016 47.3149L54.8174 50.2661L55.7548 58.4936L52.6524 58.8513L51.4248 48.0751L60.4867 45.1239L59.4153 35.6221Z" fill="#E7F2CC"/>
<path d="M99.9928 111.234L102.18 108.059L99.4795 105.287L101.957 101.688L103.006 102.403L101.109 105.153L103.81 107.925L101.622 111.1L103.943 113.515L103.028 114.386L99.9928 111.234Z" fill="#E7F2CC"/>
<path d="M204.918 -5.35901L201.525 -4.37528L201.838 -0.842835L197.999 0.297372L197.664 -0.82049L200.588 -1.67006L200.275 -5.20251L203.668 -6.20858L203.4 -9.27152L204.561 -9.3833L204.918 -5.35901Z" fill="#E7F2CC"/>
<path d="M306.072 120.311L302.076 120.96L301.898 125.006L297.367 125.744L297.166 124.425L300.626 123.866L300.782 119.82L304.777 119.171L304.911 115.661L306.25 115.728L306.072 120.311Z" fill="#E7F2CC"/>
<path d="M422.85 91.0905L431.621 83.4443L433.831 85.9707L427.135 91.8059L431.532 99.5415L428.608 101.196L422.85 91.0905Z" fill="#E7F2CC"/>
<path d="M607.322 94.2651L610.358 89.4136L611.764 90.3079L609.443 93.9968L612.59 96.9927L611.451 98.2L607.322 94.2651Z" fill="#E7F2CC"/>
</g>
<g clip-path="url(#clip3_15462_3475)">
<path d="M1128.49 -0.671501L1126.99 5.05195L1132.31 7.6454L1130.61 14.1513L1128.74 13.6595L1130.03 8.69619L1124.72 6.10274L1126.21 0.379292L1120.9 -2.23654L1122.4 -7.95998L1117.8 -10.2181L1118.65 -11.9619L1124.67 -9.01078L1123.18 -3.28729L1128.49 -0.671501Z" fill="#E7F2CC"/>
<path d="M734.457 108.409L737.403 110.533L740.059 108.052L743.43 110.466L742.738 111.428L740.171 109.594L737.492 112.076L734.546 109.952L731.868 112.456L728.922 110.332L726.6 112.478L725.797 111.607L728.81 108.767L731.779 110.891L734.457 108.409Z" fill="#E7F2CC"/>
<path d="M1117.64 64.6566L1112.78 67.8536L1114.94 73.2864L1109.43 76.9083L1108.38 75.2986L1112.6 72.5263L1110.41 67.1158L1115.28 63.9188L1113.11 58.4859L1117.98 55.2889L1116.1 50.5938L1117.89 49.8784L1120.34 56.0267L1115.48 59.2237L1117.64 64.6566Z" fill="#E7F2CC"/>
<path d="M731.421 36.0168L722.269 35.8156L720.283 44.7585L709.904 44.5349L709.971 41.539L717.872 41.6955L719.881 32.775L729.01 32.9538L730.751 25.2183L733.675 25.889L731.421 36.0168Z" fill="#E7F2CC"/>
<path d="M888.932 14.7998L892.972 20.9257L899.779 18.1757L904.355 25.1288L902.346 26.4479L898.864 21.1493L892.056 23.8992L887.994 17.7733L882.124 20.1655L881.209 17.9298L888.932 14.7998Z" fill="#E7F2CC"/>
<path d="M790.389 29.7793L798.804 38.0067L808.535 31.389L818.066 40.7343L815.365 43.5066L808.089 36.3747L798.357 42.9924L789.965 34.765L781.528 40.5108L779.363 37.3137L790.389 29.7793Z" fill="#E7F2CC"/>
<path d="M644.395 10.194L643.815 4.49286L638.101 3.93393L637.432 -2.54969L639.307 -2.72852L639.82 2.21241L645.534 2.749L646.114 8.47245L651.047 8.94193L650.868 10.82L644.395 10.194Z" fill="#E7F2CC"/>
<path d="M1058.92 90.0318L1063.32 79.9263L1066.24 81.2006L1062.89 88.9139L1069.79 93.7207L1067.96 96.3365L1058.92 90.0318Z" fill="#E7F2CC"/>
<path d="M948.057 16.4094L947.298 20.5454L946.115 20.3219L946.695 17.1695L943.727 15.9846L944.173 14.8667L948.057 16.4094Z" fill="#E7F2CC"/>
<path d="M1009.88 76.1481L998.745 77.4671L998.365 74.2254L1006.87 73.2417L1007.56 64.7012L1010.8 64.9471L1009.88 76.1481Z" fill="#E7F2CC"/>
<path d="M659.997 46.8826L673.255 44.3115L674.014 48.157L663.903 50.102L663.814 60.4311L659.908 60.4087L659.997 46.8826Z" fill="#E7F2CC"/>
<path d="M1182.55 89.2049L1175.32 85.2924L1170.05 91.6419L1161.84 87.2151L1163.11 84.8229L1169.38 88.1988L1174.65 81.8494L1181.88 85.7619L1187.15 79.4125L1194.4 83.3026L1198.95 77.8027L1201.03 79.5242L1195.07 86.7456L1187.82 82.8331L1182.55 89.2049Z" fill="#E7F2CC"/>
<path d="M939.419 78.9205L942.186 66.8252L930.893 61.7054L934.04 47.978L937.99 48.8947L935.602 59.3579L946.896 64.4777L944.128 76.5729L955.422 81.6704L952.654 93.788L962.43 98.2147L960.756 101.926L947.945 96.1355L950.713 84.0179L939.419 78.9205Z" fill="#E7F2CC"/>
<path d="M758.495 83.8164L769.521 86.3427L774.164 76.0137L786.663 78.8531L785.837 82.4749L776.306 80.3063L771.664 90.6353L760.638 88.1313L756.62 97.0742L753.25 95.5539L758.495 83.8164Z" fill="#E7F2CC"/>
<path d="M844.805 93.9892L847.283 90.2555L844.113 87.0584L846.948 82.8105L848.175 83.6154L846.01 86.8572L849.202 90.0543L846.702 93.8103L849.448 96.5602L848.399 97.611L844.805 93.9892Z" fill="#E7F2CC"/>
<path d="M1186.14 9.32214L1190.52 7.39941L1191.08 8.65141L1187.75 10.127L1188.53 13.7041L1187.19 14.0171L1186.14 9.32214Z" fill="#E7F2CC"/>
<path d="M1121.35 111.048L1128 107.336L1129.07 109.259L1124 112.099L1125.77 117.643L1123.67 118.314L1121.35 111.048Z" fill="#E7F2CC"/>
<path d="M1073.03 9.21061L1073.94 -0.872531L1064.25 -3.7566L1065.28 -15.1812L1068.58 -14.8905L1067.8 -6.17119L1077.49 -3.26474L1076.57 6.79602L1084.94 9.30002L1084.01 12.4747L1073.03 9.21061Z" fill="#E7F2CC"/>
<path d="M628.57 101.322L633.235 99.0865L631.985 94.0562L637.275 91.5298L638.012 93.0724L633.972 94.9952L635.222 100.026L630.557 102.261L631.628 106.621L629.999 107.023L628.57 101.322Z" fill="#E7F2CC"/>
<path d="M1031.15 23.2955L1028.03 26.0007L1030.06 29.6002L1026.51 32.6855L1025.62 31.6571L1028.34 29.3095L1026.31 25.6877L1029.44 22.9825L1027.67 19.8748L1028.86 19.2041L1031.15 23.2955Z" fill="#E7F2CC"/>
<path d="M680.442 98.1924L691.624 106.397L689.258 109.639L680.71 103.379L672.898 110.534L670.197 107.56L680.442 98.1924Z" fill="#E7F2CC"/>
<path d="M841.391 -4.31563L837.82 1.56434L836.124 0.513546L838.847 -3.9579L835.008 -7.53507L836.347 -8.98828L841.391 -4.31563Z" fill="#E7F2CC"/>
<path d="M914.02 111.405L911.855 105.928L913.44 105.302L915.092 109.483L919.511 108.678L919.801 110.355L914.02 111.405Z" fill="#E7F2CC"/>
<path d="M1005.71 110.109L1013.28 109.527L1013.45 111.741L1007.67 112.165L1006.94 117.934L1004.75 117.665L1005.71 110.109Z" fill="#E7F2CC"/>
<path d="M1231.07 67.3394L1237.5 60.9229L1239.35 62.7785L1234.46 67.6747L1238.28 73.4653L1236.09 74.9185L1231.07 67.3394Z" fill="#E7F2CC"/>
</g>
</g>
<path d="M548.32 93.32C541.216 93.32 536.8 88.968 536.8 82.28C536.8 75.592 541.216 71.24 548.32 71.24C555.584 71.24 559.968 75.592 559.968 82.28C559.968 88.968 555.584 93.32 548.32 93.32ZM548.32 88.712C553.024 88.712 554.848 87.048 554.848 82.28C554.848 77.512 553.024 75.848 548.32 75.848C543.616 75.848 541.888 77.512 541.888 82.28C541.888 87.048 543.616 88.712 548.32 88.712ZM568.781 93H563.981V80.936H561.709V76.968H564.077C564.589 73.736 567.405 71.56 572.333 71.56H573.741V75.048H571.565C569.453 75.048 568.461 75.4 568.589 76.968H573.741V80.936H568.781V93ZM592.84 93H588.872C585.128 93 582.856 91.24 582.856 87.208V80.936H580.328V76.968H582.856V73.864H587.656V76.968H592.84V80.936H587.656V86.664C587.656 88.264 588.264 88.68 589.96 88.68H592.84V93ZM600.078 93H595.278V71.56H600.078V81.864H600.334C600.846 79.144 602.734 76.648 606.83 76.648C611.15 76.648 613.262 79.464 613.262 83.176V93H608.462V84.616C608.462 81.928 607.31 80.968 604.302 80.968C601.07 80.968 600.078 82.28 600.078 84.968V93ZM624.836 93.32C619.492 93.32 615.844 90.696 615.844 85C615.844 79.88 619.46 76.648 624.74 76.648C629.988 76.648 633.476 79.4 633.476 84.424C633.476 85 633.412 85.416 633.348 85.96H620.292C620.42 88.424 621.572 89.48 624.676 89.48C627.524 89.48 628.516 88.744 628.516 87.368V87.048H633.316V87.4C633.316 90.888 629.924 93.32 624.836 93.32ZM624.644 80.392C621.796 80.392 620.58 81.352 620.356 83.432H628.868C628.74 81.32 627.46 80.392 624.644 80.392ZM646.529 93H641.729V71.56H648.225L653.249 82.12L655.265 87.144H655.617L657.569 82.12L662.433 71.56H668.961V93H664.161V82.12L664.321 78.76H663.969L662.721 82.12L658.241 91.72H652.417L647.937 82.12L646.689 78.76H646.337L646.529 82.12V93ZM680.663 93.32C675.191 93.32 671.511 90.056 671.511 85C671.511 79.88 675.191 76.648 680.663 76.648C686.135 76.648 689.815 79.88 689.815 85C689.815 90.056 686.135 93.32 680.663 93.32ZM680.663 89.064C683.895 89.064 685.047 87.816 685.047 85C685.047 82.184 683.895 80.872 680.663 80.872C677.399 80.872 676.279 82.184 676.279 85C676.279 87.816 677.399 89.064 680.663 89.064ZM697.215 93H692.415V76.968H696.863V81.896H697.151C697.567 79.208 699.487 76.648 703.679 76.648C708.063 76.648 710.143 79.464 710.143 83.016V93H705.343V84.616C705.343 82.056 704.287 80.968 701.343 80.968C698.303 80.968 697.215 82.184 697.215 84.904V93ZM724.507 93H720.539C716.795 93 714.523 91.24 714.523 87.208V80.936H711.995V76.968H714.523V73.864H719.323V76.968H724.507V80.936H719.323V86.664C719.323 88.264 719.931 88.68 721.627 88.68H724.507V93ZM731.745 93H726.945V71.56H731.745V81.864H732.001C732.513 79.144 734.401 76.648 738.497 76.648C742.817 76.648 744.929 79.464 744.929 83.176V93H740.129V84.616C740.129 81.928 738.977 80.968 735.969 80.968C732.737 80.968 731.745 82.28 731.745 84.968V93Z" fill="#97C03B"/>
<path d="M529.2 65.562C531.356 63.49 533.246 61.614 534.87 59.934C536.102 58.702 536.97 57.862 537.474 57.414C538.006 56.938 538.328 56.714 538.44 56.742C538.636 56.798 538.734 56.868 538.734 56.952C538.734 57.064 537.18 58.856 534.072 62.328C532.14 64.54 529.186 67.676 525.21 71.736C521.234 75.824 518.784 78.246 517.86 79.002C515.704 80.71 513.842 81.564 512.274 81.564C511.686 81.564 511.056 81.452 510.384 81.228C508.732 80.64 507.472 79.254 506.604 77.07C505.736 74.886 505.302 72.03 505.302 68.502C505.302 67.662 505.316 67.032 505.344 66.612C505.596 60.032 506.884 53.704 509.208 47.628C511.56 41.524 514.934 36.386 519.33 32.214C520.758 30.87 521.934 29.974 522.858 29.526C523.782 29.078 524.804 28.882 525.924 28.938C528.388 29.134 530.25 30.254 531.51 32.298C532.77 34.314 533.442 36.666 533.526 39.354V40.362C533.526 40.726 533.498 40.95 533.442 41.034C533.414 41.09 533.316 41.118 533.148 41.118C532.896 41.118 532.574 41.02 532.182 40.824C531.79 40.628 531.524 40.432 531.384 40.236C531.244 39.984 530.964 39.06 530.544 37.464C530.096 35.616 529.536 34.09 528.864 32.886C528.22 31.682 527.618 31.08 527.058 31.08C525.77 31.08 524.034 32.13 521.85 34.23C518.658 37.226 515.942 40.978 513.702 45.486C511.49 49.966 509.88 54.908 508.872 60.312C508.312 63.42 508.032 66.36 508.032 69.132C508.032 71.008 508.158 72.702 508.41 74.214C508.662 75.754 509.026 77 509.502 77.952C509.782 78.568 510.104 79.058 510.468 79.422C510.832 79.814 511.154 80.01 511.434 80.01C511.742 80.01 512.288 79.8 513.072 79.38C513.884 78.96 514.64 78.484 515.34 77.952C516.012 77.448 518.014 75.698 521.346 72.702C524.678 69.734 527.296 67.354 529.2 65.562ZM556.689 58.086C557.473 57.47 557.991 57.162 558.243 57.162C558.355 57.162 558.411 57.232 558.411 57.372C558.411 57.596 558.061 58.03 557.361 58.674C556.661 59.29 555.835 59.92 554.883 60.564C553.959 61.208 553.175 61.67 552.531 61.95C551.831 62.258 551.201 62.412 550.641 62.412C549.829 62.412 549.143 62.132 548.583 61.572C548.051 60.984 547.729 60.172 547.617 59.136L547.533 58.044L546.693 59.178C545.909 60.326 544.915 61.418 543.711 62.454C542.507 63.49 541.387 64.008 540.351 64.008C539.539 64.008 538.867 63.77 538.335 63.294C537.803 62.818 537.537 62.174 537.537 61.362C537.537 60.186 537.789 58.394 538.293 55.986C538.769 53.578 539.161 52.22 539.469 51.912C539.749 51.688 540.071 51.576 540.435 51.576C540.827 51.576 541.219 51.674 541.611 51.87C542.115 52.122 542.367 52.402 542.367 52.71C542.367 52.878 542.269 53.046 542.073 53.214C541.765 53.494 541.387 54.698 540.939 56.826C540.491 58.926 540.267 60.466 540.267 61.446C540.267 61.838 540.309 62.034 540.393 62.034C540.533 62.034 540.925 61.768 541.569 61.236C542.213 60.704 542.759 60.172 543.207 59.64C543.459 59.36 543.837 58.884 544.341 58.212C544.845 57.54 545.293 56.896 545.685 56.28C546.329 55.3 546.805 54.642 547.113 54.306C547.421 53.97 547.729 53.802 548.037 53.802C548.233 53.802 548.457 53.844 548.709 53.928C549.213 54.096 549.535 54.264 549.675 54.432C549.843 54.572 549.941 54.838 549.969 55.23C550.025 55.622 550.081 56.476 550.137 57.792C550.193 59.892 550.263 60.984 550.347 61.068C550.543 61.236 551.411 60.956 552.951 60.228C554.491 59.5 555.737 58.786 556.689 58.086ZM567.577 58.296C567.633 58.352 567.199 59.234 566.275 60.942C565.379 62.65 564.679 63.882 564.175 64.638C563.055 66.346 562.103 67.2 561.319 67.2C561.011 67.2 560.647 67.074 560.227 66.822C559.891 66.598 559.667 66.262 559.555 65.814C559.443 65.394 559.387 64.526 559.387 63.21L559.429 60.312C559.429 59.696 559.373 59.332 559.261 59.22C559.149 59.08 558.953 58.996 558.673 58.968C558.393 58.912 558.169 58.87 558.001 58.842C557.525 58.758 557.175 58.59 556.951 58.338C556.699 58.058 556.573 57.652 556.573 57.12C556.573 56.56 556.671 55.93 556.867 55.23C556.979 54.754 557.091 54.432 557.203 54.264C557.287 54.096 557.413 53.984 557.581 53.928C557.665 53.9 557.791 53.886 557.959 53.886C558.435 53.886 558.897 54.082 559.345 54.474L559.807 54.852L559.555 56.238L559.261 57.624C559.597 57.792 559.933 57.946 560.269 58.086C560.941 58.422 561.319 58.688 561.403 58.884C561.543 59.164 561.613 59.71 561.613 60.522C561.613 61.166 561.571 61.894 561.487 62.706C561.403 63.378 561.389 63.938 561.445 64.386L561.529 64.89L562.369 64.008C563.013 63.28 563.923 62.174 565.099 60.69C565.995 59.542 566.597 58.828 566.905 58.548C567.213 58.24 567.437 58.156 567.577 58.296ZM583.028 58.548C584.092 57.708 584.736 57.288 584.96 57.288C585.072 57.288 585.128 57.358 585.128 57.498C585.128 57.694 584.736 58.212 583.952 59.052C583.168 59.892 582.328 60.704 581.432 61.488C580.564 62.272 579.99 62.692 579.71 62.748C579.374 62.832 578.94 62.762 578.408 62.538C577.876 62.314 577.512 62.048 577.316 61.74C577.092 61.432 576.896 60.844 576.728 59.976C576.56 59.08 576.476 58.254 576.476 57.498C576.476 56.63 576.434 56.196 576.35 56.196C576.238 56.196 575.748 56.784 574.88 57.96C574.012 59.108 573.046 60.242 571.982 61.362C570.918 62.454 570.05 63 569.378 63C569.266 63 569 62.93 568.58 62.79C567.516 62.398 566.984 61.628 566.984 60.48C566.984 59.528 567.362 58.296 568.118 56.784C569.294 54.376 570.736 53.172 572.444 53.172C573.004 53.172 573.62 53.326 574.292 53.634L575.09 54.054L575.594 53.592C575.874 53.312 576.154 53.172 576.434 53.172C576.63 53.172 576.91 53.242 577.274 53.382C577.638 53.55 577.904 53.746 578.072 53.97C578.24 54.194 578.352 54.558 578.408 55.062C578.492 55.566 578.562 56.406 578.618 57.582C578.702 59.038 578.772 60.018 578.828 60.522C578.912 60.998 579.024 61.236 579.164 61.236C579.304 61.236 579.766 60.956 580.55 60.396C581.362 59.836 582.188 59.22 583.028 58.548ZM572.57 57.288C572.99 56.756 573.312 56.322 573.536 55.986C573.76 55.65 573.872 55.426 573.872 55.314C573.872 55.174 573.802 55.076 573.662 55.02C573.522 54.936 573.382 54.894 573.242 54.894C572.598 54.978 571.87 55.594 571.058 56.742C570.246 57.89 569.686 59.122 569.378 60.438C569.35 60.522 569.336 60.62 569.336 60.732C569.336 60.76 569.35 60.774 569.378 60.774C569.434 60.774 569.7 60.536 570.176 60.06C570.988 59.248 571.786 58.324 572.57 57.288ZM593.799 57.246C593.967 57.386 593.911 57.666 593.631 58.086C593.351 58.506 592.763 59.164 591.867 60.06C590.663 61.292 589.767 62.132 589.179 62.58C588.591 63 588.059 63.21 587.583 63.21C587.023 63.21 586.561 63.07 586.197 62.79C585.805 62.538 585.483 62.188 585.231 61.74C585.091 61.516 585.007 61.25 584.979 60.942C584.923 60.634 584.895 60.004 584.895 59.052C584.895 57.82 584.909 56.714 584.937 55.734L584.979 50.316L583.971 50.484C583.719 50.54 583.411 50.568 583.047 50.568C582.571 50.568 582.109 50.4 581.661 50.064C581.353 49.812 581.199 49.56 581.199 49.308C581.199 49.14 581.283 49.014 581.451 48.93C581.619 48.846 582.123 48.804 582.963 48.804C583.607 48.804 584.069 48.79 584.349 48.762C584.601 48.706 584.769 48.622 584.853 48.51C584.909 48.37 584.937 48.146 584.937 47.838C584.937 47.082 584.993 46.396 585.105 45.78C585.189 45.136 585.301 44.786 585.441 44.73C585.637 44.646 585.889 44.674 586.197 44.814C586.533 44.926 586.813 45.094 587.037 45.318C587.205 45.486 587.317 45.626 587.373 45.738C587.429 45.822 587.457 45.962 587.457 46.158L587.373 47.208L587.247 48.636H589.683C590.663 48.636 591.321 48.65 591.657 48.678C591.993 48.706 592.161 48.776 592.161 48.888C592.161 49.056 591.419 49.238 589.935 49.434C588.591 49.63 587.779 49.77 587.499 49.854C587.387 49.938 587.261 51.17 587.121 53.55C587.009 55.93 586.953 58.016 586.953 59.808C586.953 61.096 586.995 61.74 587.079 61.74C587.247 61.74 588.087 61.222 589.599 60.186C591.139 59.15 592.147 58.408 592.623 57.96C593.295 57.344 593.687 57.106 593.799 57.246ZM594.238 51.156C593.846 50.932 593.608 50.75 593.524 50.61C593.412 50.442 593.356 50.19 593.356 49.854C593.356 49.462 593.426 49.196 593.566 49.056C593.706 48.888 593.972 48.776 594.364 48.72H594.658C594.854 48.72 595.022 48.762 595.162 48.846C595.302 48.902 595.484 49.028 595.708 49.224C596.156 49.588 596.38 49.938 596.38 50.274C596.38 50.498 596.268 50.764 596.044 51.072C595.792 51.38 595.526 51.534 595.246 51.534C594.994 51.534 594.658 51.408 594.238 51.156ZM602.176 57.246C602.26 57.33 602.19 57.498 601.966 57.75C601.77 58.002 601.322 58.464 600.622 59.136C599.446 60.256 598.62 60.984 598.144 61.32C597.612 61.74 596.996 61.95 596.296 61.95C595.68 61.95 595.106 61.726 594.574 61.278C594.014 60.83 593.664 60.312 593.524 59.724C593.412 59.276 593.356 58.478 593.356 57.33C593.356 56.406 593.398 55.58 593.482 54.852C593.538 54.124 593.622 53.704 593.734 53.592C593.874 53.48 594.112 53.494 594.448 53.634C594.784 53.774 595.092 53.984 595.372 54.264C595.736 54.628 595.876 54.936 595.792 55.188C595.708 55.664 595.638 56.602 595.582 58.002L595.456 60.396L595.96 60.27C596.324 60.158 597.192 59.724 598.564 58.968C598.816 58.828 599.39 58.506 600.286 58.002C601.182 57.47 601.7 57.19 601.84 57.162C601.98 57.134 602.092 57.162 602.176 57.246ZM610.65 57.708C612.442 57.764 613.338 57.834 613.338 57.918C613.31 58.058 612.932 58.184 612.204 58.296C611.504 58.408 610.65 58.478 609.642 58.506H607.542L606.87 59.892C606.366 60.788 605.862 61.544 605.358 62.16C604.994 62.496 604.714 62.72 604.518 62.832C604.35 62.944 604.14 63 603.888 63C603.692 63 603.468 62.958 603.216 62.874C602.992 62.79 602.796 62.692 602.628 62.58C602.208 62.328 601.928 62.048 601.788 61.74C601.648 61.488 601.578 60.9 601.578 59.976C601.578 58.968 601.662 57.932 601.83 56.868C601.97 55.804 602.152 55.146 602.376 54.894C602.6 54.642 602.88 54.432 603.216 54.264C603.58 54.096 603.902 54.012 604.182 54.012C604.49 54.012 604.868 54.11 605.316 54.306C605.764 54.502 606.128 54.726 606.408 54.978C606.66 55.202 606.898 55.552 607.122 56.028C607.374 56.476 607.5 56.812 607.5 57.036C607.5 57.288 607.57 57.456 607.71 57.54C607.906 57.596 608.886 57.652 610.65 57.708ZM605.274 57.036C605.442 57.036 605.526 56.952 605.526 56.784C605.526 56.532 605.456 56.28 605.316 56.028C605.176 55.748 605.036 55.608 604.896 55.608C604.84 55.608 604.784 55.636 604.728 55.692C604.672 55.748 604.644 55.804 604.644 55.86C604.644 55.972 604.63 56.084 604.602 56.196C604.574 56.28 604.546 56.364 604.518 56.448C604.49 56.504 604.476 56.574 604.476 56.658C604.476 56.798 604.56 56.896 604.728 56.952L605.274 57.036ZM604.812 59.178C604.924 58.954 605.008 58.758 605.064 58.59C605.148 58.394 605.176 58.282 605.148 58.254C605.12 58.226 604.938 58.156 604.602 58.044C604.406 57.988 604.266 58.002 604.182 58.086C604.098 58.142 604.028 58.324 603.972 58.632C603.916 58.94 603.86 59.346 603.804 59.85L603.72 60.942L604.056 60.48C604.308 60.2 604.56 59.766 604.812 59.178ZM632.053 57.162C632.333 57.162 632.277 57.442 631.885 58.002C631.521 58.534 630.975 59.164 630.247 59.892C629.547 60.592 628.889 61.138 628.273 61.53C627.209 62.23 626.285 62.58 625.501 62.58C623.345 62.58 621.651 60.956 620.419 57.708L620.041 56.658L619.285 57.624C618.837 58.156 618.137 59.374 617.185 61.278C616.289 63.07 615.715 64.092 615.463 64.344C615.239 64.54 614.889 64.638 614.413 64.638C613.461 64.638 612.803 64.344 612.439 63.756C612.075 63.168 611.893 62.356 611.893 61.32C611.893 60.088 612.033 58.422 612.313 56.322C612.565 54.194 612.789 53.018 612.985 52.794C613.097 52.654 613.363 52.584 613.783 52.584C614.399 52.584 614.875 52.71 615.211 52.962C615.435 53.13 615.561 53.284 615.589 53.424C615.645 53.536 615.645 53.76 615.589 54.096C615.197 56.56 614.959 58.268 614.875 59.22L614.749 60.228L615.379 59.136C616.023 57.904 616.723 56.854 617.479 55.986C618.235 55.09 618.865 54.572 619.369 54.432C619.705 54.348 620.139 54.404 620.671 54.6C621.231 54.796 621.623 55.034 621.847 55.314C621.959 55.426 622.113 55.72 622.309 56.196C622.533 56.644 622.715 57.106 622.855 57.582C623.499 59.542 624.101 60.718 624.661 61.11C624.801 61.194 624.983 61.236 625.207 61.236C625.823 61.236 626.635 60.942 627.643 60.354C628.679 59.766 629.701 59.01 630.709 58.086C631.409 57.47 631.857 57.162 632.053 57.162ZM637.605 60.648C638.305 60.2 639.551 59.5 641.343 58.548C643.163 57.596 644.213 57.12 644.493 57.12C644.633 57.12 644.703 57.176 644.703 57.288C644.703 57.4 643.401 58.422 640.797 60.354C638.949 61.726 637.801 62.608 637.353 63C636.905 63.392 636.569 63.812 636.345 64.26C636.009 64.932 635.575 65.478 635.043 65.898C634.511 66.318 633.993 66.528 633.489 66.528C633.069 66.528 632.663 66.36 632.271 66.024C631.879 65.688 631.739 65.394 631.851 65.142C631.879 64.974 632.355 64.428 633.279 63.504C634.175 62.664 634.623 62.146 634.623 61.95C634.623 61.642 634.497 61.292 634.245 60.9C633.993 60.508 633.559 59.99 632.943 59.346C632.187 58.562 631.683 57.96 631.431 57.54C631.179 57.092 631.053 56.616 631.053 56.112C631.053 55.664 631.221 55.216 631.557 54.768C631.865 54.292 632.243 53.914 632.691 53.634C633.139 53.354 633.559 53.256 633.951 53.34C634.203 53.396 634.567 53.592 635.043 53.928L635.631 54.432L634.875 55.104C634.007 55.86 633.573 56.574 633.573 57.246C633.573 57.582 633.979 58.198 634.791 59.094L636.261 60.9L636.513 61.278L637.605 60.648Z" fill="#394D0D"/>
</g>
<defs>
<clipPath id="clip0_15462_3475">
<rect width="1250" height="134" fill="white"/>
</clipPath>
<clipPath id="clip1_15462_3475">
<rect width="1250" height="134" fill="white"/>
</clipPath>
<clipPath id="clip2_15462_3475">
<rect width="625" height="622.314" fill="white" transform="translate(0 -244)"/>
</clipPath>
<clipPath id="clip3_15462_3475">
<rect width="625" height="622.314" fill="white" transform="translate(625 -504)"/>
</clipPath>
</defs>
</svg>
