<svg width="1250" height="134" viewBox="0 0 1250 134" fill="none" xmlns="http://www.w3.org/2000/svg">
<g clip-path="url(#clip0_12959_38314)">
<path d="M490.08 77H485.28V55.56H496.48C501.44 55.56 504.64 58.376 504.64 63.304C504.64 68.232 501.44 71.08 496.48 71.08H490.08V77ZM495.968 59.88H490.08V66.76H495.968C498.624 66.76 499.872 65.992 499.872 63.304C499.872 60.68 498.624 59.88 495.968 59.88ZM511.782 77H506.982V55.56H511.782V65.864H512.038C512.55 63.144 514.438 60.648 518.535 60.648C522.854 60.648 524.967 63.464 524.967 67.176V77H520.167V68.616C520.167 65.928 519.014 64.968 516.007 64.968C512.774 64.968 511.782 66.28 511.782 68.968V77ZM536.573 77.32C531.101 77.32 527.421 74.056 527.421 69C527.421 63.88 531.101 60.648 536.573 60.648C542.045 60.648 545.725 63.88 545.725 69C545.725 74.056 542.045 77.32 536.573 77.32ZM536.573 73.064C539.805 73.064 540.957 71.816 540.957 69C540.957 66.184 539.805 64.872 536.573 64.872C533.309 64.872 532.189 66.184 532.189 69C532.189 71.816 533.309 73.064 536.573 73.064ZM559.621 77H555.653C551.909 77 549.637 75.24 549.637 71.208V64.936H547.109V60.968H549.637V57.864H554.437V60.968H559.621V64.936H554.437V70.664C554.437 72.264 555.045 72.68 556.741 72.68H559.621V77ZM570.603 77.32C565.131 77.32 561.451 74.056 561.451 69C561.451 63.88 565.131 60.648 570.603 60.648C576.075 60.648 579.755 63.88 579.755 69C579.755 74.056 576.075 77.32 570.603 77.32ZM570.603 73.064C573.835 73.064 574.987 71.816 574.987 69C574.987 66.184 573.835 64.872 570.603 64.872C567.339 64.872 566.219 66.184 566.219 69C566.219 71.816 567.339 73.064 570.603 73.064ZM598.044 77.32C591.484 77.32 587.452 72.968 587.452 66.28C587.452 59.592 591.996 55.24 599.356 55.24C606.076 55.24 610.332 58.376 610.332 63.528V63.784H604.988V63.528C604.988 61.032 603.356 59.848 599.228 59.848C594.364 59.848 592.54 61.512 592.54 66.28C592.54 71.048 594.3 72.712 599.004 72.712C603.932 72.712 605.436 71.944 605.564 69.224H598.3V65.672H610.364V77H605.916V72.392H605.66C604.924 75.208 602.684 77.32 598.044 77.32ZM618.282 77.32C614.826 77.32 612.746 75.72 612.746 73.032C612.746 70.664 614.506 69.192 617.93 68.84L624.81 68.136V67.528C624.81 65.448 623.882 64.872 621.322 64.872C618.89 64.872 617.898 65.512 617.898 67.336V67.464H613.066V67.368C613.066 63.4 616.394 60.648 621.674 60.648C627.018 60.648 629.546 63.4 629.546 67.592V77H625.066V73.32H624.81C624.074 75.816 621.834 77.32 618.282 77.32ZM617.578 72.712C617.578 73.576 618.25 73.928 619.658 73.928C622.922 73.928 624.682 73.16 624.81 70.888L619.242 71.528C618.09 71.624 617.578 71.944 617.578 72.712ZM637.419 77H632.619V55.56H637.419V77ZM645.371 77H640.571V55.56H645.371V77ZM657.036 77.32C651.692 77.32 648.044 74.696 648.044 69C648.044 63.88 651.66 60.648 656.94 60.648C662.188 60.648 665.676 63.4 665.676 68.424C665.676 69 665.612 69.416 665.548 69.96H652.492C652.62 72.424 653.772 73.48 656.876 73.48C659.724 73.48 660.716 72.744 660.716 71.368V71.048H665.516V71.4C665.516 74.888 662.124 77.32 657.036 77.32ZM656.844 64.392C653.996 64.392 652.78 65.352 652.556 67.432H661.068C660.94 65.32 659.66 64.392 656.844 64.392ZM673.151 77H668.351V60.968H672.799V65.224H673.087C673.535 62.632 675.231 60.648 678.463 60.648C682.047 60.648 683.519 63.112 683.519 66.248V68.904H678.719V67.24C678.719 65.48 678.015 64.712 676.063 64.712C673.919 64.712 673.151 65.704 673.151 67.72V77ZM688.969 82.44H686.345V78.088H690.281C691.465 78.088 691.977 77.768 692.297 77.064L684.457 60.968H689.897L693.289 68.296L694.633 72.072H694.953L696.233 68.264L699.273 60.968H704.617L696.681 78.152C695.145 81.512 693.001 82.44 688.969 82.44ZM721.718 77.32C715.222 77.32 711.574 74.76 711.574 69.768V69.576H716.374V70.152C716.374 72.136 717.366 72.936 721.718 72.936C725.558 72.936 726.454 72.36 726.454 70.92C726.454 69.608 725.718 69.128 723.51 68.744L717.494 67.88C713.654 67.272 711.382 65.352 711.382 61.864C711.382 58.632 714.006 55.24 721.206 55.24C727.798 55.24 730.87 58.28 730.87 62.792V62.984H726.038V62.536C726.038 60.488 724.982 59.624 720.726 59.624C717.27 59.624 716.214 60.296 716.214 61.672C716.214 62.92 716.918 63.368 718.71 63.688L724.726 64.648C729.526 65.416 731.254 67.752 731.254 70.696C731.254 74.184 728.534 77.32 721.718 77.32ZM742.361 77.32C737.017 77.32 733.369 74.696 733.369 69C733.369 63.88 736.985 60.648 742.265 60.648C747.513 60.648 751.001 63.4 751.001 68.424C751.001 69 750.937 69.416 750.873 69.96H737.817C737.945 72.424 739.097 73.48 742.201 73.48C745.049 73.48 746.041 72.744 746.041 71.368V71.048H750.841V71.4C750.841 74.888 747.449 77.32 742.361 77.32ZM742.169 64.392C739.321 64.392 738.105 65.352 737.881 67.432H746.393C746.265 65.32 744.985 64.392 742.169 64.392ZM764.972 77H761.004C757.26 77 754.988 75.24 754.988 71.208V64.936H752.46V60.968H754.988V57.864H759.788V60.968H764.972V64.936H759.788V70.664C759.788 72.264 760.396 72.68 762.092 72.68H764.972V77Z" fill="#087C75"/>
<g opacity="0.25" clip-path="url(#clip1_12959_38314)">
<path d="M19.5352 6.84045L-12.0009 16.6666L10.2361 36.3188L19.5352 6.84045Z" fill="#2C948D" fill-opacity="0.5"/>
<path d="M49.8594 -21L8.61996 -2.98541L47.4335 10.116L49.8594 -21Z" fill="#8FD8D3" fill-opacity="0.5"/>
<path d="M36.5156 15.8479L17.1089 25.2645L27.2166 44.9168L36.5156 15.8479Z" fill="#2D5957" fill-opacity="0.5"/>
<path d="M53.9023 40.4131L35.3041 44.9168L42.1774 60.0653L53.9023 40.4131Z" fill="#8FD8D3" fill-opacity="0.5"/>
<path d="M30.4529 57.6088L38.5391 61.703L31.2616 62.1125L30.4529 57.6088Z" fill="#2C948D" fill-opacity="0.5"/>
<path d="M53.4989 7.04529L59.7656 8.88755L51.4774 12.9818L53.4989 7.04529Z" fill="#2C948D" fill-opacity="0.5"/>
<path d="M13.6735 37.547L10.4391 44.0978L18.9297 40.4131L13.6735 37.547Z" fill="#2D5957" fill-opacity="0.5"/>
<path d="M17.3139 48.6016L33.8906 76.8515L13.4731 69.482L17.3139 48.6016Z" fill="#2C948D" fill-opacity="0.5"/>
<path d="M1.14049 44.5073L11.6523 60.0653L-8.56289 70.9148L1.14049 44.5073Z" fill="#8FD8D3" fill-opacity="0.5"/>
<path d="M17.5155 77.4656L4.17338 84.8351L28.0273 92L17.5155 77.4656Z" fill="#2D5957" fill-opacity="0.5"/>
<path d="M7.20513 73.5762L11.6523 75.009L5.99206 79.5127L7.20513 73.5762Z" fill="#8FD8D3" fill-opacity="0.5"/>
<path d="M85.2375 38.9801L75.9382 45.9402L86.6523 59.0418L85.2375 38.9801Z" fill="#2C948D" fill-opacity="0.5"/>
<path d="M68.2531 38.98L63.8056 39.5941L69.668 42.4601L68.2531 38.98Z" fill="#8FD8D3" fill-opacity="0.5"/>
<path d="M60.9782 45.2556L72.182 47.6302L72.7031 55.018L60.9782 45.2556Z" fill="#2D5957" fill-opacity="0.5"/>
<path d="M80.3851 3.15564L106.059 4.79353L90.0885 19.1231L80.3851 3.15564Z" fill="#2C948D" fill-opacity="0.5"/>
<path d="M86.043 -9.12683L71.2857 22.6033L57.5395 -2.16678L86.043 -9.12683Z" fill="#8FD8D3" fill-opacity="0.5"/>
<path d="M71.1648 3.06763L40.5597 30.5178L78.1602 38.0445L71.1648 3.06763Z" fill="#2C948D" fill-opacity="0.5"/>
<path d="M93.3201 32.02L90.2877 42.6648L106.258 39.1849L93.3201 32.02Z" fill="#2D5957" fill-opacity="0.5"/>
<path d="M103.633 -5.85144L141.031 -1.55259L119.199 17.0761L103.633 -5.85144Z" fill="#2C948D" fill-opacity="0.5"/>
<path d="M93.93 25.0275L100.856 14.6194L115.156 26.8374L93.93 25.0275Z" fill="#8FD8D3" fill-opacity="0.5"/>
<path d="M84.6289 22.6033L79.575 18.9186L80.5858 28.7445L84.6289 22.6033Z" fill="#8FD8D3" fill-opacity="0.5"/>
<path d="M25.5994 9.70654L31.6641 11.1396L23.7802 13.8008L25.5994 9.70654Z" fill="#2C948D" fill-opacity="0.5"/>
<path d="M118.792 20.7607L116.568 24.036L125.059 24.4455L118.792 20.7607Z" fill="#2D5957" fill-opacity="0.5"/>
<path d="M133.752 14.0054L125.06 35.5001L157 17.2807L133.752 14.0054Z" fill="#8FD8D3" fill-opacity="0.5"/>
<path d="M52.6902 51.8768L54.1053 59.2464L61.3828 54.3334L52.6902 51.8768Z" fill="#2C948D" fill-opacity="0.5"/>
</g>
<g opacity="0.25" clip-path="url(#clip2_12959_38314)">
<mask id="mask0_12959_38314" style="mask-type:luminance" maskUnits="userSpaceOnUse" x="1109" y="-14" width="64" height="63">
<path d="M1113.63 48.4963L1154.16 -13.3694H1172.48L1134.5 44.5928C1132.86 47.1075 1130.31 48.4965 1127.36 48.4965H1113.63H1109.04C1111.63 48.0283 1114.54 47.1075 1116.19 44.5928L1113.63 48.4963Z" fill="white"/>
</mask>
<g mask="url(#mask0_12959_38314)">
<path d="M1172.48 48.4962H1109.04V-13.3695H1172.48V48.4962Z" fill="url(#paint0_linear_12959_38314)" fill-opacity="0.3"/>
</g>
<mask id="mask1_12959_38314" style="mask-type:luminance" maskUnits="userSpaceOnUse" x="1063" y="-14" width="65" height="63">
<path d="M1122.77 48.4963L1082.24 -13.3696H1063.93L1101.9 44.5927C1103.54 47.1074 1106.09 48.4963 1109.05 48.4963H1122.77H1127.36C1124.4 48.4963 1121.86 47.1074 1120.21 44.5927L1122.77 48.4963Z" fill="white"/>
</mask>
<g mask="url(#mask1_12959_38314)">
<path d="M1127.36 48.4963H1063.93V-13.3694H1127.36V48.4963Z" fill="url(#paint1_linear_12959_38314)" fill-opacity="0.5"/>
</g>
<mask id="mask2_12959_38314" style="mask-type:luminance" maskUnits="userSpaceOnUse" x="1072" y="-14" width="56" height="63">
<path d="M1122.77 48.4963L1082.24 -13.3696H1072.28L1110.25 44.5927C1111.9 47.1074 1114.44 48.4963 1117.4 48.4963H1122.77H1127.36C1124.4 48.4963 1121.86 47.1074 1120.21 44.5927L1122.77 48.4963Z" fill="white"/>
</mask>
<g mask="url(#mask2_12959_38314)">
<path d="M1127.36 48.4963H1072.28V-13.3694H1127.36V48.4963Z" fill="url(#paint2_linear_12959_38314)" fill-opacity="0.5"/>
</g>
<mask id="mask3_12959_38314" style="mask-type:luminance" maskUnits="userSpaceOnUse" x="1104" y="0" width="64" height="67">
<path d="M1164.65 67L1120.95 0.283974H1104.45L1146.31 64.177C1147.5 65.9956 1149.34 67 1151.48 67H1164.65H1167.97C1165.83 67 1163.99 65.9956 1162.8 64.177L1164.65 67Z" fill="white"/>
</mask>
<g mask="url(#mask3_12959_38314)">
<path d="M1167.97 67H1104.45V0.283974H1167.97V67Z" fill="url(#paint3_linear_12959_38314)" fill-opacity="0.5"/>
</g>
<mask id="mask4_12959_38314" style="mask-type:luminance" maskUnits="userSpaceOnUse" x="1151" y="0" width="64" height="67">
<path d="M1154.8 67L1198.51 0.283974H1215L1173.14 64.177C1171.95 65.9956 1170.11 67 1167.97 67H1154.8H1151.48C1153.62 67 1155.46 65.9956 1156.65 64.177L1154.8 67Z" fill="white"/>
</mask>
<g mask="url(#mask4_12959_38314)">
<path d="M1215 67H1151.48V0.283974H1215V67Z" fill="url(#paint4_linear_12959_38314)" fill-opacity="0.5"/>
</g>
<mask id="mask5_12959_38314" style="mask-type:luminance" maskUnits="userSpaceOnUse" x="1159" y="0" width="56" height="67">
<path d="M1215 67H1159.64V0.283974H1215V67Z" fill="url(#paint5_linear_12959_38314)"/>
</mask>
<g mask="url(#mask5_12959_38314)">
<path fill-rule="evenodd" clip-rule="evenodd" d="M1162.96 67H1159.64C1161.78 67 1163.61 65.9956 1164.81 64.177L1162.96 67ZM1206.66 0.283974H1215L1173.14 64.177C1171.95 65.9956 1170.11 67 1167.97 67H1162.96L1206.66 0.283974Z" fill="#087C75" fill-opacity="0.5"/>
</g>
<mask id="mask6_12959_38314" style="mask-type:luminance" maskUnits="userSpaceOnUse" x="1097" y="-30" width="64" height="68">
<path d="M1157.37 37.5491L1113.67 -29.167H1097.17L1139.03 34.7263C1140.22 36.5449 1142.06 37.5491 1144.2 37.5491H1157.37H1160.69C1158.55 37.5491 1156.71 36.5449 1155.52 34.7263L1157.37 37.5491Z" fill="white"/>
</mask>
<g mask="url(#mask6_12959_38314)">
<path d="M1160.69 37.5491H1097.17V-29.167H1160.69V37.5491Z" fill="url(#paint6_linear_12959_38314)" fill-opacity="0.5"/>
</g>
<mask id="mask7_12959_38314" style="mask-type:luminance" maskUnits="userSpaceOnUse" x="1144" y="-30" width="64" height="68">
<path d="M1147.52 37.5491L1191.22 -29.167H1207.72L1165.86 34.7263C1164.67 36.5449 1162.83 37.5491 1160.69 37.5491H1147.52H1144.2C1146.34 37.5491 1148.18 36.5449 1149.37 34.7263L1147.52 37.5491Z" fill="white"/>
</mask>
<g mask="url(#mask7_12959_38314)">
<path d="M1207.72 37.5491H1144.2V-29.167H1207.72V37.5491Z" fill="url(#paint7_linear_12959_38314)" fill-opacity="0.5"/>
</g>
<mask id="mask8_12959_38314" style="mask-type:luminance" maskUnits="userSpaceOnUse" x="1152" y="-30" width="56" height="68">
<path d="M1207.72 37.5491H1152.36V-29.167H1207.72V37.5491Z" fill="url(#paint8_linear_12959_38314)"/>
</mask>
<g mask="url(#mask8_12959_38314)">
<path fill-rule="evenodd" clip-rule="evenodd" d="M1155.68 37.5491H1152.36C1154.49 37.5491 1156.33 36.5449 1157.52 34.7263L1155.68 37.5491ZM1199.38 -29.167H1207.72L1165.86 34.7263C1164.67 36.5449 1162.83 37.5491 1160.69 37.5491H1155.68L1199.38 -29.167Z" fill="white" fill-opacity="0.5"/>
</g>
<mask id="mask9_12959_38314" style="mask-type:luminance" maskUnits="userSpaceOnUse" x="1038" y="-32" width="54" height="67">
<path d="M1091.87 34.009L1048.63 -32H1038L1078.51 29.8439C1080.27 32.5271 1082.98 34.0089 1086.14 34.0089H1091.87V34.009L1089.15 29.8526L1089.14 29.8441L1091.87 34.009Z" fill="white"/>
</mask>
<g mask="url(#mask9_12959_38314)">
<path d="M1091.87 34.009H1038V-31.9998H1091.87V34.009Z" fill="url(#paint9_linear_12959_38314)" fill-opacity="0.5"/>
</g>
</g>
</g>
<defs>
<linearGradient id="paint0_linear_12959_38314" x1="1127.1" y1="38.9797" x2="1114.66" y2="57.5864" gradientUnits="userSpaceOnUse">
<stop stop-color="#087C75"/>
<stop offset="1" stop-color="white"/>
</linearGradient>
<linearGradient id="paint1_linear_12959_38314" x1="1104.58" y1="71.8391" x2="1082.65" y2="-55.2854" gradientUnits="userSpaceOnUse">
<stop stop-color="#087C75"/>
<stop offset="1" stop-color="#18A89F"/>
</linearGradient>
<linearGradient id="paint2_linear_12959_38314" x1="1087.97" y1="86.6251" x2="1107.54" y2="-22.2517" gradientUnits="userSpaceOnUse">
<stop stop-color="#9EFFF9"/>
<stop offset="1" stop-color="#087C75"/>
</linearGradient>
<linearGradient id="paint3_linear_12959_38314" x1="1135.57" y1="-45.9179" x2="1136.58" y2="73.639" gradientUnits="userSpaceOnUse">
<stop stop-color="#087C75"/>
<stop offset="0.6" stop-color="#0F8D86"/>
<stop offset="1" stop-color="white"/>
</linearGradient>
<linearGradient id="paint4_linear_12959_38314" x1="1138.16" y1="67.7247" x2="1216.4" y2="11.2772" gradientUnits="userSpaceOnUse">
<stop stop-color="#378681"/>
<stop offset="0.338542" stop-color="#47ABA5"/>
<stop offset="0.71" stop-color="#52CDC6"/>
<stop offset="1" stop-color="#06524D"/>
</linearGradient>
<linearGradient id="paint5_linear_12959_38314" x1="1115.43" y1="77.9245" x2="1215.59" y2="19.0488" gradientUnits="userSpaceOnUse">
<stop stop-color="white"/>
<stop offset="1"/>
</linearGradient>
<linearGradient id="paint6_linear_12959_38314" x1="1127.44" y1="-19.4702" x2="1131.22" y2="37.6709" gradientUnits="userSpaceOnUse">
<stop stop-color="#087C75"/>
<stop offset="1" stop-color="white"/>
</linearGradient>
<linearGradient id="paint7_linear_12959_38314" x1="1161.84" y1="50.3333" x2="1188.19" y2="-31.8452" gradientUnits="userSpaceOnUse">
<stop stop-color="#087C75"/>
<stop offset="1" stop-color="white"/>
</linearGradient>
<linearGradient id="paint8_linear_12959_38314" x1="1098.54" y1="37.7514" x2="1184.73" y2="3.87977" gradientUnits="userSpaceOnUse">
<stop stop-color="white"/>
<stop offset="1"/>
</linearGradient>
<linearGradient id="paint9_linear_12959_38314" x1="1064.6" y1="47.3953" x2="1065.24" y2="-36.8893" gradientUnits="userSpaceOnUse">
<stop stop-color="#16BAB0"/>
<stop offset="1" stop-color="#087C75"/>
</linearGradient>
<clipPath id="clip0_12959_38314">
<rect width="1250" height="134" fill="white"/>
</clipPath>
<clipPath id="clip1_12959_38314">
<rect width="113" height="169" fill="white" transform="translate(157 -21) rotate(90)"/>
</clipPath>
<clipPath id="clip2_12959_38314">
<rect width="177" height="99" fill="white" transform="matrix(1 0 0 -1 1038 67)"/>
</clipPath>
</defs>
</svg>
