<svg width="1250" height="134" viewBox="0 0 1250 134" fill="none" xmlns="http://www.w3.org/2000/svg">
<g clip-path="url(#clip0_12959_38514)">
<g opacity="0.1">
<path d="M239.929 70.9793C243.204 70.9793 245.858 68.5215 245.858 65.4896C245.858 62.4578 243.204 60 239.929 60C236.655 60 234 62.4578 234 65.4896C234 68.5215 236.655 70.9793 239.929 70.9793Z" fill="#4C1ADB"/>
<path d="M595.062 125.679C598.33 125.679 600.98 123.226 600.98 120.199C600.98 117.173 598.33 114.72 595.062 114.72C591.794 114.72 589.145 117.173 589.145 120.199C589.145 123.226 591.794 125.679 595.062 125.679Z" fill="#B095FF"/>
<path d="M348.633 49.4861C351.901 49.4861 354.55 47.033 354.55 44.007C354.55 40.9809 351.901 38.5278 348.633 38.5278C345.364 38.5278 342.715 40.9809 342.715 44.007C342.715 47.033 345.364 49.4861 348.633 49.4861Z" fill="#B095FF"/>
<path d="M214.976 84.4842C209.467 84.4842 205 80.3486 205 75.2474C205 70.1146 209.467 66 214.976 66C220.463 66 224.918 70.1146 224.918 75.2474C224.918 80.3591 220.474 84.4842 214.976 84.4842ZM214.976 67.9523C210.612 67.9523 207.052 71.2377 207.052 75.2474C207.052 79.257 210.612 82.5319 214.976 82.5319C219.318 82.5319 222.878 79.2465 222.878 75.2474C222.889 71.2272 219.318 67.9523 214.976 67.9523Z" fill="#2B14B5"/>
<path d="M600.224 15.8124C595.769 15.8124 592.152 12.4745 592.152 8.34943C592.152 4.19284 595.769 0.85498 600.224 0.85498C604.679 0.85498 608.284 4.18235 608.284 8.34943C608.273 12.4745 604.668 15.8124 600.224 15.8124ZM600.224 2.43994C596.687 2.43994 593.807 5.09554 593.807 8.34943C593.807 11.5928 596.698 14.2484 600.224 14.2484C603.75 14.2484 606.629 11.5928 606.629 8.34943C606.629 5.09554 603.738 2.43994 600.224 2.43994Z" fill="#2B14B5"/>
<path d="M432.235 96.8144C426.033 96.8144 421 92.1645 421 86.402C421 80.6289 426.033 76 432.235 76C438.424 76 443.446 80.6289 443.446 86.402C443.446 92.1645 438.424 96.8144 432.235 96.8144ZM432.235 78.1833C427.314 78.1833 423.301 81.8885 423.301 86.402C423.301 90.9364 427.314 94.6312 432.235 94.6312C437.132 94.6312 441.156 90.9259 441.156 86.402C441.156 81.878 437.121 78.1833 432.235 78.1833Z" fill="#4B3786"/>
<path d="M524.278 15.5397C519.823 15.5397 516.195 12.2018 516.195 8.06623C516.195 3.90964 519.823 0.582275 524.278 0.582275C528.722 0.582275 532.339 3.90964 532.339 8.06623C532.339 12.2018 528.734 15.5397 524.278 15.5397ZM524.278 2.15674C520.741 2.15674 517.862 4.81233 517.862 8.06623C517.862 11.3201 520.753 13.9757 524.278 13.9757C527.781 13.9757 530.672 11.3201 530.672 8.06623C530.672 4.81233 527.793 2.15674 524.278 2.15674Z" fill="#4B3786"/>
<path d="M363.118 124.814C358.663 124.814 355.035 121.476 355.035 117.341C355.035 113.184 358.663 109.857 363.118 109.857C367.562 109.857 371.178 113.184 371.178 117.341C371.178 121.476 367.573 124.814 363.118 124.814ZM363.118 111.431C359.581 111.431 356.702 114.087 356.702 117.341C356.702 120.595 359.592 123.25 363.118 123.25C366.621 123.25 369.512 120.595 369.512 117.341C369.512 114.087 366.632 111.431 363.118 111.431Z" fill="#4B3786"/>
<path d="M394.514 128.057C391.025 128.057 388.184 125.442 388.184 122.203C388.184 118.948 391.025 116.341 394.514 116.341C397.995 116.341 400.828 118.948 400.828 122.203C400.828 125.442 398.004 128.057 394.514 128.057ZM394.514 117.575C391.744 117.575 389.489 119.655 389.489 122.203C389.489 124.752 391.753 126.832 394.514 126.832C397.258 126.832 399.522 124.752 399.522 122.203C399.522 119.655 397.267 117.575 394.514 117.575Z" fill="#4B3786"/>
<path d="M551.366 19.5679C554.915 19.5049 557.681 19.2006 557.681 18.8122C557.681 18.4133 554.915 18.0984 551.355 18.0564C551.31 14.6556 550.879 12 550.335 12C549.802 12 549.382 14.6556 549.314 18.0564C545.777 18.0984 543 18.4133 543 18.8122C543 19.2006 545.777 19.4944 549.326 19.5574C549.394 22.9583 549.813 25.6034 550.346 25.6034C550.879 25.6139 551.31 22.9688 551.366 19.5679Z" fill="#B095FF"/>
<path d="M489.684 10.7637C495.681 10.6587 500.363 10.1444 500.363 9.49358C500.363 8.83231 495.681 8.29699 489.684 8.22352C489.582 2.46098 488.856 -2 487.949 -2C487.042 -2 486.317 2.46098 486.226 8.22352C480.229 8.2865 475.547 8.82181 475.547 9.49358C475.547 10.1549 480.229 10.6587 486.226 10.7637C486.317 16.5157 487.042 20.9872 487.949 20.9872C488.856 20.9767 489.582 16.5157 489.684 10.7637Z" fill="#B095FF"/>
<path d="M558.83 2.39816C559.114 2.66057 559.318 2.97546 559.363 3.21688L559.885 7.37346L564.362 8.02424C564.601 8.06623 564.952 8.26566 565.235 8.54906C565.53 8.81147 565.734 9.13686 565.757 9.36778L566.29 13.5244L570.768 14.1647C571.255 14.2486 572.094 15.0464 572.151 15.5082L572.695 19.6543L577.161 20.3051C577.638 20.3785 578.476 21.1868 578.556 21.6486L579.089 25.8052L583.555 26.456C583.941 26.4875 584.507 26.9493 584.78 27.3587C585.063 27.8205 584.995 28.1354 584.632 28.0829L578.919 27.2642C578.431 27.1907 577.581 26.393 577.502 25.9206L576.991 21.7641L572.502 21.1343C572.015 21.0503 571.164 20.2421 571.108 19.7802L570.575 15.6237L566.097 14.9939C565.836 14.9624 565.496 14.7525 565.235 14.469C564.941 14.1961 564.714 13.8917 564.703 13.6398L564.181 9.48325L559.692 8.85346C559.204 8.75899 558.365 7.96126 558.297 7.50992L557.617 2.15674C557.572 1.82086 557.923 1.76837 558.411 2.05178C558.547 2.15674 558.683 2.25121 558.83 2.39816Z" fill="#4B3786"/>
<path d="M443.475 111.332C443.832 111.5 444.13 111.741 444.254 111.958L446.135 115.761L450.61 115.096C450.851 115.068 451.252 115.157 451.616 115.345C451.983 115.51 452.286 115.761 452.384 115.974L454.276 119.774L458.748 119.099C459.24 119.039 460.303 119.557 460.511 119.98L462.41 123.767L466.875 123.105C467.352 123.039 468.419 123.567 468.649 123.983L470.54 127.783L475.005 127.121C475.382 127.041 476.075 127.318 476.47 127.629C476.894 127.987 476.934 128.306 476.571 128.36L470.865 129.22C470.377 129.29 469.302 128.775 469.069 128.348L467.199 124.542L462.72 125.23C462.228 125.29 461.15 124.765 460.943 124.342L459.051 120.542L454.582 121.227C454.324 121.272 453.931 121.17 453.588 120.975C453.217 120.8 452.9 120.576 452.805 120.339L450.924 116.536L446.445 117.224C445.95 117.274 444.886 116.756 444.671 116.346L442.24 111.45C442.085 111.144 442.402 110.993 442.96 111.123C443.125 111.184 443.285 111.235 443.475 111.332Z" fill="#4B3786"/>
<path d="M267.217 60.5299C267.5 60.7923 267.704 61.1072 267.75 61.3486L268.271 65.5052L272.749 66.156C272.987 66.1979 273.339 66.3974 273.622 66.6808C273.917 66.9432 274.121 67.2686 274.144 67.4995L274.676 71.6561L279.154 72.2964C279.642 72.3803 280.481 73.1781 280.537 73.6399L281.082 77.786L285.548 78.4368C286.024 78.5102 286.863 79.3185 286.943 79.7803L287.475 83.9369L291.942 84.5877C292.327 84.6192 292.894 85.081 293.166 85.4904C293.45 85.9522 293.382 86.2671 293.019 86.2146L287.305 85.3959C286.818 85.3224 285.968 84.5247 285.888 84.0524L285.378 79.8958L280.889 79.266C280.401 79.182 279.551 78.3738 279.494 77.912L278.962 73.7554L274.484 73.1256C274.223 73.0941 273.883 72.8842 273.622 72.6008C273.327 72.3279 273.101 72.0235 273.089 71.7715L272.568 67.615L268.079 66.9852C267.591 66.8907 266.752 66.093 266.684 65.6416L266.004 60.2885C265.959 59.9526 266.31 59.9001 266.797 60.1835C266.934 60.2885 267.07 60.3829 267.217 60.5299Z" fill="#4B3786"/>
<path d="M27.4216 36.8906C29.8723 36.8906 31.8589 35.0797 31.8589 32.8459C31.8589 30.612 29.8723 28.8011 27.4216 28.8011C24.971 28.8011 22.9844 30.612 22.9844 32.8459C22.9844 35.0797 24.971 36.8906 27.4216 36.8906Z" fill="#B095FF"/>
<path d="M-0.562738 73.4166C1.88789 73.4166 3.87452 71.6057 3.87452 69.3719C3.87452 67.138 1.88789 65.3271 -0.562738 65.3271C-3.01337 65.3271 -5 67.138 -5 69.3719C-5 71.6057 -3.01337 73.4166 -0.562738 73.4166Z" fill="#B095FF"/>
<path d="M51.621 8.19015C54.2313 8.19015 56.3474 6.26124 56.3474 3.88182C56.3474 1.50239 54.2313 -0.426514 51.621 -0.426514C49.0106 -0.426514 46.8945 1.50239 46.8945 3.88182C46.8945 6.26124 49.0106 8.19015 51.621 8.19015Z" fill="#4C1ADB"/>
<path d="M214.676 126.579C217.286 126.579 219.402 124.65 219.402 122.271C219.402 119.891 217.286 117.963 214.676 117.963C212.065 117.963 209.949 119.891 209.949 122.271C209.949 124.65 212.065 126.579 214.676 126.579Z" fill="#4C1ADB"/>
<path d="M107.065 48.3789C102.122 48.3789 98.1094 44.7296 98.1094 40.207C98.1094 35.6763 102.122 32.0435 107.065 32.0435C112 32.0435 116.003 35.6763 116.003 40.207C116.003 44.7296 112 48.3789 107.065 48.3789ZM107.065 33.7569C103.143 33.7569 99.9439 36.6648 99.9439 40.207C99.9439 43.7657 103.143 46.6654 107.065 46.6654C110.969 46.6654 114.177 43.7575 114.177 40.207C114.177 36.6566 110.96 33.7569 107.065 33.7569Z" fill="#4B3786"/>
<path d="M43.3993 58.4816C39.8477 58.4816 36.9648 55.8537 36.9648 52.6081C36.9648 49.3459 39.8477 46.7428 43.3993 46.7428C46.9419 46.7428 49.8248 49.3459 49.8248 52.6081C49.8248 55.8455 46.9419 58.4816 43.3993 58.4816ZM43.3993 47.9702C40.5797 47.9702 38.2843 50.0544 38.2843 52.6081C38.2843 55.17 40.5797 57.2459 43.3993 57.2459C46.2008 57.2459 48.5053 55.17 48.5053 52.6081C48.5053 50.0544 46.1918 47.9702 43.3993 47.9702Z" fill="#4B3786"/>
<path d="M12.8095 15.2248C9.25786 15.2248 6.375 12.6052 6.375 9.35958C6.375 6.09744 9.25786 3.48608 12.8095 3.48608C16.3521 3.48608 19.2349 6.09744 19.2349 9.35958C19.2349 12.597 16.3521 15.2248 12.8095 15.2248ZM12.8095 4.7135C9.98988 4.7135 7.69443 6.80589 7.69443 9.35134C7.69443 11.8968 9.99891 13.9892 12.8095 13.9892C15.611 13.9892 17.9155 11.905 17.9155 9.35134C17.9155 6.79765 15.602 4.7135 12.8095 4.7135Z" fill="#4B3786"/>
<path d="M4.7632 47.0886C7.59184 47.0474 9.80595 46.8085 9.80595 46.5037C9.80595 46.1907 7.60088 45.9518 4.7632 45.9106C4.71801 43.2416 4.3746 41.1656 3.94985 41.1656C3.5251 41.1656 3.18169 43.2416 3.1365 45.9106C0.298825 45.9435 -1.90625 46.1907 -1.90625 46.5037C-1.90625 46.8085 0.307862 47.0474 3.1365 47.0886C3.18169 49.7658 3.51607 51.8417 3.94985 51.8417C4.3746 51.8417 4.71801 49.7658 4.7632 47.0886Z" fill="#B095FF"/>
<path d="M103.723 8.01708C108.503 7.9347 112.236 7.53105 112.236 7.02031C112.236 6.50134 108.503 6.08121 103.723 6.02355C103.641 1.50103 103.063 -2 102.34 -2C101.617 -2 101.047 1.50103 100.966 6.02355C96.1765 6.08121 92.4531 6.50134 92.4531 7.02031C92.4531 7.53929 96.1855 7.9347 100.966 8.01708C101.038 12.5314 101.617 16.0406 102.34 16.0406C103.063 16.0324 103.641 12.5314 103.723 8.01708Z" fill="#B095FF"/>
<path d="M248.439 118.759C252.623 120.905 256.073 122.286 256.348 121.844C256.628 121.395 253.622 119.3 249.513 117.032C251.88 113.078 253.266 109.778 252.64 109.442C252.014 109.107 249.634 111.875 247.126 115.754C242.947 113.582 239.496 112.219 239.216 112.668C238.937 113.118 241.956 115.191 246.052 117.48C243.681 121.423 242.291 124.731 242.917 125.066C243.547 125.394 245.935 122.63 248.439 118.759Z" fill="#B095FF"/>
<path d="M69.1431 32.3421C73.9329 32.2597 77.6652 31.8561 77.6652 31.3371C77.6652 30.8181 73.9329 30.398 69.1431 30.3403C69.0709 25.826 68.4925 22.3168 67.7785 22.3168C67.0556 22.3168 66.4772 25.826 66.4049 30.3403C61.6061 30.398 57.8828 30.8181 57.8828 31.3371C57.8828 31.8561 61.6152 32.2597 66.3958 32.3421C66.4772 36.8481 67.0556 40.3574 67.7695 40.3574C68.4925 40.3574 69.0709 36.8481 69.1431 32.3421Z" fill="#B095FF"/>
<path d="M18.4494 55.6557C18.6753 55.8616 18.838 56.1005 18.8651 56.2982L19.2808 59.5604L22.8505 60.0711C23.0403 60.104 23.3204 60.2606 23.5554 60.483C23.7903 60.6889 23.944 60.9443 23.9711 61.1255L24.3958 64.3877L27.9655 64.8902C28.3541 64.9561 29.0229 65.5904 29.0771 65.9446L29.5018 69.2067L33.0715 69.7175C33.4511 69.7751 34.1289 70.4094 34.1921 70.7719L34.6169 74.034L38.1685 74.5365C38.4758 74.5612 38.9186 74.9155 39.1445 75.245C39.3704 75.6074 39.3162 75.8546 39.027 75.8051L34.4542 75.1708C34.0656 75.1132 33.3969 74.4789 33.3336 74.1164L32.9179 70.8543L29.3482 70.36C28.9596 70.2941 28.2818 69.6598 28.2366 69.3056L27.8119 66.0352L24.2422 65.5409C24.0343 65.5162 23.7632 65.3515 23.5463 65.1373C23.3204 64.9149 23.1306 64.676 23.1216 64.4783L22.7149 61.2161L19.1452 60.7219C18.7386 60.6477 18.0698 60.0134 18.0246 59.6592L17.4914 55.458C17.4553 55.2026 17.7354 55.1614 18.115 55.3756C18.2234 55.4662 18.3409 55.5404 18.4494 55.6557Z" fill="#4B3786"/>
<path d="M80.6443 76.0761C75.8064 76.0761 71.8672 72.3998 71.8672 67.845C71.8672 63.267 75.8064 59.6023 80.6443 59.6023C85.4698 59.6023 89.3967 63.267 89.3967 67.845C89.3967 72.3998 85.4821 76.0761 80.6443 76.0761ZM80.6443 61.3364C76.8035 61.3364 73.6768 64.2612 73.6768 67.845C73.6768 71.4287 76.8158 74.3535 80.6443 74.3535C84.4481 74.3535 87.5871 71.4287 87.5871 67.845C87.5871 64.2612 84.4604 61.3364 80.6443 61.3364Z" fill="#4B3786"/>
<path d="M337.665 10.638C340.966 10.638 343.642 8.17412 343.642 5.13479C343.642 2.09546 340.966 -0.368408 337.665 -0.368408C334.364 -0.368408 331.688 2.09546 331.688 5.13479C331.688 8.17412 334.364 10.638 337.665 10.638Z" fill="#4C1ADB"/>
<path d="M285.806 21.9754C289.107 21.9754 291.783 19.5115 291.783 16.4722C291.783 13.4329 289.107 10.969 285.806 10.969C282.504 10.969 279.828 13.4329 279.828 16.4722C279.828 19.5115 282.504 21.9754 285.806 21.9754Z" fill="#4C1ADB"/>
<path d="M495.513 124.106C498.814 124.106 501.49 121.642 501.49 118.602C501.49 115.563 498.814 113.099 495.513 113.099C492.211 113.099 489.535 115.563 489.535 118.602C489.535 121.642 492.211 124.106 495.513 124.106Z" fill="#4C1ADB"/>
<path d="M403.704 18.8716C407.011 18.8716 409.693 16.403 409.693 13.3579C409.693 10.3127 407.011 7.84412 403.704 7.84412C400.396 7.84412 397.715 10.3127 397.715 13.3579C397.715 16.403 400.396 18.8716 403.704 18.8716Z" fill="#B095FF"/>
<path d="M457.364 22.1399C460.665 22.1399 463.342 19.6761 463.342 16.6367C463.342 13.5974 460.665 11.1335 457.364 11.1335C454.063 11.1335 451.387 13.5974 451.387 16.6367C451.387 19.6761 454.063 22.1399 457.364 22.1399Z" fill="#4C1ADB"/>
<path d="M434.766 53.5283C426.384 53.5283 419.582 47.266 419.582 39.5383C419.582 31.7896 426.384 25.559 434.766 25.559C443.125 25.559 449.904 31.7896 449.904 39.5383C449.904 47.266 443.114 53.5283 434.766 53.5283ZM434.766 28.5003C428.124 28.5003 422.685 33.4764 422.685 39.5383C422.685 45.6214 428.124 50.5974 434.766 50.5974C441.362 50.5974 446.813 45.6214 446.813 39.5383C446.813 33.4764 441.362 28.5003 434.766 28.5003Z" fill="#2B14B5"/>
<path d="M366.387 22.7725C360.124 22.7725 355.051 18.1022 355.051 12.3249C355.051 6.51595 360.124 1.8667 366.387 1.8667C372.628 1.8667 377.701 6.51595 377.701 12.3249C377.701 18.1022 372.628 22.7725 366.387 22.7725ZM366.387 4.05954C361.418 4.05954 357.364 7.7916 357.364 12.3249C357.364 16.8582 361.429 20.5797 366.387 20.5797C371.323 20.5797 375.388 16.8687 375.388 12.3249C375.388 7.78106 371.323 4.05954 366.387 4.05954Z" fill="#2B14B5"/>
<path d="M380.278 61.0548C374.014 61.0548 368.941 56.3844 368.941 50.6071C368.941 44.7982 374.014 40.1489 380.278 40.1489C386.519 40.1489 391.592 44.7982 391.592 50.6071C391.592 56.3844 386.519 61.0548 380.278 61.0548ZM380.278 42.3418C375.308 42.3418 371.255 46.0738 371.255 50.6071C371.255 55.1404 375.32 58.8619 380.278 58.8619C385.213 58.8619 389.278 55.1509 389.278 50.6071C389.278 46.0633 385.213 42.3418 380.278 42.3418Z" fill="#2B14B5"/>
<path d="M311.029 57.4662C314.624 57.403 317.43 57.0972 317.43 56.7072C317.43 56.3171 314.624 56.0008 311.029 55.9481C310.96 52.5323 310.536 49.8756 309.998 49.8756C309.46 49.8756 309.013 52.5323 308.968 55.9481C305.372 56.0008 302.566 56.3171 302.566 56.7072C302.566 57.0972 305.36 57.403 308.968 57.4662C309.013 60.882 309.46 63.5387 309.998 63.5387C310.536 63.5387 310.96 60.882 311.029 57.4662Z" fill="#B095FF"/>
<path d="M330.555 119.791C333.049 117.388 334.8 115.332 334.502 115.056C334.205 114.78 331.98 116.397 329.398 118.718C326.745 116.348 324.421 114.747 324.04 115.1C323.66 115.453 325.369 117.625 327.94 120.07C325.438 122.466 323.695 124.53 323.992 124.806C324.29 125.082 326.498 123.465 329.097 121.144C331.733 123.529 334.074 125.114 334.455 124.761C334.835 124.408 333.11 122.252 330.555 119.791Z" fill="#B095FF"/>
<path d="M328.513 15.9589L328.261 24.0345C328.249 24.2453 328.055 24.3929 327.826 24.3929H327.746L319.18 22.7588L320.028 22.179L319.696 30.2124C319.673 30.6552 319.295 31.0242 318.768 31.0031L318.585 30.9715L310.031 29.2847L311.428 28.3358L311.027 36.4009C311.004 37.0229 310.397 37.5078 309.722 37.4762L309.458 37.4446L300.939 35.684L302.656 34.5243L301.488 42.5366C301.5 42.8845 301.191 43.2008 300.778 43.2008L300.549 43.1586L292.179 40.7128C292.121 40.6917 292.064 40.639 292.076 40.5652C292.133 40.5125 292.179 40.4808 292.236 40.4808L300.904 41.8197L299.965 42.4417L299.851 34.3662C299.851 33.6914 300.435 33.1432 301.179 33.1221L301.603 33.1749L310.054 35.1885L308.485 36.2427L309.172 28.2199C309.184 27.6506 309.71 27.2289 310.306 27.2289L310.569 27.271L319.02 29.3479L317.898 30.1281L318.653 22.0947C318.653 21.7468 318.963 21.4621 319.329 21.4516L319.489 21.5254L327.917 23.6339L327.425 23.9712L328.238 15.9589C328.249 15.9062 328.284 15.8429 328.387 15.8324C328.467 15.8535 328.501 15.9062 328.513 15.9589Z" fill="#471875"/>
<path d="M571.439 107.127L571.187 115.202C571.175 115.413 570.981 115.561 570.752 115.561H570.671L562.106 113.926L562.953 113.347L562.621 121.38C562.598 121.823 562.221 122.192 561.694 122.171L561.511 122.139L552.957 120.452L554.354 119.503L553.953 127.568C553.93 128.19 553.323 128.675 552.647 128.644L552.384 128.612L543.865 126.852L545.582 125.692L544.414 133.704C544.426 134.052 544.116 134.368 543.704 134.368L543.475 134.326L535.105 131.88C535.047 131.859 534.99 131.807 535.001 131.733C535.059 131.68 535.105 131.648 535.162 131.648L543.83 132.987L542.891 133.609L542.777 125.534C542.777 124.859 543.361 124.311 544.105 124.29L544.529 124.342L552.98 126.356L551.411 127.41L552.098 119.387C552.109 118.818 552.636 118.396 553.231 118.396L553.495 118.439L561.946 120.516L560.824 121.296L561.579 113.262C561.579 112.914 561.888 112.63 562.255 112.619L562.415 112.693L570.843 114.801L570.351 115.139L571.164 107.127C571.175 107.074 571.21 107.011 571.313 107C571.393 107.021 571.427 107.074 571.439 107.127Z" fill="#471875"/>
<path d="M142.01 14.6441C145.011 14.6441 147.443 12.3698 147.443 9.56425C147.443 6.75871 145.011 4.48438 142.01 4.48438C139.01 4.48438 136.578 6.75871 136.578 9.56425C136.578 12.3698 139.01 14.6441 142.01 14.6441Z" fill="#4C1ADB"/>
<path d="M287.014 129.743C290.014 129.743 292.447 127.469 292.447 124.663C292.447 121.858 290.014 119.583 287.014 119.583C284.014 119.583 281.582 121.858 281.582 124.663C281.582 127.469 284.014 129.743 287.014 129.743Z" fill="#4C1ADB"/>
<path d="M210.146 11.4215C213.152 11.4215 215.589 9.14282 215.589 6.33191C215.589 3.521 213.152 1.24231 210.146 1.24231C207.14 1.24231 204.703 3.521 204.703 6.33191C204.703 9.14282 207.14 11.4215 210.146 11.4215Z" fill="#B095FF"/>
<path d="M426.853 126.521C429.859 126.521 432.296 124.242 432.296 121.431C432.296 118.62 429.859 116.341 426.853 116.341C423.847 116.341 421.41 118.62 421.41 121.431C421.41 124.242 423.847 126.521 426.853 126.521Z" fill="#B095FF"/>
<path d="M242.916 31.9232C235.299 31.9232 229.117 26.1426 229.117 19.0094C229.117 11.8567 235.299 6.10535 242.916 6.10535C250.503 6.10535 256.674 11.8567 256.674 19.0094C256.674 26.1426 250.503 31.9232 242.916 31.9232ZM242.916 8.82045C236.881 8.82045 231.937 13.4137 231.937 19.0094C231.937 24.6245 236.881 29.2178 242.916 29.2178C248.911 29.2178 253.864 24.6245 253.864 19.0094C253.864 13.4137 248.911 8.82045 242.916 8.82045Z" fill="#2B14B5"/>
<path d="M120.651 130.811C113.033 130.811 106.852 125.031 106.852 117.898C106.852 110.745 113.033 104.994 120.651 104.994C128.237 104.994 134.409 110.745 134.409 117.898C134.409 125.031 128.237 130.811 120.651 130.811ZM120.651 107.709C114.615 107.709 109.672 112.302 109.672 117.898C109.672 123.513 114.615 128.106 120.651 128.106C126.645 128.106 131.599 123.513 131.599 117.898C131.599 112.302 126.645 107.709 120.651 107.709Z" fill="#2B14B5"/>
<path d="M176.615 25.403C170.923 25.403 166.312 21.0919 166.312 15.759C166.312 10.397 170.923 6.10535 176.615 6.10535C182.287 6.10535 186.897 10.397 186.897 15.759C186.897 21.0919 182.287 25.403 176.615 25.403ZM176.615 8.12951C172.099 8.12951 168.415 11.5745 168.415 15.759C168.415 19.9436 172.109 23.3789 176.615 23.3789C181.1 23.3789 184.795 19.9533 184.795 15.759C184.795 11.5647 181.1 8.12951 176.615 8.12951Z" fill="#2B14B5"/>
<path d="M125.516 84.6405C129.065 84.6405 131.942 81.9387 131.942 78.6059C131.942 75.2731 129.065 72.5713 125.516 72.5713C121.967 72.5713 119.09 75.2731 119.09 78.6059C119.09 81.9387 121.967 84.6405 125.516 84.6405Z" fill="#B095FF"/>
<path d="M7.19927 129.539C0.465666 129.539 -5 124.418 -5 118.071C-5 111.713 0.465666 106.615 7.19927 106.615C13.9206 106.615 19.3739 111.713 19.3739 118.071C19.3739 124.418 13.9206 129.539 7.19927 129.539ZM7.19927 109.019C1.8567 109.019 -2.50106 113.1 -2.50106 118.071C-2.50106 123.065 1.8567 127.135 7.19927 127.135C12.5172 127.135 16.8873 123.054 16.8873 118.071C16.8873 113.089 12.5049 109.019 7.19927 109.019Z" fill="#4B3786"/>
<path d="M28.5692 92.2544C32.4223 92.1851 35.4259 91.8498 35.4259 91.4221C35.4259 90.9828 32.4223 90.636 28.5569 90.5897C28.5077 86.8441 28.0399 83.9193 27.449 83.9193C26.8704 83.9193 26.4149 86.8441 26.3411 90.5897C22.5003 90.636 19.4844 90.9828 19.4844 91.4221C19.4844 91.8498 22.5003 92.1735 26.3534 92.2429C26.4273 95.9885 26.8827 98.9017 27.4613 98.9017C28.0399 98.9133 28.5077 96.0001 28.5692 92.2544Z" fill="#B095FF"/>
<path d="M81.9756 97.9769C88.4877 97.8613 93.5717 97.2948 93.5717 96.5781C93.5717 95.8498 88.4877 95.2602 81.9756 95.1793C81.8649 88.8325 81.077 83.9193 80.0922 83.9193C79.1074 83.9193 78.3196 88.8325 78.2211 95.1793C71.7091 95.2486 66.625 95.8382 66.625 96.5781C66.625 97.3064 71.7091 97.8613 78.2211 97.9769C78.3196 104.312 79.1074 109.237 80.0922 109.237C81.077 109.225 81.8649 104.312 81.9756 97.9769Z" fill="#B095FF"/>
<path d="M507.351 88.0576C513.863 87.942 518.947 87.3755 518.947 86.6588C518.947 85.9305 513.863 85.3409 507.351 85.2599C507.24 78.9132 506.452 74 505.467 74C504.482 74 503.695 78.9132 503.596 85.2599C497.084 85.3293 492 85.9189 492 86.6588C492 87.3871 497.084 87.942 503.596 88.0576C503.695 94.3928 504.482 99.3175 505.467 99.3175C506.452 99.306 507.24 94.3928 507.351 88.0576Z" fill="#B095FF"/>
<path d="M172.839 89.8712C179.351 89.7556 184.435 89.1891 184.435 88.4724C184.435 87.7441 179.351 87.1545 172.839 87.0735C172.728 80.7268 171.94 75.8136 170.955 75.8136C169.971 75.8136 169.183 80.7268 169.084 87.0735C162.572 87.1429 157.488 87.7325 157.488 88.4724C157.488 89.2007 162.572 89.7556 169.084 89.8712C169.183 96.2064 169.971 101.131 170.955 101.131C171.94 101.12 172.728 96.2064 172.839 89.8712Z" fill="#B095FF"/>
<path d="M48.759 100.714C49.0667 101.003 49.2883 101.35 49.3375 101.616L49.9038 106.194L54.7663 106.91C55.0248 106.957 55.4064 107.176 55.7141 107.488C56.0342 107.777 56.2558 108.136 56.2804 108.39L56.859 112.968L61.7214 113.673C62.2508 113.766 63.1617 114.644 63.2233 115.153L63.8142 119.719L68.6643 120.436C69.1813 120.517 70.0923 121.407 70.1785 121.916L70.757 126.494L75.6072 127.211C76.0257 127.245 76.6412 127.754 76.9367 128.205C77.2444 128.713 77.1706 129.06 76.7767 129.002L70.5724 128.101C70.0431 128.02 69.1198 127.141 69.0336 126.621L68.4797 122.043L63.6049 121.349C63.0756 121.257 62.1523 120.367 62.0908 119.858L61.5122 115.28L56.6497 114.586C56.3666 114.552 55.9973 114.321 55.7141 114.008C55.3941 113.708 55.1479 113.373 55.1356 113.095L54.5693 108.517L49.6945 107.824C49.1652 107.72 48.2542 106.841 48.1804 106.344L47.4418 100.448C47.3925 100.078 47.7741 100.02 48.3035 100.332C48.4512 100.448 48.5989 100.552 48.759 100.714Z" fill="#4B3786"/>
<path d="M197.323 111.971L193.655 119.298C193.555 119.488 193.313 119.552 193.103 119.468L193.029 119.439L185.855 114.8L186.88 114.578L183.156 121.837C182.947 122.236 182.442 122.436 181.967 122.224L181.813 122.128L174.671 117.445L176.359 117.085L172.558 124.348C172.272 124.911 171.508 125.135 170.901 124.858L170.673 124.733L163.594 119.995L165.666 119.558L161.183 126.492C161.046 126.816 160.627 126.993 160.248 126.842L160.056 126.719L153.406 121.407C153.362 121.366 153.332 121.297 153.374 121.233C153.449 121.206 153.505 121.193 153.557 121.214L160.952 125.619L159.824 125.847L163.156 118.385C163.443 117.766 164.213 117.476 164.906 117.729L165.273 117.933L172.18 122.878L170.29 123.272L174.336 116.152C174.588 115.633 175.252 115.439 175.799 115.657L176.023 115.792L182.903 120.796L181.54 121.101L185.653 113.997C185.802 113.678 186.207 113.529 186.548 113.654L186.664 113.78L193.51 118.804L192.914 118.934L197.071 111.87C197.104 111.826 197.162 111.781 197.261 111.809C197.326 111.857 197.335 111.918 197.323 111.971Z" fill="#471875"/>
<path d="M333.976 97.4531C324.6 97.4531 317 90.4159 317 81.7355C317 73.0015 324.6 66 333.976 66C343.312 66 350.893 73.0015 350.893 81.7355C350.893 90.4338 343.332 97.4531 333.976 97.4531ZM333.976 69.3221C326.549 69.3221 320.492 74.9126 320.492 81.7355C320.492 88.5584 326.549 94.131 333.976 94.131C341.364 94.131 347.421 88.5405 347.421 81.7355C347.44 74.8947 341.364 69.3221 333.976 69.3221Z" fill="#2B14B5"/>
</g>
<g opacity="0.1">
<path d="M1175.97 60.6951C1179.25 60.6951 1181.9 58.2373 1181.9 55.2054C1181.9 52.1736 1179.25 49.7158 1175.97 49.7158C1172.7 49.7158 1170.04 52.1736 1170.04 55.2054C1170.04 58.2373 1172.7 60.6951 1175.97 60.6951Z" fill="#4C1ADB"/>
<path d="M1044.93 87.9793C1048.2 87.9793 1050.86 85.5215 1050.86 82.4896C1050.86 79.4578 1048.2 77 1044.93 77C1041.65 77 1039 79.4578 1039 82.4896C1039 85.5215 1041.65 87.9793 1044.93 87.9793Z" fill="#4C1ADB"/>
<path d="M1158.68 38.4112C1161.95 38.4112 1164.6 35.9581 1164.6 32.932C1164.6 29.906 1161.95 27.4529 1158.68 27.4529C1155.42 27.4529 1152.77 29.906 1152.77 32.932C1152.77 35.9581 1155.42 38.4112 1158.68 38.4112Z" fill="#B095FF"/>
<path d="M1225.06 125.679C1228.33 125.679 1230.98 123.226 1230.98 120.199C1230.98 117.173 1228.33 114.72 1225.06 114.72C1221.79 114.72 1219.14 117.173 1219.14 120.199C1219.14 123.226 1221.79 125.679 1225.06 125.679Z" fill="#B095FF"/>
<path d="M978.633 49.4861C981.901 49.4861 984.55 47.033 984.55 44.007C984.55 40.9809 981.901 38.5278 978.633 38.5278C975.364 38.5278 972.715 40.9809 972.715 44.007C972.715 47.033 975.364 49.4861 978.633 49.4861Z" fill="#B095FF"/>
<path d="M1211.85 70.9503C1206.34 70.9503 1201.87 66.8147 1201.87 61.7134C1201.87 56.5807 1206.34 52.4661 1211.85 52.4661C1217.33 52.4661 1221.79 56.5807 1221.79 61.7134C1221.79 66.8252 1217.35 70.9503 1211.85 70.9503ZM1211.85 54.4184C1207.48 54.4184 1203.92 57.7038 1203.92 61.7134C1203.92 65.7231 1207.48 68.9979 1211.85 68.9979C1216.19 68.9979 1219.75 65.7126 1219.75 61.7134C1219.76 57.6933 1216.19 54.4184 1211.85 54.4184Z" fill="#2B14B5"/>
<path d="M1230.22 15.8124C1225.77 15.8124 1222.15 12.4745 1222.15 8.34943C1222.15 4.19284 1225.77 0.85498 1230.22 0.85498C1234.68 0.85498 1238.28 4.18235 1238.28 8.34943C1238.27 12.4745 1234.67 15.8124 1230.22 15.8124ZM1230.22 2.43994C1226.69 2.43994 1223.81 5.09554 1223.81 8.34943C1223.81 11.5928 1226.7 14.2484 1230.22 14.2484C1233.75 14.2484 1236.63 11.5928 1236.63 8.34943C1236.63 5.09554 1233.74 2.43994 1230.22 2.43994Z" fill="#2B14B5"/>
<path d="M1120.28 60.9633C1114.08 60.9633 1109.04 56.3134 1109.04 50.5509C1109.04 44.7779 1114.08 40.1489 1120.28 40.1489C1126.47 40.1489 1131.49 44.7779 1131.49 50.5509C1131.49 56.3134 1126.47 60.9633 1120.28 60.9633ZM1120.28 42.3322C1115.36 42.3322 1111.34 46.0374 1111.34 50.5509C1111.34 55.0853 1115.36 58.7801 1120.28 58.7801C1125.17 58.7801 1129.2 55.0748 1129.2 50.5509C1129.2 46.0269 1125.16 42.3322 1120.28 42.3322Z" fill="#4B3786"/>
<path d="M1154.28 15.5397C1149.82 15.5397 1146.2 12.2018 1146.2 8.06623C1146.2 3.90964 1149.82 0.582275 1154.28 0.582275C1158.72 0.582275 1162.34 3.90964 1162.34 8.06623C1162.34 12.2018 1158.73 15.5397 1154.28 15.5397ZM1154.28 2.15674C1150.74 2.15674 1147.86 4.81233 1147.86 8.06623C1147.86 11.3201 1150.75 13.9757 1154.28 13.9757C1157.78 13.9757 1160.67 11.3201 1160.67 8.06623C1160.67 4.81233 1157.79 2.15674 1154.28 2.15674Z" fill="#4B3786"/>
<path d="M993.118 124.814C988.663 124.814 985.035 121.476 985.035 117.341C985.035 113.184 988.663 109.857 993.118 109.857C997.562 109.857 1001.18 113.184 1001.18 117.341C1001.18 121.476 997.573 124.814 993.118 124.814ZM993.118 111.431C989.581 111.431 986.702 114.087 986.702 117.341C986.702 120.595 989.592 123.25 993.118 123.25C996.621 123.25 999.512 120.595 999.512 117.341C999.512 114.087 996.632 111.431 993.118 111.431Z" fill="#4B3786"/>
<path d="M1024.51 128.057C1021.02 128.057 1018.18 125.442 1018.18 122.203C1018.18 118.948 1021.02 116.341 1024.51 116.341C1028 116.341 1030.83 118.948 1030.83 122.203C1030.83 125.442 1028 128.057 1024.51 128.057ZM1024.51 117.575C1021.74 117.575 1019.49 119.655 1019.49 122.203C1019.49 124.752 1021.75 126.832 1024.51 126.832C1027.26 126.832 1029.52 124.752 1029.52 122.203C1029.52 119.655 1027.27 117.575 1024.51 117.575Z" fill="#4B3786"/>
<path d="M1238.15 43.4181C1244.15 43.3131 1248.83 42.7988 1248.83 42.1375C1248.83 41.4762 1244.15 40.9409 1238.15 40.8674C1238.05 35.1154 1237.34 30.6439 1236.43 30.6439C1235.53 30.6439 1234.79 35.1154 1234.71 40.8674C1228.72 40.9409 1224.02 41.4762 1224.02 42.1375C1224.02 42.7988 1228.72 43.3131 1234.71 43.4181C1234.79 49.1596 1235.52 53.6311 1236.41 53.6311C1237.33 53.6311 1238.05 49.1596 1238.15 43.4181Z" fill="#B095FF"/>
<path d="M1188.48 30.0982C1192.02 30.0352 1194.79 29.7308 1194.79 29.3425C1194.79 28.9436 1192.02 28.6287 1188.46 28.5867C1188.42 25.1859 1187.99 22.5303 1187.44 22.5303C1186.91 22.5303 1186.49 25.1859 1186.42 28.5867C1182.89 28.6287 1180.11 28.9436 1180.11 29.3425C1180.11 29.7308 1182.89 30.0247 1186.44 30.0877C1186.5 33.4885 1186.92 36.1336 1187.46 36.1336C1187.99 36.1441 1188.42 33.499 1188.48 30.0982Z" fill="#B095FF"/>
<path d="M1119.68 10.7637C1125.68 10.6587 1130.36 10.1444 1130.36 9.49358C1130.36 8.83231 1125.68 8.29699 1119.68 8.22352C1119.58 2.46098 1118.86 -2 1117.95 -2C1117.04 -2 1116.32 2.46098 1116.23 8.22352C1110.23 8.2865 1105.55 8.82181 1105.55 9.49358C1105.55 10.1549 1110.23 10.6587 1116.23 10.7637C1116.32 16.5157 1117.04 20.9872 1117.95 20.9872C1118.86 20.9767 1119.58 16.5157 1119.68 10.7637Z" fill="#B095FF"/>
<path d="M1188.83 2.39816C1189.11 2.66057 1189.32 2.97546 1189.36 3.21688L1189.88 7.37346L1194.36 8.02424C1194.6 8.06623 1194.95 8.26566 1195.24 8.54906C1195.53 8.81147 1195.73 9.13686 1195.76 9.36778L1196.29 13.5244L1200.77 14.1647C1201.26 14.2486 1202.09 15.0464 1202.15 15.5082L1202.69 19.6543L1207.16 20.3051C1207.64 20.3785 1208.48 21.1868 1208.56 21.6486L1209.09 25.8052L1213.56 26.456C1213.94 26.4875 1214.51 26.9493 1214.78 27.3587C1215.06 27.8205 1214.99 28.1354 1214.63 28.0829L1208.92 27.2642C1208.43 27.1907 1207.58 26.393 1207.5 25.9206L1206.99 21.7641L1202.5 21.1343C1202.01 21.0503 1201.16 20.2421 1201.11 19.7802L1200.57 15.6237L1196.1 14.9939C1195.84 14.9624 1195.5 14.7525 1195.24 14.469C1194.94 14.1961 1194.71 13.8917 1194.7 13.6398L1194.18 9.48325L1189.69 8.85346C1189.2 8.75899 1188.37 7.96126 1188.3 7.50992L1187.62 2.15674C1187.57 1.82086 1187.92 1.76837 1188.41 2.05178C1188.55 2.15674 1188.68 2.25121 1188.83 2.39816Z" fill="#4B3786"/>
<path d="M1073.47 111.332C1073.83 111.5 1074.13 111.741 1074.25 111.958L1076.14 115.761L1080.61 115.096C1080.85 115.068 1081.25 115.157 1081.62 115.345C1081.98 115.51 1082.29 115.761 1082.38 115.974L1084.28 119.774L1088.75 119.099C1089.24 119.039 1090.3 119.557 1090.51 119.98L1092.41 123.767L1096.87 123.105C1097.35 123.039 1098.42 123.567 1098.65 123.983L1100.54 127.783L1105 127.121C1105.38 127.041 1106.07 127.318 1106.47 127.629C1106.89 127.987 1106.93 128.306 1106.57 128.36L1100.86 129.22C1100.38 129.29 1099.3 128.775 1099.07 128.348L1097.2 124.542L1092.72 125.23C1092.23 125.29 1091.15 124.765 1090.94 124.342L1089.05 120.542L1084.58 121.227C1084.32 121.272 1083.93 121.17 1083.59 120.975C1083.22 120.8 1082.9 120.576 1082.81 120.339L1080.92 116.536L1076.44 117.224C1075.95 117.274 1074.89 116.756 1074.67 116.346L1072.24 111.45C1072.09 111.144 1072.4 110.993 1072.96 111.123C1073.12 111.184 1073.29 111.235 1073.47 111.332Z" fill="#4B3786"/>
<path d="M1181.97 73.1012C1182.25 73.3636 1182.45 73.6785 1182.5 73.9199L1183.02 78.0765L1187.5 78.7272C1187.74 78.7692 1188.09 78.9687 1188.37 79.2521C1188.67 79.5145 1188.87 79.8399 1188.89 80.0708L1189.43 84.2274L1193.9 84.8677C1194.39 84.9516 1195.23 85.7494 1195.29 86.2112L1195.83 90.3573L1200.3 91.0081C1200.77 91.0815 1201.61 91.8898 1201.69 92.3516L1202.23 96.5082L1206.69 97.159C1207.08 97.1905 1207.64 97.6523 1207.92 98.0617C1208.2 98.5235 1208.13 98.8384 1207.77 98.7859L1202.06 97.9672C1201.57 97.8937 1200.72 97.096 1200.64 96.6236L1200.13 92.4671L1195.64 91.8373C1195.15 91.7533 1194.3 90.9451 1194.24 90.4832L1193.71 86.3267L1189.23 85.6969C1188.97 85.6654 1188.63 85.4555 1188.37 85.1721C1188.08 84.8991 1187.85 84.5947 1187.84 84.3428L1187.32 80.1862L1182.83 79.5565C1182.34 79.462 1181.5 78.6643 1181.43 78.2129L1180.75 72.8597C1180.71 72.5239 1181.06 72.4714 1181.55 72.7548C1181.68 72.8597 1181.82 72.9542 1181.97 73.1012Z" fill="#4B3786"/>
<path d="M657.422 36.8906C659.872 36.8906 661.859 35.0797 661.859 32.8459C661.859 30.612 659.872 28.8011 657.422 28.8011C654.971 28.8011 652.984 30.612 652.984 32.8459C652.984 35.0797 654.971 36.8906 657.422 36.8906Z" fill="#B095FF"/>
<path d="M681.621 8.19015C684.231 8.19015 686.347 6.26124 686.347 3.88182C686.347 1.50239 684.231 -0.426514 681.621 -0.426514C679.011 -0.426514 676.895 1.50239 676.895 3.88182C676.895 6.26124 679.011 8.19015 681.621 8.19015Z" fill="#4C1ADB"/>
<path d="M844.676 126.579C847.286 126.579 849.402 124.65 849.402 122.271C849.402 119.891 847.286 117.963 844.676 117.963C842.065 117.963 839.949 119.891 839.949 122.271C839.949 124.65 842.065 126.579 844.676 126.579Z" fill="#4C1ADB"/>
<path d="M737.065 48.3789C732.122 48.3789 728.109 44.7296 728.109 40.207C728.109 35.6763 732.122 32.0435 737.065 32.0435C742 32.0435 746.003 35.6763 746.003 40.207C746.003 44.7296 742 48.3789 737.065 48.3789ZM737.065 33.7569C733.143 33.7569 729.944 36.6648 729.944 40.207C729.944 43.7657 733.143 46.6654 737.065 46.6654C740.969 46.6654 744.177 43.7575 744.177 40.207C744.177 36.6566 740.96 33.7569 737.065 33.7569Z" fill="#4B3786"/>
<path d="M878.434 96.7388C874.883 96.7388 872 94.1109 872 90.8653C872 87.6031 874.883 85 878.434 85C881.977 85 884.86 87.6031 884.86 90.8653C884.86 94.1027 881.977 96.7388 878.434 96.7388ZM878.434 86.2274C875.615 86.2274 873.319 88.3116 873.319 90.8653C873.319 93.4272 875.615 95.5031 878.434 95.5031C881.236 95.5031 883.54 93.4272 883.54 90.8653C883.54 88.3116 881.227 86.2274 878.434 86.2274Z" fill="#4B3786"/>
<path d="M642.809 15.2248C639.258 15.2248 636.375 12.6052 636.375 9.35958C636.375 6.09744 639.258 3.48608 642.809 3.48608C646.352 3.48608 649.235 6.09744 649.235 9.35958C649.235 12.597 646.352 15.2248 642.809 15.2248ZM642.809 4.7135C639.99 4.7135 637.694 6.80589 637.694 9.35134C637.694 11.8968 639.999 13.9892 642.809 13.9892C645.611 13.9892 647.915 11.905 647.915 9.35134C647.915 6.79765 645.602 4.7135 642.809 4.7135Z" fill="#4B3786"/>
<path d="M634.763 47.0886C637.592 47.0474 639.806 46.8085 639.806 46.5037C639.806 46.1907 637.601 45.9518 634.763 45.9106C634.718 43.2416 634.375 41.1656 633.95 41.1656C633.525 41.1656 633.182 43.2416 633.137 45.9106C630.299 45.9435 628.094 46.1907 628.094 46.5037C628.094 46.8085 630.308 47.0474 633.137 47.0886C633.182 49.7658 633.516 51.8417 633.95 51.8417C634.375 51.8417 634.718 49.7658 634.763 47.0886Z" fill="#B095FF"/>
<path d="M733.723 8.01708C738.503 7.9347 742.236 7.53105 742.236 7.02031C742.236 6.50134 738.503 6.08121 733.723 6.02355C733.641 1.50103 733.063 -2 732.34 -2C731.617 -2 731.047 1.50103 730.966 6.02355C726.176 6.08121 722.453 6.50134 722.453 7.02031C722.453 7.53929 726.185 7.9347 730.966 8.01708C731.038 12.5314 731.617 16.0406 732.34 16.0406C733.063 16.0324 733.641 12.5314 733.723 8.01708Z" fill="#B095FF"/>
<path d="M878.439 118.759C882.623 120.905 886.073 122.286 886.348 121.844C886.628 121.395 883.622 119.3 879.513 117.032C881.88 113.078 883.266 109.778 882.64 109.442C882.014 109.107 879.634 111.875 877.126 115.754C872.947 113.582 869.496 112.219 869.216 112.668C868.937 113.118 871.956 115.191 876.052 117.48C873.681 121.423 872.291 124.731 872.917 125.066C873.547 125.394 875.935 122.63 878.439 118.759Z" fill="#B095FF"/>
<path d="M699.143 32.3421C703.933 32.2597 707.665 31.8561 707.665 31.3371C707.665 30.8181 703.933 30.398 699.143 30.3403C699.071 25.826 698.492 22.3168 697.779 22.3168C697.056 22.3168 696.477 25.826 696.405 30.3403C691.606 30.398 687.883 30.8181 687.883 31.3371C687.883 31.8561 691.615 32.2597 696.396 32.3421C696.477 36.8481 697.056 40.3574 697.769 40.3574C698.492 40.3574 699.071 36.8481 699.143 32.3421Z" fill="#B095FF"/>
<path d="M845.961 48.418C846.187 48.624 846.35 48.8628 846.377 49.0606L846.793 52.3227L850.362 52.8334C850.552 52.8664 850.832 53.0229 851.067 53.2453C851.302 53.4513 851.456 53.7066 851.483 53.8879L851.908 57.15L855.477 57.6525C855.866 57.7184 856.535 58.3527 856.589 58.7069L857.014 61.9691L860.583 62.4798C860.963 62.5375 861.641 63.1718 861.704 63.5342L862.129 66.7964L865.68 67.2989C865.987 67.3236 866.43 67.6778 866.656 68.0073C866.882 68.3698 866.828 68.6169 866.539 68.5675L861.966 67.9332C861.577 67.8755 860.909 67.2412 860.845 66.8787L860.43 63.6166L856.86 63.1223C856.471 63.0564 855.794 62.4221 855.748 62.0679L855.324 58.7975L851.754 58.3033C851.546 58.2786 851.275 58.1138 851.058 57.8996C850.832 57.6772 850.642 57.4383 850.633 57.2406L850.227 53.9785L846.657 53.4842C846.25 53.4101 845.582 52.7758 845.536 52.4215L845.003 48.2203C844.967 47.9649 845.247 47.9237 845.627 48.1379C845.735 48.2285 845.853 48.3027 845.961 48.418Z" fill="#4B3786"/>
<path d="M952.777 79.4738C947.939 79.4738 944 75.7975 944 71.2427C944 66.6647 947.939 63 952.777 63C957.603 63 961.53 66.6647 961.53 71.2427C961.53 75.7975 957.615 79.4738 952.777 79.4738ZM952.777 64.7341C948.936 64.7341 945.81 67.6589 945.81 71.2427C945.81 74.8264 948.949 77.7512 952.777 77.7512C956.581 77.7512 959.72 74.8264 959.72 71.2427C959.72 67.6589 956.593 64.7341 952.777 64.7341Z" fill="#4B3786"/>
<path d="M967.665 10.638C970.966 10.638 973.642 8.17412 973.642 5.13479C973.642 2.09546 970.966 -0.368408 967.665 -0.368408C964.364 -0.368408 961.688 2.09546 961.688 5.13479C961.688 8.17412 964.364 10.638 967.665 10.638Z" fill="#4C1ADB"/>
<path d="M915.806 21.9754C919.107 21.9754 921.783 19.5115 921.783 16.4722C921.783 13.4329 919.107 10.969 915.806 10.969C912.504 10.969 909.828 13.4329 909.828 16.4722C909.828 19.5115 912.504 21.9754 915.806 21.9754Z" fill="#4C1ADB"/>
<path d="M1125.51 124.106C1128.81 124.106 1131.49 121.642 1131.49 118.602C1131.49 115.563 1128.81 113.099 1125.51 113.099C1122.21 113.099 1119.54 115.563 1119.54 118.602C1119.54 121.642 1122.21 124.106 1125.51 124.106Z" fill="#4C1ADB"/>
<path d="M1033.7 18.8716C1037.01 18.8716 1039.69 16.403 1039.69 13.3579C1039.69 10.3127 1037.01 7.84412 1033.7 7.84412C1030.4 7.84412 1027.71 10.3127 1027.71 13.3579C1027.71 16.403 1030.4 18.8716 1033.7 18.8716Z" fill="#B095FF"/>
<path d="M1087.36 22.1399C1090.67 22.1399 1093.34 19.6761 1093.34 16.6367C1093.34 13.5974 1090.67 11.1335 1087.36 11.1335C1084.06 11.1335 1081.39 13.5974 1081.39 16.6367C1081.39 19.6761 1084.06 22.1399 1087.36 22.1399Z" fill="#4C1ADB"/>
<path d="M1064.77 53.5283C1056.38 53.5283 1049.58 47.266 1049.58 39.5383C1049.58 31.7896 1056.38 25.559 1064.77 25.559C1073.13 25.559 1079.9 31.7896 1079.9 39.5383C1079.9 47.266 1073.11 53.5283 1064.77 53.5283ZM1064.77 28.5003C1058.12 28.5003 1052.69 33.4764 1052.69 39.5383C1052.69 45.6214 1058.12 50.5974 1064.77 50.5974C1071.36 50.5974 1076.81 45.6214 1076.81 39.5383C1076.81 33.4764 1071.36 28.5003 1064.77 28.5003Z" fill="#2B14B5"/>
<path d="M996.387 22.7725C990.124 22.7725 985.051 18.1022 985.051 12.3249C985.051 6.51595 990.124 1.8667 996.387 1.8667C1002.63 1.8667 1007.7 6.51595 1007.7 12.3249C1007.7 18.1022 1002.63 22.7725 996.387 22.7725ZM996.387 4.05954C991.418 4.05954 987.364 7.7916 987.364 12.3249C987.364 16.8582 991.429 20.5797 996.387 20.5797C1001.32 20.5797 1005.39 16.8687 1005.39 12.3249C1005.39 7.78106 1001.32 4.05954 996.387 4.05954Z" fill="#2B14B5"/>
<path d="M1010.28 61.0548C1004.01 61.0548 998.941 56.3844 998.941 50.6071C998.941 44.7982 1004.01 40.1489 1010.28 40.1489C1016.52 40.1489 1021.59 44.7982 1021.59 50.6071C1021.59 56.3844 1016.52 61.0548 1010.28 61.0548ZM1010.28 42.3418C1005.31 42.3418 1001.25 46.0738 1001.25 50.6071C1001.25 55.1404 1005.32 58.8619 1010.28 58.8619C1015.21 58.8619 1019.28 55.1509 1019.28 50.6071C1019.28 46.0633 1015.21 42.3418 1010.28 42.3418Z" fill="#2B14B5"/>
<path d="M941.029 57.4662C944.624 57.403 947.43 57.0972 947.43 56.7072C947.43 56.3171 944.624 56.0008 941.029 55.9481C940.96 52.5323 940.536 49.8756 939.998 49.8756C939.46 49.8756 939.013 52.5323 938.968 55.9481C935.372 56.0008 932.566 56.3171 932.566 56.7072C932.566 57.0972 935.36 57.403 938.968 57.4662C939.013 60.882 939.46 63.5387 939.998 63.5387C940.536 63.5387 940.96 60.882 941.029 57.4662Z" fill="#B095FF"/>
<path d="M960.555 119.791C963.049 117.388 964.8 115.332 964.502 115.056C964.205 114.78 961.98 116.397 959.398 118.718C956.745 116.348 954.421 114.747 954.04 115.1C953.66 115.453 955.369 117.625 957.94 120.07C955.438 122.466 953.695 124.53 953.992 124.806C954.29 125.082 956.498 123.465 959.097 121.144C961.733 123.529 964.074 125.114 964.455 124.761C964.835 124.408 963.11 122.252 960.555 119.791Z" fill="#B095FF"/>
<path d="M958.513 15.9589L958.261 24.0345C958.249 24.2453 958.055 24.3929 957.826 24.3929H957.746L949.18 22.7588L950.028 22.179L949.696 30.2124C949.673 30.6552 949.295 31.0242 948.768 31.0031L948.585 30.9715L940.031 29.2847L941.428 28.3358L941.027 36.4009C941.004 37.0229 940.397 37.5078 939.722 37.4762L939.458 37.4446L930.939 35.684L932.656 34.5243L931.488 42.5366C931.5 42.8845 931.191 43.2008 930.778 43.2008L930.549 43.1586L922.179 40.7128C922.121 40.6917 922.064 40.639 922.076 40.5652C922.133 40.5125 922.179 40.4808 922.236 40.4808L930.904 41.8197L929.965 42.4417L929.851 34.3662C929.851 33.6914 930.435 33.1432 931.179 33.1221L931.603 33.1749L940.054 35.1885L938.485 36.2427L939.172 28.2199C939.184 27.6506 939.71 27.2289 940.306 27.2289L940.569 27.271L949.02 29.3479L947.898 30.1281L948.653 22.0947C948.653 21.7468 948.963 21.4621 949.329 21.4516L949.489 21.5254L957.917 23.6339L957.425 23.9712L958.238 15.9589C958.249 15.9062 958.284 15.8429 958.387 15.8324C958.467 15.8535 958.501 15.9062 958.513 15.9589Z" fill="#471875"/>
<path d="M830.439 47.1265L830.187 55.2021C830.175 55.4129 829.981 55.5605 829.752 55.5605H829.671L821.106 53.9264L821.953 53.3466L821.621 61.38C821.598 61.8228 821.221 62.1918 820.694 62.1707L820.511 62.1391L811.957 60.4523L813.354 59.5034L812.953 67.5685C812.93 68.1905 812.323 68.6754 811.647 68.6438L811.384 68.6122L802.865 66.8516L804.582 65.6919L803.414 73.7042C803.426 74.0521 803.116 74.3684 802.704 74.3684L802.475 74.3262L794.105 71.8804C794.047 71.8593 793.99 71.8066 794.001 71.7328C794.059 71.6801 794.105 71.6484 794.162 71.6484L802.83 72.9873L801.891 73.6093L801.777 65.5338C801.777 64.859 802.361 64.3108 803.105 64.2897L803.529 64.3425L811.98 66.3561L810.411 67.4103L811.098 59.3875C811.109 58.8182 811.636 58.3965 812.231 58.3965L812.495 58.4386L820.946 60.5155L819.824 61.2957L820.579 53.2623C820.579 52.9144 820.888 52.6297 821.255 52.6192L821.415 52.693L829.843 54.8015L829.351 55.1388L830.164 47.1265C830.175 47.0738 830.21 47.0105 830.313 47C830.393 47.0211 830.427 47.0738 830.439 47.1265Z" fill="#471875"/>
<path d="M1199.63 101.878L1199.37 109.954C1199.36 110.164 1199.17 110.312 1198.94 110.312H1198.86L1190.29 108.678L1191.14 108.098L1190.81 116.131C1190.79 116.574 1190.41 116.943 1189.88 116.922L1189.7 116.891L1181.14 115.204L1182.54 114.255L1182.14 122.32C1182.12 122.942 1181.51 123.427 1180.83 123.395L1180.57 123.364L1172.05 121.603L1173.77 120.443L1172.6 128.456C1172.61 128.804 1172.3 129.12 1171.89 129.12L1171.66 129.078L1163.29 126.632C1163.23 126.611 1163.18 126.558 1163.19 126.484C1163.25 126.432 1163.29 126.4 1163.35 126.4L1172.02 127.739L1171.08 128.361L1170.96 120.285C1170.96 119.611 1171.55 119.062 1172.29 119.041L1172.72 119.094L1181.17 121.108L1179.6 122.162L1180.29 114.139C1180.3 113.57 1180.82 113.148 1181.42 113.148L1181.68 113.19L1190.13 115.267L1189.01 116.047L1189.77 108.014C1189.77 107.666 1190.08 107.381 1190.44 107.371L1190.6 107.444L1199.03 109.553L1198.54 109.89L1199.35 101.878C1199.36 101.825 1199.4 101.762 1199.5 101.751C1199.58 101.773 1199.61 101.825 1199.63 101.878Z" fill="#471875"/>
<path d="M772.01 14.6441C775.011 14.6441 777.443 12.3698 777.443 9.56425C777.443 6.75871 775.011 4.48438 772.01 4.48438C769.01 4.48438 766.578 6.75871 766.578 9.56425C766.578 12.3698 769.01 14.6441 772.01 14.6441Z" fill="#4C1ADB"/>
<path d="M917.014 129.743C920.014 129.743 922.447 127.469 922.447 124.663C922.447 121.858 920.014 119.583 917.014 119.583C914.014 119.583 911.582 121.858 911.582 124.663C911.582 127.469 914.014 129.743 917.014 129.743Z" fill="#4C1ADB"/>
<path d="M840.146 11.4215C843.152 11.4215 845.589 9.14282 845.589 6.33191C845.589 3.521 843.152 1.24231 840.146 1.24231C837.14 1.24231 834.703 3.521 834.703 6.33191C834.703 9.14282 837.14 11.4215 840.146 11.4215Z" fill="#B095FF"/>
<path d="M817.443 71.1792C820.449 71.1792 822.885 68.9005 822.885 66.0896C822.885 63.2787 820.449 61 817.443 61C814.437 61 812 63.2787 812 66.0896C812 68.9005 814.437 71.1792 817.443 71.1792Z" fill="#B095FF"/>
<path d="M1056.85 126.521C1059.86 126.521 1062.3 124.242 1062.3 121.431C1062.3 118.62 1059.86 116.341 1056.85 116.341C1053.85 116.341 1051.41 118.62 1051.41 121.431C1051.41 124.242 1053.85 126.521 1056.85 126.521Z" fill="#B095FF"/>
<path d="M872.916 31.9232C865.299 31.9232 859.117 26.1426 859.117 19.0094C859.117 11.8567 865.299 6.10535 872.916 6.10535C880.503 6.10535 886.674 11.8567 886.674 19.0094C886.674 26.1426 880.503 31.9232 872.916 31.9232ZM872.916 8.82045C866.881 8.82045 861.937 13.4137 861.937 19.0094C861.937 24.6245 866.881 29.2178 872.916 29.2178C878.911 29.2178 883.864 24.6245 883.864 19.0094C883.864 13.4137 878.911 8.82045 872.916 8.82045Z" fill="#2B14B5"/>
<path d="M750.651 130.811C743.033 130.811 736.852 125.031 736.852 117.898C736.852 110.745 743.033 104.994 750.651 104.994C758.237 104.994 764.409 110.745 764.409 117.898C764.409 125.031 758.237 130.811 750.651 130.811ZM750.651 107.709C744.615 107.709 739.672 112.302 739.672 117.898C739.672 123.513 744.615 128.106 750.651 128.106C756.645 128.106 761.599 123.513 761.599 117.898C761.599 112.302 756.645 107.709 750.651 107.709Z" fill="#2B14B5"/>
<path d="M806.615 25.403C800.923 25.403 796.312 21.0919 796.312 15.759C796.312 10.397 800.923 6.10535 806.615 6.10535C812.287 6.10535 816.897 10.397 816.897 15.759C816.897 21.0919 812.287 25.403 806.615 25.403ZM806.615 8.12951C802.099 8.12951 798.415 11.5745 798.415 15.759C798.415 19.9436 802.109 23.3789 806.615 23.3789C811.1 23.3789 814.795 19.9533 814.795 15.759C814.795 11.5647 811.1 8.12951 806.615 8.12951Z" fill="#2B14B5"/>
<path d="M640.199 135.925C633.466 135.925 628 130.803 628 124.456C628 118.098 633.466 113 640.199 113C646.921 113 652.374 118.098 652.374 124.456C652.374 130.803 646.921 135.925 640.199 135.925ZM640.199 115.405C634.857 115.405 630.499 119.485 630.499 124.456C630.499 129.451 634.857 133.52 640.199 133.52C645.517 133.52 649.887 129.439 649.887 124.456C649.887 119.474 645.505 115.405 640.199 115.405Z" fill="#4B3786"/>
<path d="M1147.13 89.8712C1153.64 89.7556 1158.73 89.1891 1158.73 88.4724C1158.73 87.7441 1153.64 87.1545 1147.13 87.0735C1147.02 80.7268 1146.23 75.8136 1145.25 75.8136C1144.26 75.8136 1143.48 80.7268 1143.38 87.0735C1136.87 87.1429 1131.78 87.7325 1131.78 88.4724C1131.78 89.2007 1136.87 89.7556 1143.38 89.8712C1143.48 96.2064 1144.26 101.131 1145.25 101.131C1146.23 101.12 1147.02 96.2064 1147.13 89.8712Z" fill="#B095FF"/>
<path d="M765.351 82.0576C771.863 81.942 776.947 81.3755 776.947 80.6588C776.947 79.9305 771.863 79.3409 765.351 79.2599C765.24 72.9132 764.452 68 763.467 68C762.482 68 761.695 72.9132 761.596 79.2599C755.084 79.3293 750 79.9189 750 80.6588C750 81.3871 755.084 81.942 761.596 82.0576C761.695 88.3928 762.482 93.3175 763.467 93.3175C764.452 93.306 765.24 88.3928 765.351 82.0576Z" fill="#B095FF"/>
<path d="M683.321 110.584C683.629 110.873 683.851 111.219 683.9 111.485L684.466 116.063L689.329 116.78C689.587 116.826 689.969 117.046 690.277 117.358C690.597 117.647 690.818 118.005 690.843 118.26L691.421 122.838L696.284 123.543C696.813 123.635 697.724 124.514 697.786 125.023L698.377 129.589L703.227 130.306C703.744 130.387 704.655 131.277 704.741 131.786L705.32 136.364L710.17 137.08C710.588 137.115 711.204 137.624 711.499 138.074C711.807 138.583 711.733 138.93 711.339 138.872L705.135 137.97C704.606 137.89 703.682 137.011 703.596 136.491L703.042 131.913L698.167 131.219C697.638 131.127 696.715 130.236 696.653 129.728L696.075 125.15L691.212 124.456C690.929 124.422 690.56 124.19 690.277 123.878C689.957 123.578 689.71 123.242 689.698 122.965L689.132 118.387L684.257 117.693C683.728 117.589 682.817 116.711 682.743 116.214L682.004 110.318C681.955 109.948 682.337 109.89 682.866 110.202C683.014 110.318 683.161 110.422 683.321 110.584Z" fill="#4B3786"/>
<path d="M827.323 111.971L823.655 119.298C823.555 119.488 823.313 119.552 823.103 119.468L823.029 119.439L815.855 114.8L816.88 114.578L813.156 121.837C812.947 122.236 812.442 122.436 811.967 122.224L811.813 122.128L804.671 117.445L806.359 117.085L802.558 124.348C802.272 124.911 801.508 125.135 800.901 124.858L800.673 124.733L793.594 119.995L795.666 119.558L791.183 126.492C791.046 126.816 790.627 126.993 790.248 126.842L790.056 126.719L783.406 121.407C783.362 121.366 783.332 121.297 783.374 121.233C783.449 121.206 783.505 121.193 783.557 121.214L790.952 125.619L789.824 125.847L793.156 118.385C793.443 117.766 794.213 117.476 794.906 117.729L795.273 117.933L802.18 122.878L800.29 123.272L804.336 116.152C804.588 115.633 805.252 115.439 805.799 115.657L806.023 115.792L812.903 120.796L811.54 121.101L815.653 113.997C815.802 113.678 816.207 113.529 816.548 113.654L816.664 113.78L823.51 118.804L822.914 118.934L827.071 111.87C827.104 111.826 827.162 111.781 827.261 111.809C827.326 111.857 827.335 111.918 827.323 111.971Z" fill="#471875"/>
<path d="M1237.87 110.509C1228.49 110.509 1220.89 103.472 1220.89 94.7912C1220.89 86.0572 1228.49 79.0557 1237.87 79.0557C1247.21 79.0557 1254.79 86.0572 1254.79 94.7912C1254.79 103.489 1247.23 110.509 1237.87 110.509ZM1237.87 82.3778C1230.44 82.3778 1224.39 87.9683 1224.39 94.7912C1224.39 101.614 1230.44 107.187 1237.87 107.187C1245.26 107.187 1251.32 101.596 1251.32 94.7912C1251.33 87.9504 1245.26 82.3778 1237.87 82.3778Z" fill="#2B14B5"/>
</g>
<path d="M544.216 92H538.84L548.216 70.56H555.064L564.504 92H559L556.984 87.264H546.264L544.216 92ZM550.136 78.272L548.12 82.944H555.128L553.112 78.272L551.8 74.944H551.448L550.136 78.272ZM574.808 92.32C569.304 92.32 565.784 89.056 565.784 84C565.784 78.88 569.304 75.648 574.808 75.648C579.96 75.648 583.48 78.4 583.48 82.56V83.008H578.712V82.752C578.712 80.704 577.208 79.968 574.712 79.968C571.864 79.968 570.552 81.024 570.552 84C570.552 86.944 571.864 88 574.712 88C577.208 88 578.712 87.264 578.712 85.216V84.96H583.48V85.408C583.48 89.536 579.96 92.32 574.808 92.32ZM594.729 92.32C589.225 92.32 585.705 89.056 585.705 84C585.705 78.88 589.225 75.648 594.729 75.648C599.881 75.648 603.401 78.4 603.401 82.56V83.008H598.633V82.752C598.633 80.704 597.129 79.968 594.633 79.968C591.785 79.968 590.473 81.024 590.473 84C590.473 86.944 591.785 88 594.633 88C597.129 88 598.633 87.264 598.633 85.216V84.96H603.401V85.408C603.401 89.536 599.881 92.32 594.729 92.32ZM614.618 92.32C609.274 92.32 605.626 89.696 605.626 84C605.626 78.88 609.242 75.648 614.522 75.648C619.77 75.648 623.258 78.4 623.258 83.424C623.258 84 623.194 84.416 623.13 84.96H610.074C610.202 87.424 611.354 88.48 614.458 88.48C617.306 88.48 618.298 87.744 618.298 86.368V86.048H623.098V86.4C623.098 89.888 619.706 92.32 614.618 92.32ZM614.426 79.392C611.578 79.392 610.362 80.352 610.138 82.432H618.65C618.522 80.32 617.242 79.392 614.426 79.392ZM634.03 92.32C628.622 92.32 625.646 90.208 625.646 86.496V86.4H630.446V86.688C630.446 88.128 631.342 88.512 634.062 88.512C636.622 88.512 637.23 88.096 637.23 87.136C637.23 86.24 636.75 85.984 634.862 85.728L630.35 85.184C627.15 84.832 625.358 83.392 625.358 80.704C625.358 77.888 627.758 75.648 633.262 75.648C638.51 75.648 641.486 77.632 641.486 81.536V81.632H636.686V81.44C636.686 80.128 636.046 79.456 633.102 79.456C630.702 79.456 630.094 79.872 630.094 80.896C630.094 81.728 630.542 82.08 632.654 82.336L636.078 82.752C640.366 83.232 641.966 84.672 641.966 87.328C641.966 90.336 638.99 92.32 634.03 92.32ZM652.638 92.32C647.23 92.32 644.254 90.208 644.254 86.496V86.4H649.054V86.688C649.054 88.128 649.95 88.512 652.67 88.512C655.23 88.512 655.838 88.096 655.838 87.136C655.838 86.24 655.358 85.984 653.47 85.728L648.958 85.184C645.758 84.832 643.966 83.392 643.966 80.704C643.966 77.888 646.366 75.648 651.87 75.648C657.118 75.648 660.094 77.632 660.094 81.536V81.632H655.294V81.44C655.294 80.128 654.654 79.456 651.71 79.456C649.31 79.456 648.702 79.872 648.702 80.896C648.702 81.728 649.15 82.08 651.262 82.336L654.686 82.752C658.974 83.232 660.574 84.672 660.574 87.328C660.574 90.336 657.598 92.32 652.638 92.32ZM671.695 92.32C666.223 92.32 662.543 89.056 662.543 84C662.543 78.88 666.223 75.648 671.695 75.648C677.167 75.648 680.847 78.88 680.847 84C680.847 89.056 677.167 92.32 671.695 92.32ZM671.695 88.064C674.927 88.064 676.079 86.816 676.079 84C676.079 81.184 674.927 79.872 671.695 79.872C668.431 79.872 667.311 81.184 667.311 84C667.311 86.816 668.431 88.064 671.695 88.064ZM688.247 92H683.447V75.968H687.895V80.224H688.183C688.631 77.632 690.327 75.648 693.559 75.648C697.143 75.648 698.615 78.112 698.615 81.248V83.904H693.815V82.24C693.815 80.48 693.111 79.712 691.159 79.712C689.015 79.712 688.247 80.704 688.247 82.72V92ZM705.794 74.336H700.994V70.56H705.794V74.336ZM705.794 92H700.994V75.968H705.794V92ZM717.458 92.32C712.114 92.32 708.466 89.696 708.466 84C708.466 78.88 712.082 75.648 717.362 75.648C722.61 75.648 726.098 78.4 726.098 83.424C726.098 84 726.034 84.416 725.97 84.96H712.914C713.042 87.424 714.194 88.48 717.298 88.48C720.146 88.48 721.138 87.744 721.138 86.368V86.048H725.938V86.4C725.938 89.888 722.546 92.32 717.458 92.32ZM717.266 79.392C714.418 79.392 713.202 80.352 712.978 82.432H721.49C721.362 80.32 720.082 79.392 717.266 79.392ZM736.87 92.32C731.462 92.32 728.486 90.208 728.486 86.496V86.4H733.286V86.688C733.286 88.128 734.182 88.512 736.902 88.512C739.462 88.512 740.07 88.096 740.07 87.136C740.07 86.24 739.59 85.984 737.702 85.728L733.19 85.184C729.99 84.832 728.198 83.392 728.198 80.704C728.198 77.888 730.598 75.648 736.102 75.648C741.35 75.648 744.326 77.632 744.326 81.536V81.632H739.526V81.44C739.526 80.128 738.886 79.456 735.942 79.456C733.542 79.456 732.934 79.872 732.934 80.896C732.934 81.728 733.382 82.08 735.494 82.336L738.918 82.752C743.206 83.232 744.806 84.672 744.806 87.328C744.806 90.336 741.83 92.32 736.87 92.32Z" fill="#B095FF"/>
<path d="M534.486 38.192C535.038 38.744 535.283 39.2807 535.222 39.802C535.161 40.3233 534.915 40.8753 534.486 41.458C534.394 41.5807 534.241 41.642 534.026 41.642C533.781 41.642 533.535 41.5347 533.29 41.32C533.075 41.1053 533.045 40.8447 533.198 40.538C533.505 40.0167 533.673 39.5873 533.704 39.25C533.765 38.9127 533.535 38.5907 533.014 38.284C532.677 38.1 532.232 37.962 531.68 37.87C531.159 37.778 530.607 37.7167 530.024 37.686C529.441 37.6247 528.859 37.594 528.276 37.594C527.724 37.5633 527.233 37.5633 526.804 37.594C525.731 37.6553 524.565 37.8393 523.308 38.146C522.081 38.422 520.824 38.8053 519.536 39.296C518.279 39.756 517.037 40.2927 515.81 40.906C514.583 41.4887 513.464 42.1173 512.452 42.792C511.44 43.4667 510.566 44.1567 509.83 44.862C509.094 45.5673 508.588 46.2573 508.312 46.932C508.159 47.2693 508.128 47.5147 508.22 47.668C508.343 47.7907 508.649 47.852 509.14 47.852C509.6 47.852 510.244 47.806 511.072 47.714C511.9 47.5913 512.973 47.4073 514.292 47.162C514.997 47.0393 515.427 47.0853 515.58 47.3C515.764 47.484 515.779 47.622 515.626 47.714C515.258 47.9593 514.798 48.174 514.246 48.358C513.725 48.542 513.173 48.6953 512.59 48.818C512.038 48.91 511.486 49.002 510.934 49.094C510.382 49.1553 509.891 49.2013 509.462 49.232C508.726 49.324 507.975 49.2167 507.208 48.91C506.288 48.542 505.782 48.0053 505.69 47.3C505.629 46.564 505.905 45.7513 506.518 44.862C507.162 43.9727 508.082 43.0527 509.278 42.102C510.474 41.1513 511.854 40.2773 513.418 39.48C515.013 38.652 516.745 37.9313 518.616 37.318C520.487 36.7047 522.403 36.2907 524.366 36.076C524.703 36.0147 525.025 35.9993 525.332 36.03C525.669 36.0607 526.007 36.076 526.344 36.076C526.988 36.0453 527.678 36.0607 528.414 36.122C529.181 36.1527 529.932 36.2447 530.668 36.398C531.435 36.5513 532.155 36.7813 532.83 37.088C533.505 37.364 534.057 37.732 534.486 38.192ZM519.306 50.796C519.735 50.7347 520.134 50.6887 520.502 50.658C520.901 50.5967 521.284 50.566 521.652 50.566C522.204 50.566 522.741 50.658 523.262 50.842C523.783 50.9953 524.305 51.3327 524.826 51.854C524.979 52.0073 525.117 52.176 525.24 52.36C525.363 52.5133 525.363 52.6667 525.24 52.82C525.117 53.004 524.949 53.0653 524.734 53.004C524.611 52.9733 524.504 52.958 524.412 52.958C524.32 52.958 524.228 52.9273 524.136 52.866C523.983 52.7433 523.814 52.6667 523.63 52.636C523.477 52.6053 523.308 52.59 523.124 52.59C522.787 52.59 522.434 52.636 522.066 52.728C521.453 52.8507 520.855 53.004 520.272 53.188C519.72 53.372 519.153 53.5713 518.57 53.786C518.233 53.9087 518.018 54.154 517.926 54.522C517.681 55.8407 517.451 57.144 517.236 58.432C517.021 59.6893 516.837 60.962 516.684 62.25C516.531 63.5073 516.408 64.7953 516.316 66.114C516.255 67.4327 516.239 68.7973 516.27 70.208C516.27 70.484 516.285 70.7447 516.316 70.99C516.347 71.2353 516.439 71.4653 516.592 71.68C516.684 71.8333 516.699 71.956 516.638 72.048C516.577 72.1707 516.469 72.232 516.316 72.232C516.071 72.2627 515.825 72.2473 515.58 72.186C515.335 72.1553 515.105 72.048 514.89 71.864C514.553 71.5267 514.277 71.174 514.062 70.806C513.878 70.4687 513.755 70.07 513.694 69.61C513.602 68.69 513.556 67.6167 513.556 66.39C513.587 65.1633 513.648 63.9213 513.74 62.664C513.832 61.4067 513.939 60.18 514.062 58.984C514.215 57.788 514.369 56.7607 514.522 55.902C514.522 55.81 514.491 55.718 514.43 55.626C514.001 55.7487 513.633 55.8713 513.326 55.994C513.019 56.1167 512.743 56.2393 512.498 56.362C512.283 56.4847 512.069 56.592 511.854 56.684C511.67 56.7453 511.455 56.776 511.21 56.776C510.811 56.776 510.428 56.6993 510.06 56.546C509.692 56.3927 509.401 56.132 509.186 55.764C509.033 55.488 509.079 55.2273 509.324 54.982C509.569 54.706 509.891 54.43 510.29 54.154C511.271 53.4793 512.084 53.004 512.728 52.728C513.372 52.452 513.893 52.2527 514.292 52.13C514.691 51.9767 514.982 51.8387 515.166 51.716C515.35 51.5627 515.488 51.302 515.58 50.934C515.764 50.2593 515.948 49.554 516.132 48.818C516.347 48.0513 516.561 47.3153 516.776 46.61C517.021 45.874 517.251 45.184 517.466 44.54C517.711 43.8653 517.926 43.2827 518.11 42.792C518.263 42.3933 518.401 42.1633 518.524 42.102C518.677 42.01 518.938 42.01 519.306 42.102C519.613 42.1633 519.873 42.3013 520.088 42.516C520.333 42.7 520.425 42.9607 520.364 43.298C520.272 44.034 520.211 44.5707 520.18 44.908C520.149 45.2453 520.088 45.598 519.996 45.966C519.935 46.3033 519.827 46.7787 519.674 47.392C519.521 47.9747 519.275 48.8947 518.938 50.152C518.846 50.52 518.815 50.7347 518.846 50.796C518.877 50.8573 519.03 50.8573 519.306 50.796ZM528.197 62.618C527.584 62.6487 527.108 62.3727 526.771 61.79C526.526 61.3607 526.388 60.9313 526.357 60.502C526.296 60.042 526.357 59.582 526.541 59.122C526.786 58.5087 527.108 57.9107 527.507 57.328C527.875 56.7147 528.32 56.1627 528.841 55.672C529.362 55.1813 529.93 54.7827 530.543 54.476C531.156 54.1693 531.816 54.016 532.521 54.016C532.797 53.9853 533.042 54.0313 533.257 54.154C533.502 54.246 533.732 54.3687 533.947 54.522C534.131 54.6753 534.254 54.752 534.315 54.752C534.376 54.752 534.468 54.6753 534.591 54.522C534.867 54.2153 535.204 54.154 535.603 54.338C536.216 54.614 536.569 54.9053 536.661 55.212C536.753 55.5187 536.676 55.9787 536.431 56.592C536.216 57.2053 535.894 58.0333 535.465 59.076C535.066 60.1187 534.683 61.4987 534.315 63.216C534.254 63.4307 534.208 63.6453 534.177 63.86C534.177 64.044 534.146 64.2433 534.085 64.458C534.085 64.55 534.085 64.642 534.085 64.734C534.085 64.826 534.116 64.918 534.177 65.01C534.514 64.8567 534.99 64.412 535.603 63.676C536.247 62.94 536.906 62.112 537.581 61.192C538.256 60.2413 538.9 59.306 539.513 58.386C540.157 57.4353 540.632 56.684 540.939 56.132C541.062 55.9173 541.261 55.81 541.537 55.81C541.782 55.81 541.982 55.8867 542.135 56.04C542.319 56.1933 542.35 56.3927 542.227 56.638C541.951 57.2207 541.537 57.972 540.985 58.892C540.464 59.7813 539.896 60.7013 539.283 61.652C538.67 62.572 538.056 63.446 537.443 64.274C536.86 65.0713 536.339 65.6847 535.879 66.114C535.388 66.574 534.79 66.804 534.085 66.804C533.533 66.804 533.027 66.6507 532.567 66.344C532.138 66.0067 531.892 65.516 531.831 64.872C531.77 64.044 531.816 63.262 531.969 62.526C532.122 61.7593 532.306 60.9927 532.521 60.226C532.03 60.6553 531.524 61.054 531.003 61.422C530.574 61.698 530.098 61.9587 529.577 62.204C529.086 62.4493 528.626 62.5873 528.197 62.618ZM528.841 60.64C529.178 60.456 529.562 60.1647 529.991 59.766C530.42 59.3367 530.834 58.892 531.233 58.432C531.662 57.972 532.061 57.5273 532.429 57.098C532.797 56.638 533.073 56.3007 533.257 56.086C533.472 55.8713 533.487 55.6567 533.303 55.442C533.15 55.258 532.828 55.3653 532.337 55.764C531.877 56.1627 531.386 56.6687 530.865 57.282C530.344 57.8953 529.868 58.524 529.439 59.168C529.04 59.812 528.841 60.3027 528.841 60.64ZM545.514 61.192C545.361 61.1 545.131 61.0233 544.824 60.962C544.548 60.87 544.241 60.778 543.904 60.686C543.597 60.5633 543.275 60.4253 542.938 60.272C542.601 60.1187 542.294 59.95 542.018 59.766C541.619 59.4593 541.359 59.0607 541.236 58.57C541.083 58.0793 541.113 57.5733 541.328 57.052C541.451 56.684 541.742 56.27 542.202 55.81C542.662 55.3193 543.183 54.8593 543.766 54.43C544.349 53.97 544.931 53.5867 545.514 53.28C546.127 52.9733 546.649 52.82 547.078 52.82C547.753 52.82 548.335 53.1727 548.826 53.878C549.163 54.3993 549.163 54.9667 548.826 55.58C548.642 55.9173 548.412 56.2393 548.136 56.546C547.891 56.822 547.63 57.0827 547.354 57.328C547.323 57.3587 547.247 57.374 547.124 57.374C547.032 57.374 546.94 57.3587 546.848 57.328C546.756 57.2667 546.695 57.19 546.664 57.098C546.664 57.006 546.725 56.8833 546.848 56.73C547.032 56.454 547.216 56.1473 547.4 55.81C547.584 55.4727 547.707 55.1353 547.768 54.798C547.799 54.4913 547.691 54.3687 547.446 54.43C547.047 54.522 546.526 54.7673 545.882 55.166C545.238 55.534 544.655 55.9633 544.134 56.454C543.613 56.9447 543.214 57.42 542.938 57.88C542.693 58.3093 542.754 58.616 543.122 58.8C543.306 58.892 543.551 58.984 543.858 59.076C544.165 59.168 544.502 59.26 544.87 59.352C545.238 59.444 545.606 59.5513 545.974 59.674C546.342 59.766 546.664 59.8887 546.94 60.042C547.063 60.1647 547.231 60.1493 547.446 59.996C547.507 59.9347 547.799 59.72 548.32 59.352C548.872 58.984 549.455 58.57 550.068 58.11C550.681 57.65 551.264 57.236 551.816 56.868C552.368 56.4693 552.69 56.224 552.782 56.132C552.997 55.9787 553.211 56.0093 553.426 56.224C553.671 56.408 553.702 56.592 553.518 56.776C553.426 56.868 553.119 57.1133 552.598 57.512C552.077 57.9107 551.509 58.34 550.896 58.8C550.313 59.26 549.777 59.6893 549.286 60.088C548.795 60.456 548.519 60.6707 548.458 60.732C548.274 60.8853 548.182 60.9773 548.182 61.008C548.182 61.0387 548.228 61.1307 548.32 61.284C548.627 61.7133 548.734 62.158 548.642 62.618C548.581 63.078 548.381 63.5687 548.044 64.09C547.86 64.3967 547.615 64.6727 547.308 64.918C547.032 65.1633 546.725 65.3933 546.388 65.608C546.051 65.8227 545.698 66.0067 545.33 66.16C544.962 66.3133 544.64 66.436 544.364 66.528C544.057 66.62 543.705 66.666 543.306 66.666C542.938 66.6353 542.616 66.5433 542.34 66.39C542.064 66.2367 541.88 66.022 541.788 65.746C541.665 65.47 541.727 65.1327 541.972 64.734C542.248 64.2433 542.585 63.7987 542.984 63.4C543.413 62.9707 543.812 62.6027 544.18 62.296C544.548 61.9893 544.855 61.744 545.1 61.56C545.376 61.3453 545.514 61.2227 545.514 61.192ZM546.94 62.112C546.756 62.204 546.48 62.4033 546.112 62.71C545.744 62.986 545.361 63.308 544.962 63.676C544.594 64.044 544.257 64.3967 543.95 64.734C543.643 65.0407 543.459 65.2553 543.398 65.378C543.551 65.4087 543.904 65.3167 544.456 65.102C545.039 64.8567 545.606 64.504 546.158 64.044C546.434 63.7987 546.649 63.5073 546.802 63.17C546.986 62.802 547.032 62.4493 546.94 62.112ZM560.064 55.81C559.665 56.3007 559.251 56.868 558.822 57.512C558.485 58.0947 558.086 58.8153 557.626 59.674C557.166 60.502 556.691 61.468 556.2 62.572C555.955 63.0933 555.771 63.5073 555.648 63.814C555.525 64.09 555.495 64.412 555.556 64.78C555.587 65.148 555.418 65.3013 555.05 65.24C554.621 65.1787 554.268 64.9947 553.992 64.688C553.716 64.3507 553.547 63.9827 553.486 63.584C553.302 62.4187 553.225 61.3147 553.256 60.272C553.287 59.2293 553.363 58.248 553.486 57.328C553.609 56.408 553.762 55.5647 553.946 54.798C554.13 54.0007 554.283 53.28 554.406 52.636C554.467 52.2987 554.667 51.5627 555.004 50.428C555.341 49.2933 555.755 48.036 556.246 46.656C556.767 45.2453 557.335 43.8653 557.948 42.516C558.561 41.136 559.175 40.0627 559.788 39.296C560.125 38.8973 560.493 38.56 560.892 38.284C561.291 37.9773 561.72 37.9313 562.18 38.146C562.977 38.4833 563.499 38.9127 563.744 39.434C564.02 39.9247 564.127 40.538 564.066 41.274C564.035 42.3167 563.867 43.3287 563.56 44.31C563.253 45.2607 562.885 46.196 562.456 47.116C561.996 48.0973 561.536 48.956 561.076 49.692C560.647 50.3973 560.202 51.0413 559.742 51.624C559.313 52.2067 558.868 52.7587 558.408 53.28C557.979 53.7707 557.503 54.292 556.982 54.844C556.89 54.936 556.783 55.1967 556.66 55.626C556.537 56.0553 556.415 56.5153 556.292 57.006C556.2 57.466 556.123 57.8953 556.062 58.294C556.001 58.662 555.985 58.8613 556.016 58.892C556.384 58.248 556.767 57.5733 557.166 56.868C557.595 56.132 558.132 55.396 558.776 54.66C559.052 54.3227 559.343 54.016 559.65 53.74C559.987 53.4333 560.371 53.326 560.8 53.418C561.475 53.5713 561.919 53.786 562.134 54.062C562.349 54.3073 562.441 54.6753 562.41 55.166C562.379 55.4113 562.303 55.856 562.18 56.5C562.057 57.1133 561.935 57.7573 561.812 58.432C561.72 59.1067 561.643 59.7047 561.582 60.226C561.521 60.7167 561.551 60.962 561.674 60.962C561.797 60.962 562.027 60.824 562.364 60.548C562.732 60.2413 563.131 59.858 563.56 59.398C563.989 58.938 564.434 58.4167 564.894 57.834C565.385 57.2513 565.829 56.6687 566.228 56.086C566.412 55.81 566.673 55.6873 567.01 55.718C567.286 55.7793 567.424 55.9327 567.424 56.178C567.424 56.3927 567.347 56.638 567.194 56.914C566.765 57.6193 566.351 58.202 565.952 58.662C565.553 59.122 565.093 59.6587 564.572 60.272C563.897 61.0387 563.345 61.6213 562.916 62.02C562.517 62.388 561.981 62.5567 561.306 62.526C560.877 62.526 560.524 62.4187 560.248 62.204C559.972 61.9893 559.757 61.7287 559.604 61.422C559.481 61.0847 559.405 60.7167 559.374 60.318C559.374 59.9193 559.405 59.5207 559.466 59.122C559.527 58.6927 559.589 58.294 559.65 57.926C559.711 57.5273 559.773 57.1747 559.834 56.868C559.926 56.5 560.003 56.1473 560.064 55.81ZM561.904 40.722C561.659 40.9673 561.321 41.5347 560.892 42.424C560.493 43.3133 560.079 44.31 559.65 45.414C559.251 46.4873 558.868 47.5453 558.5 48.588C558.163 49.6307 557.948 50.428 557.856 50.98C558.285 50.3667 558.699 49.7533 559.098 49.14C559.497 48.496 559.88 47.8367 560.248 47.162C560.616 46.4567 560.938 45.7053 561.214 44.908C561.49 44.1107 561.72 43.2213 561.904 42.24C561.965 41.9947 561.996 41.7493 561.996 41.504C561.996 41.2587 561.965 40.998 561.904 40.722ZM569.469 52.406C568.948 52.3447 568.718 52.084 568.779 51.624C568.841 51.072 569.009 50.428 569.285 49.692C569.592 48.9253 569.868 48.3273 570.113 47.898C570.297 47.622 570.558 47.4993 570.895 47.53C571.079 47.5607 571.263 47.5913 571.447 47.622C571.631 47.6527 571.8 47.714 571.953 47.806C572.199 47.9593 572.275 48.1127 572.183 48.266C572.122 48.4193 571.969 48.7107 571.723 49.14C571.233 49.968 570.895 50.5967 570.711 51.026C570.527 51.4553 570.389 51.7773 570.297 51.992C570.236 52.176 570.159 52.2833 570.067 52.314C570.006 52.3447 569.807 52.3753 569.469 52.406ZM576.093 55.902C576.155 55.81 576.247 55.764 576.369 55.764C576.523 55.764 576.676 55.856 576.829 56.04C577.013 56.1933 577.059 56.362 576.967 56.546C576.691 57.098 576.247 57.8187 575.633 58.708C575.051 59.5973 574.361 60.4713 573.563 61.33C572.797 62.158 571.984 62.8787 571.125 63.492C570.267 64.1053 569.469 64.412 568.733 64.412C568.212 64.412 567.752 64.274 567.353 63.998C566.985 63.6913 566.74 63.262 566.617 62.71C566.525 62.158 566.479 61.5293 566.479 60.824C566.479 60.088 566.525 59.3673 566.617 58.662C566.709 57.9567 566.832 57.282 566.985 56.638C567.139 55.994 567.307 55.442 567.491 54.982C567.706 54.4607 567.844 54.1233 567.905 53.97C567.997 53.786 568.197 53.6633 568.503 53.602C569.086 53.5713 569.561 53.786 569.929 54.246C569.991 54.338 570.006 54.4607 569.975 54.614C569.945 54.7673 569.914 54.8747 569.883 54.936C569.761 55.3653 569.607 55.8867 569.423 56.5C569.27 57.1133 569.117 57.7727 568.963 58.478C568.841 59.1527 568.733 59.8273 568.641 60.502C568.58 61.146 568.58 61.7287 568.641 62.25C568.733 62.8327 568.887 63.124 569.101 63.124C569.347 63.124 569.669 62.986 570.067 62.71C570.497 62.4033 570.941 62.02 571.401 61.56C571.861 61.0693 572.337 60.548 572.827 59.996C573.318 59.444 573.778 58.9073 574.207 58.386C574.667 57.834 575.051 57.3433 575.357 56.914C575.695 56.454 575.94 56.1167 576.093 55.902ZM584.162 56.96C584.101 57.4813 584.101 57.7573 584.162 57.788C584.254 57.788 584.499 57.7113 584.898 57.558C586.002 57.2207 586.83 56.9293 587.382 56.684C587.934 56.4387 588.317 56.2393 588.532 56.086C588.685 55.9633 588.839 55.902 588.992 55.902C589.145 55.8713 589.253 55.9173 589.314 56.04C589.406 56.1627 589.406 56.3313 589.314 56.546C589.222 56.73 589.13 56.868 589.038 56.96C588.762 57.2053 588.379 57.4507 587.888 57.696C587.397 57.9413 586.891 58.1713 586.37 58.386C585.879 58.6007 585.404 58.7847 584.944 58.938C584.515 59.0607 584.208 59.1527 584.024 59.214C583.748 59.2447 583.564 59.3827 583.472 59.628C583.319 59.9347 583.104 60.272 582.828 60.64C582.552 61.008 582.245 61.3453 581.908 61.652C581.601 61.9587 581.249 62.2193 580.85 62.434C580.482 62.618 580.099 62.71 579.7 62.71C579.087 62.71 578.565 62.4493 578.136 61.928C577.707 61.376 577.63 60.4867 577.906 59.26C577.967 58.9533 578.013 58.754 578.044 58.662C578.075 58.5393 578.013 58.4013 577.86 58.248C577.737 58.1253 577.615 58.0027 577.492 57.88C577.369 57.7573 577.262 57.6193 577.17 57.466C576.741 56.6687 576.695 55.902 577.032 55.166C577.369 54.43 577.875 53.832 578.55 53.372C579.133 52.9733 579.746 52.774 580.39 52.774C581.003 52.774 581.632 52.958 582.276 53.326C583.717 54.062 584.346 55.2733 584.162 56.96ZM578.688 57.006C578.78 56.9447 578.903 56.7913 579.056 56.546C579.209 56.27 579.378 56.0093 579.562 55.764C579.777 55.5187 580.007 55.3193 580.252 55.166C580.528 55.0127 580.819 55.0127 581.126 55.166C581.555 55.3193 581.601 55.5647 581.264 55.902C580.988 56.2087 580.758 56.5307 580.574 56.868C580.39 57.2053 580.221 57.5427 580.068 57.88C579.976 58.0947 580.037 58.2173 580.252 58.248C580.528 58.2787 580.804 58.3093 581.08 58.34C581.356 58.34 581.617 58.3093 581.862 58.248C582.046 58.2173 582.184 58.0947 582.276 57.88C582.613 56.8987 582.659 55.9633 582.414 55.074C582.322 54.7367 582.153 54.4913 581.908 54.338C581.693 54.154 581.448 54.062 581.172 54.062C580.681 54.062 580.191 54.2613 579.7 54.66C579.209 55.0587 578.872 55.5953 578.688 56.27C578.657 56.3927 578.627 56.5153 578.596 56.638C578.596 56.73 578.627 56.8527 578.688 57.006ZM579.378 61.1C579.47 61.4987 579.669 61.5753 579.976 61.33C580.528 60.9313 580.988 60.3947 581.356 59.72C581.54 59.4747 581.479 59.3673 581.172 59.398C580.865 59.4287 580.436 59.3673 579.884 59.214C579.731 59.1833 579.623 59.26 579.562 59.444C579.47 59.812 579.409 60.1493 579.378 60.456C579.347 60.7627 579.347 60.9773 579.378 61.1ZM590.738 58.984C590.861 58.9227 591.137 58.524 591.566 57.788C591.995 57.052 592.747 56.0553 593.82 54.798C594.219 54.338 594.556 54.016 594.832 53.832C595.108 53.6173 595.537 53.602 596.12 53.786C596.519 53.9087 596.764 54.0927 596.856 54.338C596.979 54.5833 597.025 54.9053 596.994 55.304C596.963 55.7027 596.917 56.178 596.856 56.73C596.795 57.282 596.779 57.9413 596.81 58.708C596.81 58.8613 596.871 59.1067 596.994 59.444C597.147 59.7813 597.347 59.95 597.592 59.95C597.96 59.95 598.389 59.7967 598.88 59.49C599.401 59.1833 599.892 58.846 600.352 58.478C600.843 58.0793 601.287 57.6807 601.686 57.282C602.085 56.8833 602.361 56.592 602.514 56.408C602.759 56.0707 603.081 56.0093 603.48 56.224C603.756 56.3467 603.802 56.546 603.618 56.822C602.729 58.11 601.793 59.1527 600.812 59.95C599.831 60.7167 598.849 61.1613 597.868 61.284C597.132 61.376 596.473 61.1767 595.89 60.686C595.338 60.1647 594.985 59.5053 594.832 58.708C594.801 58.432 594.786 58.1407 594.786 57.834C594.786 57.5273 594.801 57.2513 594.832 57.006C594.863 56.73 594.893 56.4847 594.924 56.27C594.955 56.0553 594.955 55.902 594.924 55.81C594.771 55.8407 594.51 56.1167 594.142 56.638C593.774 57.1593 593.391 57.7267 592.992 58.34C592.624 58.9533 592.271 59.536 591.934 60.088C591.597 60.64 591.397 60.9773 591.336 61.1C591.06 61.5293 590.784 61.8667 590.508 62.112C590.232 62.3573 589.818 62.4493 589.266 62.388C588.653 62.296 588.361 61.9587 588.392 61.376C588.423 60.7933 588.561 59.9347 588.806 58.8C588.867 58.432 588.959 57.972 589.082 57.42C589.205 56.8373 589.343 56.2547 589.496 55.672C589.649 55.0587 589.803 54.476 589.956 53.924C590.14 53.372 590.324 52.9427 590.508 52.636C590.569 52.5133 590.646 52.406 590.738 52.314C590.83 52.222 590.953 52.176 591.106 52.176C591.382 52.176 591.612 52.222 591.796 52.314C592.011 52.3753 592.118 52.5593 592.118 52.866C592.026 53.2953 591.965 53.648 591.934 53.924C591.903 54.1693 591.888 54.3687 591.888 54.522C591.888 54.6447 591.873 54.7367 591.842 54.798C591.811 54.8593 591.75 54.9207 591.658 54.982C591.597 55.0127 591.52 55.2427 591.428 55.672C591.336 56.0707 591.229 56.5153 591.106 57.006C590.983 57.5887 590.861 58.248 590.738 58.984Z" fill="#4B3786"/>
</g>
<defs>
<clipPath id="clip0_12959_38514">
<rect width="1250" height="132" fill="white" transform="translate(0 1)"/>
</clipPath>
</defs>
</svg>
